<svg height="511pt" viewBox="-39 1 511 511.999" width="511pt" xmlns="http://www.w3.org/2000/svg"><path d="m344.691406 355.242188h-78.191406c-5.519531 0-10 4.476562-10 10 0 5.523437 4.480469 10 10 10h78.191406c5.523438 0 10-4.476563 10-10 0-5.523438-4.476562-10-10-10zm0 0"/><path d="m354.691406 405.242188c0-5.523438-4.476562-10-10-10h-56.191406c-5.519531 0-10 4.476562-10 10 0 5.523437 4.480469 10 10 10h56.191406c5.523438 0 10-4.476563 10-10zm0 0"/><path d="m404.046875 450.503906v-389.007812l27.472656-46.402344c1.832031-3.089844 1.863281-6.925781.085938-10.046875-1.78125-3.121094-5.097657-5.046875-8.6875-5.046875h-412.417969c-3.59375 0-6.914062 1.929688-8.691406 5.054688-1.777344 3.121093-1.7421878 6.960937.09375 10.050781l27.550781 46.398437v234.253906c0 5.523438 4.480469 10 10 10 5.523437 0 10-4.476562 10-10v-227h334.59375v374.484376h-334.59375v-67.484376c0-5.523437-4.476563-10-10-10s-10 4.476563-10 10v74.738282l-27.550781 46.398437c-1.8359378 3.089844-1.871094 6.925781-.09375 10.050781s5.097656 5.054688 8.691406 5.054688h412.414062c3.59375 0 6.910157-1.929688 8.691407-5.050781 1.777343-3.121094 1.746093-6.953125-.085938-10.046875zm-358.902344-401.746094-17.078125-28.757812h377.308594l-17.027344 28.757812zm-17.078125 443.242188 17.078125-28.757812h343.203125l17.027344 28.757812zm0 0"/><path d="m79.011719 166.582031c1.546875 3.738281 5.191406 6.175781 9.238281 6.175781h256c4.046875 0 7.699219-2.445312 9.242188-6.1875 1.546874-3.746093.679687-8.050781-2.195313-10.90625l-21.03125-20.90625 21.03125-20.910156c2.875-2.855468 3.742187-7.160156 2.195313-10.90625-1.542969-3.742187-5.195313-6.183594-9.242188-6.183594h-256c-4.046875 0-7.691406 2.433594-9.238281 6.171876-1.550781 3.734374-.691407 8.039062 2.167969 10.898437l20.925781 20.929687-20.925781 20.925782c-2.859376 2.863281-3.71875 7.164062-2.167969 10.898437zm44.308593-38.894531-10.929687-10.929688h207.613281l-10.972656 10.90625c-1.886719 1.878907-2.949219 4.429688-2.949219 7.09375 0 2.660157 1.0625 5.214844 2.949219 7.089844l10.972656 10.910156h-207.613281l10.929687-10.929687c3.90625-3.90625 3.90625-10.238281 0-14.140625zm0 0"/><path d="m202.496094 326.789062c-8.484375-3.359374-16.164063-8.441406-22.828125-15.105468-6.664063-6.664063-11.746094-14.34375-15.101563-22.828125-4.777344-12.054688-15.183594-20.855469-27.839844-23.542969-12.402343-2.632812-25.191406 1.078125-34.1875 9.894531l-.417968.414063c-25.730469 25.734375-21.183594 72.152344 10.136718 103.472656 14.878907 14.878906 33.597657 24.265625 52.707032 26.433594 2.835937.324218 5.628906.480468 8.375.480468 16.601562 0 31.429687-5.816406 42.375-16.761718l.402344-.40625c8.84375-9.019532 12.554687-21.8125 9.921874-34.214844-2.6875-12.65625-11.488281-23.0625-23.542968-27.835938zm-.65625 48.046876-.253906.25c-8.375 8.378906-20.578126 12.136718-34.367188 10.570312-14.632812-1.660156-29.128906-9.015625-40.820312-20.707031-11.6875-11.6875-19.042969-26.1875-20.703126-40.820313-1.5625-13.78125 2.191407-25.988281 10.585938-34.382812l.234375-.230469c3.355469-3.292969 7.679687-5.042969 12.238281-5.042969 1.261719 0 2.539063.132813 3.820313.40625 6.085937 1.289063 11.09375 5.53125 13.394531 11.34375 4.371094 11.035156 10.949219 20.996094 19.558594 29.601563 8.605468 8.605469 18.566406 15.1875 29.601562 19.558593 5.8125 2.300782 10.054688 7.308594 11.34375 13.394532 1.257813 5.917968-.433594 11.773437-4.632812 16.058594zm0 0"/><path d="m269.339844 327.917969c17.945312-2.035157 35.515625-10.847657 49.476562-24.808594 29.425782-29.425781 33.660156-73.074219 9.433594-97.300781l-.363281-.363282c-8.566407-8.394531-20.710938-11.914062-32.480469-9.417968-12.007812 2.550781-21.882812 10.902344-26.414062 22.339844-3.089844 7.808593-7.769532 14.878906-13.90625 21.015624-6.136719 6.136719-13.207032 10.8125-21.015626 13.90625-11.4375 4.53125-19.789062 14.40625-22.339843 26.414063-2.496094 11.773437 1.023437 23.914063 9.4375 32.492187l.347656.351563c10.335937 10.335937 24.3125 15.820313 39.945313 15.820313 2.582031.003906 5.210937-.148438 7.878906-.449219zm-33.683594-29.511719-.222656-.226562c-3.75-3.824219-5.257813-9.046876-4.136719-14.324219 1.152344-5.4375 4.941406-9.914063 10.136719-11.972657 10.363281-4.101562 19.714844-10.28125 27.792968-18.359374 8.082032-8.078126 14.257813-17.429688 18.363282-27.792969 2.054687-5.195313 6.53125-8.984375 11.96875-10.136719 1.140625-.246094 2.28125-.363281 3.40625-.363281 4.066406 0 7.925781 1.5625 10.9375 4.515625l.207031.207031c16.425781 16.425781 12.195313 47.386719-9.4375 69.015625-21.628906 21.628906-52.589844 25.863281-69.015625 9.4375zm0 0"/><path d="m39.449219 345.761719c2.628906 0 5.210937-1.070313 7.070312-2.933594 1.859375-1.859375 2.929688-4.4375 2.929688-7.066406 0-2.640625-1.070313-5.210938-2.929688-7.070313-1.859375-1.871094-4.441406-2.929687-7.070312-2.929687-2.628907 0-5.210938 1.058593-7.070313 2.929687-1.859375 1.859375-2.929687 4.429688-2.929687 7.070313 0 2.628906 1.070312 5.207031 2.929687 7.066406 1.859375 1.863281 4.441406 2.933594 7.070313 2.933594zm0 0"/></svg>