<svg height="512pt" viewBox="0 0 512 512" width="512pt" xmlns="http://www.w3.org/2000/svg"><path d="m511.871094 18.476562v-8.480468c0-5.519532-4.472656-9.996094-9.996094-9.996094h-491.878906c-5.519532 0-9.996094 4.476562-9.996094 9.996094v33.492187c0 1.148438.0507812 2.285157.128906 3.410157v321.007812c0 16.539062 13.453125 29.992188 29.992188 29.992188h171.957031v39.992187h-4c-35.28125 0-63.984375 28.703125-63.984375 63.984375 0 5.519531 4.476562 9.996094 10 9.996094h223.941406c5.523438 0 10-4.476563 10-9.996094 0-35.28125-28.703125-63.984375-63.984375-63.984375h-4v-39.992187h171.957031c16.539063 0 29.992188-13.453126 29.992188-29.992188v-347.914062c0-.515626-.050781-1.019532-.128906-1.515626zm-81.976563 1.519532h61.984375v23.492187c0 17.089844-13.90625 30.992188-30.992187 30.992188-17.089844 0-30.992188-13.902344-30.992188-30.992188zm-19.996093 23.492187c0 17.089844-13.902344 30.992188-30.992188 30.992188s-30.992188-13.902344-30.992188-30.992188v-23.492187h61.984376zm-307.921876-23.492187h61.984376v23.492187c0 17.089844-13.90625 30.992188-30.992188 30.992188-17.089844 0-30.992188-13.902344-30.992188-30.992188zm81.976563 0h61.984375v23.492187c0 17.089844-13.902344 30.992188-30.992188 30.992188-17.085937 0-30.992187-13.902344-30.992187-30.992188zm81.980469 0h61.984375v23.492187c0 17.089844-13.902344 30.992188-30.992188 30.992188-17.089843 0-30.992187-13.902344-30.992187-30.992188zm-183.953125 23.492187c0 17.089844-13.90625 30.992188-30.992188 30.992188-16.171875 0-29.480469-12.449219-30.867187-28.265625v-26.21875h61.859375zm274.914062 448.390625h-201.660156c4.539063-19.457031 22.027344-33.992187 42.84375-33.992187h115.972656c20.816407 0 38.304688 14.535156 42.84375 33.992187zm-66.839843-53.988281h-67.984376v-39.992187h67.984376zm191.953124-59.984375h-451.886718c-5.515625 0-10-4.484375-10-10v-29.992188h401.902344c5.519531 0 9.996093-4.476562 9.996093-9.996093 0-5.523438-4.476562-9.996094-9.996093-9.996094h-401.902344v-233.886719c8.574218 6.542969 19.273437 10.441406 30.867187 10.441406 16.78125 0 31.691407-8.15625 40.988281-20.703124 9.296876 12.550781 24.207032 20.703124 40.992188 20.703124 16.78125 0 31.691406-8.15625 40.988281-20.703124 9.296875 12.550781 24.207031 20.703124 40.988281 20.703124 16.785157 0 31.695313-8.15625 40.992188-20.703124 9.296875 12.550781 24.207031 20.703124 40.988281 20.703124 16.785157 0 31.695313-8.15625 40.992188-20.703124 9.292969 12.550781 24.207031 20.703124 40.988281 20.703124s31.691406-8.15625 40.988281-20.703124c9.296875 12.550781 24.207031 20.703124 40.992188 20.703124 11.710937 0 22.5-3.980468 31.117187-10.640624v284.070312c0 5.515625-4.484375 10-9.996094 10zm0 0"/><path d="m256.109375 346.914062h-.09375c-5.523437 0-9.949219 4.476563-9.949219 9.996094 0 5.523438 4.519532 9.996094 10.042969 9.996094s9.996094-4.472656 9.996094-9.996094c0-5.519531-4.472657-9.996094-9.996094-9.996094zm0 0"/><path d="m462.015625 317.921875c-2.640625 0-5.207031 1.066406-7.070313 2.925781-1.867187 1.859375-2.925781 4.441406-2.925781 7.070313 0 2.628906 1.058594 5.207031 2.925781 7.066406 1.863282 1.859375 4.429688 2.929687 7.070313 2.929687 2.628906 0 5.207031-1.070312 7.066406-2.929687s2.929688-4.4375 2.929688-7.066406c0-2.628907-1.070313-5.210938-2.929688-7.070313s-4.4375-2.925781-7.066406-2.925781zm0 0"/><path d="m418.378906 235.941406c-1.367187-53.089844-42.472656-96.464844-94.605468-101.429687v-7.476563c0-5.523437-4.476563-10-10-10-5.519532 0-9.996094 4.476563-9.996094 10v7.476563c-35.0625 3.339843-65.132813 24.050781-81.484375 53.410156h-78.664063c-5.519531 0-9.996094 4.476563-9.996094 9.996094 0 5.523437 4.476563 10 9.996094 10h70.117188c-2.738282 8.886719-4.324219 18.277343-4.574219 27.992187h-141.6875c-5.523437 0-10 4.476563-10 9.996094 0 5.523438 4.476563 10 10 10h133.324219c4.644531 22.789062 24.839844 39.988281 48.980468 39.988281h127.96875c27.5625 0 49.988282-22.425781 49.988282-49.988281 0-5.308594-4.140625-9.636719-9.367188-9.964844zm-104.605468-81.914062c45.75 0 83.136718 36.484375 84.601562 81.882812h-169.203125c1.46875-45.398437 38.855469-81.882812 84.601563-81.882812zm63.984374 121.871094h-127.964843c-13.035157 0-24.15625-8.355469-28.28125-19.992188h184.527343c-4.125 11.636719-15.246093 19.992188-28.28125 19.992188zm0 0"/><path d="m103.644531 207.917969c2.628907 0 5.207031-1.070313 7.066407-2.929688 1.859374-1.859375 2.929687-4.4375 2.929687-7.070312 0-2.628907-1.070313-5.207031-2.929687-7.066407-1.867188-1.859374-4.4375-2.929687-7.066407-2.929687-2.640625 0-5.207031 1.070313-7.070312 2.929687-1.867188 1.859376-2.925781 4.4375-2.925781 7.066407 0 2.632812 1.058593 5.210937 2.925781 7.070312 1.863281 1.859375 4.429687 2.929688 7.070312 2.929688zm0 0"/></svg>