<svg height="511pt" viewBox="0 0 511.99964 511" width="511pt" xmlns="http://www.w3.org/2000/svg"><path d="m273.996094 238.761719h-263.996094c-5.523438 0-10 4.476562-10 10v57.398437c0 9.289063 2.972656 17.894532 8 24.933594v57.402344c0 5.523437 4.476562 10 10 10s10-4.476563 10-10v-42.039063c4.671875 1.742188 9.726562 2.703125 15 2.703125 13.242188 0 25.105469-6.023437 33-15.46875 6.261719 7.496094 15.027344 12.824219 25 14.710938v144.09375h-73v-24c0-5.523438-4.476562-10-10-10s-10 4.476562-10 10v34c0 5.523437 4.476562 10 10 10h247.996094c5.523437 0 10-4.476563 10-10v-171.402344c5.027344-7.039062 8-15.644531 8-24.933594v-57.398437c0-5.523438-4.476563-10-10-10zm-18 179.734375h-134.996094v-71.050782c8.308594-2.421874 15.585938-7.277343 20.996094-13.753906 7.894531 9.445313 19.757812 15.46875 33 15.46875 13.246094 0 25.105468-6.023437 33-15.46875 7.894531 9.445313 19.753906 15.46875 33 15.46875 5.273437 0 10.328125-.960937 15-2.703125zm8-112.335938c0 12.683594-10.316406 23-23 23s-23-10.316406-23-23v-47.398437h46zm-66 0c0 12.683594-10.316406 23-23 23-12.679688 0-23-10.316406-23-23v-47.398437h46zm-154.996094 23c-12.683594 0-23-10.316406-23-23v-47.398437h46v47.398437c0 12.683594-10.320312 23-23 23zm43-23v-47.398437h45.996094v47.398437c0 12.683594-10.316406 23-22.996094 23-12.683594 0-23-10.316406-23-23zm35 186.335938v-54h134.996094v54zm0 0"/><path d="m88.082031 418.078125v-8.082031c0-5.523438-4.476562-10-10-10-5.523437 0-10 4.476562-10 10v8.082031c0 5.519531 4.476563 10 10 10 5.523438 0 10-4.480469 10-10zm0 0"/><path d="m305.339844 438.496094h-.882813c-5.523437 0-10 4.476562-10 10 0 5.523437 4.476563 10 10 10h.882813c5.523437 0 10-4.476563 10-10 0-5.523438-4.476563-10-10-10zm0 0"/><path d="m411.339844 438.496094h-10c-5.523438 0-10 4.476562-10 10 0 5.523437 4.476562 10 10 10h10c5.523437 0 10-4.476563 10-10 0-5.523438-4.476563-10-10-10zm0 0"/><path d="m463.277344 438.316406c-1.121094.121094-2.273438.179688-3.414063.179688h-5.523437c-5.523438 0-10 4.476562-10 10 0 5.523437 4.476562 10 10 10h5.523437c1.84375 0 3.695313-.097656 5.511719-.289063 5.492188-.582031 9.476562-5.503906 8.898438-10.996093-.578126-5.488282-5.5-9.46875-10.996094-8.894532zm0 0"/><path d="m448.726562 365.253906c.847657-5.457031-2.886718-10.570312-8.34375-11.417968-2.511718-.390626-4.96875-1.078126-7.3125-2.050782-5.101562-2.113281-10.949218.308594-13.066406 5.410156-2.113281 5.101563.308594 10.953126 5.410156 13.066407 3.808594 1.582031 7.8125 2.703125 11.894532 3.335937.519531.082032 1.039062.121094 1.546875.121094 4.84375 0 9.101562-3.527344 9.871093-8.464844zm0 0"/><path d="m496.09375 382.636719c3.796875-4.011719 3.625-10.339844-.382812-14.136719-2.996094-2.839844-6.324219-5.316406-9.894532-7.371094-4.789062-2.75-10.902344-1.101562-13.652344 3.6875-2.753906 4.789063-1.101562 10.902344 3.6875 13.652344 2.199219 1.265625 4.257813 2.796875 6.105469 4.550781 1.933594 1.832031 4.40625 2.738281 6.875 2.738281 2.648438 0 5.292969-1.046874 7.261719-3.121093zm0 0"/><path d="m503.152344 405.242188c-5.398438-1.128907-10.703125 2.335937-11.832032 7.742187-.519531 2.480469-1.339843 4.902344-2.429687 7.191406-2.378906 4.984375-.265625 10.953125 4.714844 13.332031 1.390625.664063 2.859375.980469 4.300781.980469 3.734375 0 7.316406-2.101562 9.03125-5.695312 1.78125-3.730469 3.113281-7.671875 3.957031-11.710938 1.128907-5.410156-2.335937-10.707031-7.742187-11.839843zm0 0"/><path d="m403.226562 308.753906c-5.523437 0-10 4.476563-10 10v3.328125c0 2.746094.21875 5.507813.644532 8.207031.78125 4.925782 5.03125 8.4375 9.863281 8.4375.519531 0 1.046875-.039062 1.578125-.125 5.453125-.863281 9.175781-5.984374 8.3125-11.441406-.265625-1.667968-.398438-3.375-.398438-5.078125v-3.328125c0-5.523437-4.476562-10-10-10zm0 0"/><path d="m358.339844 438.496094h-10c-5.523438 0-10 4.476562-10 10 0 5.523437 4.476562 10 10 10h10c5.523437 0 10-4.476563 10-10 0-5.523438-4.476563-10-10-10zm0 0"/><path d="m419.417969 265.324219 6.960937-8.925781 61.339844-78.621094c.023438-.035156.050781-.066406.078125-.101563 15.4375-19.070312 24.03125-43.074219 24.199219-67.632812.414062-59.574219-47.691406-108.710938-107.234375-109.53125-29.347657-.4140628-57.023438 10.714843-77.910157 31.316406-20.890624 20.601563-32.398437 48.105469-32.398437 77.445313 0 24.886718 8.597656 49.148437 24.230469 68.441406.132812.195312.269531.390625.417968.582031l67.933594 87.03125c3.921875 5.019531 9.824219 7.902344 16.191406 7.898437 6.371094 0 12.273438-2.882812 16.191407-7.902343zm-16.617188-12.300781-67.324219-86.253907c-.21875-.34375-.460937-.675781-.722656-.996093-13.089844-15.84375-20.300781-35.910157-20.300781-56.5 0-23.945313 9.390625-46.390626 26.441406-63.207032 17.042969-16.8125 39.652344-25.882812 63.589844-25.558594 48.589844.671876 87.851563 40.773438 87.511719 89.394532-.140625 20.429687-7.03125 39.589844-19.921875 55.40625-.113281.140625-.222657.285156-.332031.429687l-68.09375 87.28125c-.058594.074219-.160157.207031-.421876.207031-.261718 0-.367187-.132812-.425781-.203124zm0 0"/><path d="m455.558594 109.273438c0-28.855469-23.476563-52.332032-52.332032-52.332032-28.855468 0-52.332031 23.476563-52.332031 52.332032 0 28.855468 23.476563 52.332031 52.332031 52.332031 28.855469 0 52.332032-23.476563 52.332032-52.332031zm-52.332032 32.332031c-17.828124 0-32.332031-14.503907-32.332031-32.332031 0-17.828126 14.503907-32.332032 32.332031-32.332032 17.828126 0 32.332032 14.503906 32.332032 32.332032 0 17.828124-14.503906 32.332031-32.332032 32.332031zm0 0"/><path d="m18 438.496094c2.628906 0 5.210938-1.070313 7.070312-2.929688 1.859376-1.859375 2.929688-4.441406 2.929688-7.070312 0-2.632813-1.070312-5.210938-2.929688-7.070313-1.859374-1.859375-4.441406-2.929687-7.070312-2.929687s-5.210938 1.070312-7.070312 2.929687c-1.859376 1.859375-2.929688 4.4375-2.929688 7.070313 0 2.628906 1.070312 5.210937 2.929688 7.070312 1.859374 1.859375 4.441406 2.929688 7.070312 2.929688zm0 0"/></svg>