<svg height="512pt" viewBox="-27 0 512 512" width="512pt" xmlns="http://www.w3.org/2000/svg"><path d="m457.117188 181.894531-53.117188-118.039062v-33.855469c0-16.542969-13.457031-30-30-30h-290c-16.542969 0-30 13.457031-30 30v33.855469l-53.117188 118.039062c-.582031 1.292969-.882812 2.691407-.882812 4.105469v316c0 5.523438 4.476562 10 10 10h329.996094.007812 107.996094c5.523438 0 10-4.476562 10-10v-316c0-1.414062-.300781-2.8125-.882812-4.105469zm-19.117188 295.960938-34-34v-197.855469c0-5.523438-4.476562-10-10-10s-10 4.476562-10 10v197.855469l-34 34v-289.710938l44-97.777343 44 97.777343zm-44-15.714844 29.859375 29.859375h-59.714844zm-320-432.140625c0-5.515625 4.484375-10 10-10h290c5.515625 0 10 4.484375 10 10v26h-310zm-54 158.144531 50.464844-112.144531h308.070312l-47.652344 105.894531c-.582031 1.292969-.882812 2.691407-.882812 4.105469v306h-310zm0 0"/><path d="m386.929688 198.929688c-1.859376 1.859374-2.929688 4.441406-2.929688 7.070312s1.070312 5.210938 2.929688 7.070312c1.859374 1.859376 4.441406 2.929688 7.070312 2.929688s5.210938-1.070312 7.070312-2.929688c1.859376-1.859374 2.929688-4.441406 2.929688-7.070312s-1.070312-5.210938-2.929688-7.070312c-1.859374-1.859376-4.441406-2.929688-7.070312-2.929688s-5.210938 1.070312-7.070312 2.929688zm0 0"/><path d="m283 203.816406h-216c-5.523438 0-10 4.476563-10 10v180c0 5.523438 4.476562 10 10 10h216c5.523438 0 10-4.476562 10-10v-180c0-5.523437-4.476562-10-10-10zm-58.144531 20-147.855469 147.855469v-147.855469zm-131.710938 160 160-160h19.855469v26.390625c-.195312.164063-.386719.332031-.570312.515625l-64.035157 64.035156c-3.90625 3.90625-3.90625 10.238282 0 14.144532 1.953125 1.953125 4.511719 2.925781 7.070313 2.925781s5.121094-.976563 7.070312-2.925781l50.464844-50.464844v105.378906zm0 0"/><path d="m187.179688 340.109375c-2.628907 0-5.210938 1.070313-7.070313 2.929687-1.859375 1.859376-2.929687 4.441407-2.929687 7.070313 0 2.640625 1.070312 5.210937 2.929687 7.070313 1.859375 1.871093 4.441406 2.929687 7.070313 2.929687 2.628906 0 5.210937-1.058594 7.070312-2.929687 1.859375-1.859376 2.929688-4.441407 2.929688-7.070313s-1.070313-5.210937-2.929688-7.070313c-1.859375-1.859374-4.441406-2.929687-7.070312-2.929687zm0 0"/></svg>