<svg height="512pt" viewBox="0 0 512 512" width="512pt" xmlns="http://www.w3.org/2000/svg"><path d="m129.996094 67.996094c-32.511719 0-59.238282 25.160156-61.78125 57.023437-.171875.832031-.246094 1.695313-.195313 2.582031.003907.101563.023438.195313.03125.292969-.023437.699219-.054687 1.394531-.054687 2.101563 0 34.183594 27.8125 61.996094 62 61.996094.691406 0 1.378906-.03125 2.066406-.050782.109375.007813.214844.027344.324219.035156.195312.011719.394531.015626.585937.015626.710938 0 1.402344-.082032 2.074219-.222657 31.828125-2.582031 56.945313-29.292969 56.945313-61.773437 0-34.1875-27.8125-62-61.996094-62zm16.5 99.671875c-.117188.351562-.210938.710937-.285156 1.066406-1.238282.519531-2.503907.980469-3.796876 1.382813-3.882812-27.140626-25.402343-48.660157-52.542968-52.542969.40625-1.300781.871094-2.574219 1.394531-3.820313.414063-.078125.828125-.175781 1.238281-.308594 4.28125-1.398437 8.761719-2.105468 13.316406-2.105468 23.621094 0 42.839844 19.21875 42.839844 42.839844 0 4.617187-.726562 9.15625-2.164062 13.488281zm-57.789063-30.019531c17.03125 3.148437 30.484375 16.601562 33.636719 33.632812-17.03125-3.148438-30.488281-16.601562-33.636719-33.632812zm79.5625 9.601562c-3.210937-29.132812-26.410156-52.324219-55.542969-55.523438 5.269532-2.386718 11.113282-3.730468 17.265626-3.730468 23.160156 0 42 18.839844 42 42 0 6.148437-1.335938 11.984375-3.722657 17.253906zm0 0"/><path d="m430.765625 246.914062 17.21875-17.21875 46.925781 46.929688c3.90625 3.902344 10.234375 3.902344 14.140625 0 3.90625-3.90625 3.90625-10.238281 0-14.144531l-53.992187-53.992188s-.003906-.003906-.003906-.003906c-.003907-.003906-.003907-.003906-.003907-.003906l-199.058593-199.058594c-12.542969-12.542969-32.957032-12.542969-45.5 0-3.71875 3.71875-6.328126 8.132813-7.839844 12.828125-20.757813-14.042969-45.765625-22.25-72.65625-22.25-71.679688 0-129.996094 58.316406-129.996094 129.996094 0 26.890625 8.207031 51.898437 22.25 72.65625-4.695312 1.511718-9.109375 4.121094-12.828125 7.839844-12.542969 12.542968-12.542969 32.957031 0 45.5l199.058594 199.058593v.003907h.003906l53.996094 53.996093c1.953125 1.953125 4.511719 2.929688 7.070312 2.929688 2.558594 0 5.117188-.976563 7.070313-2.929688 3.90625-3.90625 3.90625-10.234375 0-14.140625l-46.925782-46.929687 17.214844-17.214844 78.289063 78.285156c1.953125 1.953125 4.511719 2.929688 7.070312 2.929688 2.558594 0 5.117188-.976563 7.070313-2.929688 3.90625-3.90625 3.90625-10.234375 0-14.140625l-113.640625-113.644531c-3.90625-3.902344-10.234375-3.902344-14.140625 0-3.90625 3.90625-3.90625 10.238281 0 14.144531l21.210937 21.210938-17.214843 17.21875-191.992188-191.988282c-4.746094-4.746093-4.746094-12.472656 0-17.21875 4.75-4.746093 12.472656-4.746093 17.21875 0l114.214844 114.214844c3.90625 3.90625 10.234375 3.90625 14.140625 0s3.90625-10.238281 0-14.140625l-67.933594-67.9375c9.265625 2.105469 18.898437 3.21875 28.792969 3.21875 71.679687 0 129.992187-58.3125 129.992187-129.992187 0-9.894532-1.113281-19.527344-3.21875-28.792969l209.535157 209.535156c1.953124 1.953125 4.511718 2.929688 7.070312 2.929688s5.117188-.976563 7.070312-2.929688c3.90625-3.90625 3.90625-10.238281 0-14.144531zm-206.132813-223.347656c4.746094-4.75 12.472657-4.75 17.21875 0l191.988282 191.988282-17.214844 17.21875-191.992188-191.992188c-4.746093-4.746094-4.746093-12.46875 0-17.214844zm-94.636718 216.425782c-60.652344 0-109.996094-49.34375-109.996094-109.996094s49.34375-109.996094 109.996094-109.996094 109.996094 49.34375 109.996094 109.996094-49.34375 109.996094-109.996094 109.996094zm0 0"/><path d="m48.636719 122.25c-3.90625-3.90625-10.238281-3.90625-14.144531 0-3.90625 3.902344-3.90625 10.234375 0 14.140625l1.347656 1.351563c1.953125 1.953124 4.511718 2.925781 7.074218 2.925781 2.558594 0 5.117188-.972657 7.070313-2.925781 3.902344-3.90625 3.902344-10.238282 0-14.144532zm0 0"/><path d="m210.007812 136.390625 1.347657 1.351563c1.953125 1.953124 4.511719 2.925781 7.070312 2.925781 2.558594 0 5.117188-.972657 7.070313-2.925781 3.90625-3.90625 3.90625-10.238282 0-14.144532l-1.347656-1.347656c-3.90625-3.90625-10.234376-3.90625-14.144532 0-3.902344 3.902344-3.902344 10.234375.003906 14.140625zm0 0"/><path d="m129.320312 52.910156c2.558594 0 5.117188-.972656 7.070313-2.925781l1.347656-1.347656c3.90625-3.90625 3.90625-10.238281.003907-14.144531-3.90625-3.90625-10.234376-3.90625-14.140626 0l-1.351562 1.347656c-3.90625 3.90625-3.90625 10.238281-.003906 14.140625 1.953125 1.953125 4.515625 2.929687 7.074218 2.929687zm0 0"/><path d="m123.601562 210.003906-1.351562 1.351563c-3.90625 3.902343-3.90625 10.234375-.003906 14.140625 1.953125 1.953125 4.515625 2.929687 7.074218 2.929687 2.558594 0 5.117188-.976562 7.066407-2.929687l1.351562-1.347656c3.90625-3.902344 3.90625-10.234376.003907-14.140626-3.90625-3.90625-10.234376-3.90625-14.140626-.003906zm0 0"/><path d="m67.941406 78.894531c5.523438 0 10-4.476562 10-10v-1.90625c0-5.523437-4.476562-10-10-10-5.523437 0-10 4.476563-10 10v1.90625c0 5.523438 4.476563 10 10 10zm0 0"/><path d="m192.046875 181.09375c-5.519531 0-9.996094 4.476562-9.996094 10v1.910156c0 5.519532 4.476563 10 9.996094 10 5.523437 0 10-4.480468 10-10v-1.910156c0-5.523438-4.476563-10-10-10zm0 0"/><path d="m193.003906 57.941406h-1.910156c-5.519531 0-9.996094 4.476563-9.996094 10 0 5.523438 4.476563 10 9.996094 10h1.910156c5.519532 0 10-4.476562 10-10 0-5.523437-4.480468-10-10-10zm0 0"/><path d="m68.894531 182.050781h-1.90625c-5.523437 0-10 4.476563-10 9.996094 0 5.523437 4.476563 10 10 10h1.90625c5.523438 0 10-4.476563 10-10 0-5.519531-4.476562-9.996094-10-9.996094zm0 0"/><path d="m509.070312 325.226562c-1.859374-1.859374-4.429687-2.929687-7.070312-2.929687-2.628906 0-5.210938 1.070313-7.066406 2.929687-1.863282 1.859376-2.933594 4.441407-2.933594 7.070313s1.070312 5.210937 2.933594 7.070313c1.855468 1.859374 4.4375 2.929687 7.066406 2.929687 2.640625 0 5.210938-1.070313 7.070312-2.929687 1.871094-1.859376 2.929688-4.441407 2.929688-7.070313s-1.058594-5.210937-2.929688-7.070313zm0 0"/><path d="m183.273438 352.984375c-1.859376 1.863281-2.921876 4.441406-2.921876 7.070313 0 2.632812 1.0625 5.210937 2.921876 7.070312 1.867187 1.859375 4.4375 2.929688 7.066406 2.929688 2.644531 0 5.210937-1.070313 7.070312-2.929688 1.871094-1.859375 2.929688-4.4375 2.929688-7.070312 0-2.628907-1.058594-5.207032-2.929688-7.070313-1.859375-1.859375-4.429687-2.929687-7.070312-2.929687-2.628906 0-5.199219 1.070312-7.066406 2.929687zm0 0"/></svg>