<svg height="512pt" viewBox="-110 0 512 512" width="512pt" xmlns="http://www.w3.org/2000/svg"><path d="m282 40c-13.273438 0-24.558594-8.671875-28.496094-20.644531 3.792969-1.417969 6.496094-5.066407 6.496094-9.355469 0-5.523438-4.476562-10-10-10h-208c-5.523438 0-10 4.476562-10 10 0 4.289062 2.703125 7.9375 6.496094 9.355469-3.9375 11.972656-15.222656 20.644531-28.496094 20.644531-5.523438 0-10 4.476562-10 10v126c0 5.523438 4.476562 10 10 10s10-4.476562 10-10v-116h79.824219c-19.886719 26.410156-30 58.539062-28.714844 92.132812 1.507813 39.433594 18.519531 75.660157 47.898437 102.007813 25.964844 23.289063 41.039063 56.652344 41.351563 91.53125s-14.160156 68.503906-39.703125 92.257813l-15.136719 14.070312h-85.519531v-195.871094c0-5.523437-4.476562-10-10-10s-10 4.476563-10 10v205.871094c0 5.523438 4.476562 10 10 10 13.273438 0 24.558594 8.671875 28.496094 20.644531-3.792969 1.417969-6.496094 5.066407-6.496094 9.355469 0 5.523438 4.476562 10 10 10h208c5.523438 0 10-4.476562 10-10 0-4.289062-2.703125-7.9375-6.496094-9.355469 3.9375-11.972656 15.222656-20.644531 28.496094-20.644531 5.523438 0 10-4.476562 10-10v-412c0-5.523438-4.476562-10-10-10zm-232.023438 0c4.375-5.816406 7.515626-12.617188 9.019532-20h174.011718c1.503907 7.382812 4.640626 14.183594 9.015626 20zm130.382813 305.492188c-.363281-40.484376-17.859375-79.207032-48-106.238282-25.308594-22.699218-39.964844-53.910156-41.265625-87.886718-1.300781-33.972657 10.925781-66.214844 34.425781-90.78125l.558594-.585938h55.410156c-29.269531 27.535156-45.84375 66.300781-45.480469 106.507812.359376 40.484376 17.855469 79.207032 47.996094 106.238282 25.3125 22.699218 39.964844 53.910156 41.265625 87.886718 1.300781 33.972657-10.925781 66.214844-34.425781 90.78125l-.558594.585938h-55.410156c29.273438-27.535156 45.84375-66.300781 45.484375-106.507812zm52.644531 146.507812h-174.007812c-1.507813-7.382812-4.644532-14.183594-9.019532-20h192.046876c-4.375 5.816406-7.511719 12.617188-9.019532 20zm38.996094-40h-55.460938c19.886719-26.410156 30-58.539062 28.71875-92.132812-1.511718-39.433594-18.523437-75.660157-47.898437-102.007813-25.96875-23.289063-41.042969-56.652344-41.355469-91.53125s14.160156-68.503906 39.707032-92.257813l15.132812-14.070312h61.15625zm0 0"/><path d="m53.667969 373h60.332031c5.523438 0 10-4.476562 10-10s-4.476562-10-10-10h-60.332031c-5.523438 0-10 4.476562-10 10s4.476562 10 10 10zm0 0"/><path d="m53.667969 421h38.332031c5.523438 0 10-4.476562 10-10s-4.476562-10-10-10h-38.332031c-5.523438 0-10 4.476562-10 10s4.476562 10 10 10zm0 0"/><path d="m245.5 143h-44.5c-5.523438 0-10 4.476562-10 10s4.476562 10 10 10h44.5c5.523438 0 10-4.476562 10-10s-4.476562-10-10-10zm0 0"/><path d="m245.5 191h-31.5c-5.523438 0-10 4.476562-10 10s4.476562 10 10 10h31.5c5.523438 0 10-4.476562 10-10s-4.476562-10-10-10zm0 0"/><path d="m10 226c2.628906 0 5.210938-1.070312 7.070312-2.929688 1.859376-1.859374 2.929688-4.441406 2.929688-7.070312s-1.070312-5.210938-2.929688-7.070312c-1.859374-1.859376-4.441406-2.929688-7.070312-2.929688s-5.210938 1.070312-7.070312 2.929688c-1.859376 1.859374-2.929688 4.441406-2.929688 7.070312s1.070312 5.210938 2.929688 7.070312c1.859374 1.859376 4.441406 2.929688 7.070312 2.929688zm0 0"/></svg>