<svg height="512pt" viewBox="0 0 512 512.00175" width="512pt" xmlns="http://www.w3.org/2000/svg"><path d="m384 24.746094c2.5625 0 5.121094-.976563 7.074219-2.929688l4.746093-4.746094c3.902344-3.902343 3.902344-10.234374 0-14.140624-3.90625-3.90625-10.238281-3.90625-14.144531 0l-4.746093 4.746093c-3.90625 3.902344-3.90625 10.234375 0 14.140625 1.953124 1.953125 4.511718 2.929688 7.070312 2.929688zm0 0"/><path d="m104.253906 62.375c2.5625 0 5.121094-.976562 7.074219-2.929688l4.746094-4.746093c3.902343-3.90625 3.902343-10.238281 0-14.144531-3.90625-3.902344-10.238281-3.902344-14.144531 0l-4.746094 4.746093c-3.90625 3.90625-3.90625 10.238281 0 14.144531 1.953125 1.953126 4.511718 2.929688 7.070312 2.929688zm0 0"/><path d="m313.355469 60.414062c1.949219 1.953126 4.511719 2.929688 7.070312 2.929688 2.558594 0 5.117188-.976562 7.070313-2.929688 3.90625-3.902343 3.90625-10.234374 0-14.140624l-6.6875-6.6875c-3.90625-3.90625-10.238282-3.90625-14.144532 0-3.902343 3.90625-3.902343 10.238281 0 14.140624zm0 0"/><path d="m200.527344 23.761719c1.953125 1.953125 4.511718 2.929687 7.070312 2.929687s5.117188-.976562 7.070313-2.929687c3.90625-3.90625 3.90625-10.238281 0-14.144531l-6.6875-6.6875c-3.90625-3.90625-10.238281-3.90625-14.144531 0-3.902344 3.90625-3.902344 10.238281 0 14.144531zm0 0"/><path d="m509.074219 82.832031c-3.90625-3.902343-10.238281-3.902343-14.144531 0l-72.3125 72.3125c-9.1875-35.480469-41.472657-61.765625-79.789063-61.765625-13.347656 0-25.949219 3.210938-37.113281 8.867188-22.976563-30.371094-58.597656-48.246094-97.078125-48.246094-59.882813 0-109.8125 43.449219-119.914063 100.480469l-71.648437-71.648438c-3.90625-3.902343-10.238281-3.902343-14.144531 0-3.90625 3.90625-3.90625 10.238281 0 14.144531l82.617187 82.617188 42.066406 323.695312c.648438 4.984376 4.894531 8.710938 9.917969 8.710938h235.449219c5.023437 0 9.269531-3.726562 9.917969-8.710938l5.664062-43.578124c.710938-5.476563-3.152344-10.492188-8.628906-11.203126-5.480469-.71875-10.496094 3.152344-11.207032 8.628907l-4.53125 34.863281h-217.878906l-31.011718-238.628906 12.867187 31.867187c1.527344 3.78125 5.195313 6.257813 9.273437 6.257813h235.449219c4.074219 0 7.742188-2.476563 9.269531-6.257813l13.125-32.5-16.167968 124.394531c-.710938 5.476563 3.152344 10.492188 8.628906 11.207032.4375.054687.871094.082031 1.300781.082031 4.949219 0 9.25-3.671875 9.90625-8.710937l25.78125-198.402344 84.335938-84.335938c3.902343-3.902344 3.902343-10.234375 0-14.140625zm-300.4375-8.832031c31.769531 0 61.210937 14.578125 80.441406 39.402344-4.988281 4.300781-9.449219 9.1875-13.289063 14.554687-15.21875-21.453125-39.972656-34.578125-67.152343-34.578125-42.417969 0-77.441407 32.21875-81.910157 73.46875h-19.476562c4.542969-51.953125 48.277344-92.847656 101.386719-92.847656zm0 60.667969c-19.839844 0-36.53125 13.726562-41.09375 32.179687h-20.660157c4.351563-30.191406 30.378907-53.46875 61.753907-53.46875 24.273437 0 45.984375 13.820313 56.320312 35.5-1.984375 5.730469-3.367187 11.742188-4.039062 17.96875h-11.183594c-4.5625-18.453125-21.25-32.179687-41.097656-32.179687zm19.882812 32.179687h-39.761719c3.703126-7.226562 11.222657-12.183594 19.878907-12.183594 8.660156 0 16.179687 4.960938 19.882812 12.183594zm137.628907 104.648438h-221.957032l-34.183594-84.648438h290.320313zm-43.199219-104.648438c3.703125-7.226562 11.21875-12.183594 19.878906-12.183594s16.179687 4.957032 19.882813 12.183594zm60.972656 0c-4.558594-18.457031-21.25-32.183594-41.09375-32.183594-19.839844 0-36.53125 13.726563-41.09375 32.183594h-20.660156c4.351562-30.191406 30.378906-53.46875 61.753906-53.46875s57.40625 23.277344 61.757813 53.46875zm0 0"/><path d="m337.667969 337.136719c0-5.523438-4.476563-10-10-10h-144.828125c-5.519532 0-10 4.476562-10 10 0 5.523437 4.480468 10 10 10h144.828125c5.523437 0 10-4.476563 10-10zm0 0"/><path d="m211.289062 368.421875c-5.519531 0-10 4.480469-10 10 0 5.523437 4.480469 10 10 10h87.929688c5.523438 0 10-4.476563 10-10 0-5.519531-4.476562-10-10-10zm0 0"/><path d="m383.851562 408.421875c-2.640624 0-5.210937 1.070313-7.070312 2.929687-1.871094 1.859376-2.929688 4.4375-2.929688 7.070313 0 2.640625 1.058594 5.207031 2.929688 7.070313 1.859375 1.867187 4.429688 2.929687 7.070312 2.929687 2.628907 0 5.210938-1.0625 7.070313-2.929687 1.859375-1.863282 2.929687-4.441407 2.929687-7.070313 0-2.632813-1.070312-5.210937-2.929687-7.070313-1.859375-1.859374-4.441406-2.929687-7.070313-2.929687zm0 0"/></svg>