<svg height="512pt" viewBox="-57 0 512 512" width="512pt" xmlns="http://www.w3.org/2000/svg"><path d="m199.007812 82.59375c-5.523437 0-10 4.476562-10 10v2.890625c-64.449218 5.085937-115.402343 58.871094-115.984374 124.46875h-2.914063c-5.523437 0-10 4.476563-10 10v8c0 27.570313 22.429687 50 50 50h177.796875c27.570312 0 50-22.429687 50-50v-8c0-5.523437-4.476562-10-10-10h-2.914062c-.582032-65.597656-51.539063-119.382813-115.984376-124.46875v-2.890625c0-5.523438-4.476562-10-10-10zm105.984376 137.359375h-65.859376c-5.523437 0-10 4.476563-10 10s4.476563 10 10 10h78.707032c-1.03125 15.613281-14.0625 28-29.933594 28h-177.796875c-15.871094 0-28.902344-12.386719-29.933594-28h78.960938c5.519531 0 10-4.476563 10-10s-4.480469-10-10-10h-66.113281c.609374-57.925781 47.914062-104.867187 105.984374-104.867187 58.070313 0 105.375 46.941406 105.984376 104.867187zm0 0"/><path d="m189.136719 229.949219c0 2.640625 1.0625 5.210937 2.929687 7.070312 1.863282 1.871094 4.441406 2.929688 7.070313 2.929688 2.632812 0 5.210937-1.058594 7.070312-2.929688 1.859375-1.859375 2.929688-4.429687 2.929688-7.070312 0-2.628907-1.070313-5.210938-2.929688-7.070313s-4.4375-2.929687-7.070312-2.929687c-2.640625 0-5.207031 1.070312-7.070313 2.929687-1.867187 1.859375-2.929687 4.441406-2.929687 7.070313zm0 0"/><path d="m199.007812 82.59375c-5.523437 0-10 4.476562-10 10v2.890625c-64.449218 5.085937-115.402343 58.871094-115.984374 124.46875h-2.914063c-5.523437 0-10 4.476563-10 10v8c0 27.570313 22.429687 50 50 50h177.796875c27.570312 0 50-22.429687 50-50v-8c0-5.523437-4.476562-10-10-10h-2.914062c-.582032-65.597656-51.539063-119.382813-115.984376-124.46875v-2.890625c0-5.523438-4.476562-10-10-10zm105.984376 137.359375h-65.859376c-5.523437 0-10 4.476563-10 10s4.476563 10 10 10h78.707032c-1.03125 15.613281-14.0625 28-29.933594 28h-177.796875c-15.871094 0-28.902344-12.386719-29.933594-28h78.960938c5.519531 0 10-4.476563 10-10s-4.480469-10-10-10h-66.113281c.609374-57.925781 47.914062-104.867187 105.984374-104.867187 58.070313 0 105.375 46.941406 105.984376 104.867187zm0 0"/><path d="m189.136719 229.949219c0 2.640625 1.0625 5.210937 2.929687 7.070312 1.863282 1.871094 4.441406 2.929688 7.070313 2.929688 2.632812 0 5.210937-1.058594 7.070312-2.929688 1.859375-1.859375 2.929688-4.429687 2.929688-7.070312 0-2.628907-1.070313-5.210938-2.929688-7.070313s-4.4375-2.929687-7.070312-2.929687c-2.640625 0-5.207031 1.070312-7.070313 2.929687-1.867187 1.859375-2.929687 4.441406-2.929687 7.070313zm0 0"/><path d="m199.007812 512c-5.195312 0-10.007812-2.347656-13.203124-6.441406l-153.039063-196.066406.710937-.003907c-21.699218-32.539062-33.476562-71.082031-33.476562-110.480469 0-53.261718 20.769531-103.308593 58.484375-140.917968 37.578125-37.472656 87.464844-58.089844 140.519531-58.089844h.566406c52.757813.148438 102.621094 21.238281 140.402344 59.386719 37.792969 38.164062 58.40625 88.25 58.039063 141.03125-.265625 38.378906-11.769531 76.015625-32.71875 107.910156h.777343l-7.851562 10.074219c-1.457031 1.945312-2.953125 3.863281-4.484375 5.753906l-.25.324219-141.269531 181.074219c-3.199219 4.09375-8.011719 6.445312-13.207032 6.445312zm-125.542968-182.867188 125.542968 160.835938 126.105469-161.640625h-.566406l13.289063-16.316406c26-31.898438 39.890624-70.535157 40.175781-111.734375.332031-47.421875-18.226563-92.460938-52.25-126.816406-34.011719-34.34375-78.847657-53.328126-126.246094-53.460938-47.917969-.125-92.988281 18.425781-126.910156 52.253906-33.921875 33.832032-52.605469 78.847656-52.605469 126.753906 0 41.519532 14.539062 81.984376 40.933594 113.933594l13.371094 16.183594zm0 0"/></svg>