<svg height="512pt" viewBox="-66 0 512 512" width="512pt" xmlns="http://www.w3.org/2000/svg"><path d="m370 88h-69.300781c-10.082031 0-18.785157-7.523438-20.234375-17.503906-.058594-.378906-.136719-.757813-.234375-1.128906-10.863281-40.84375-47.96875-69.367188-90.230469-69.367188s-79.367188 28.523438-90.230469 69.367188c-.101562.371093-.175781.75-.234375 1.128906-1.453125 9.980468-10.152344 17.503906-20.238281 17.503906h-69.296875c-5.523438 0-10 4.476562-10 10v384c0 16.542969 13.457031 30 30 30h320c16.542969 0 30-13.457031 30-30v-75c0-5.523438-4.476562-10-10-10s-10 4.476562-10 10v75c0 5.515625-4.484375 10-10 10h-73.628906l30.59375-220h11.035156c5.523438 0 10-4.476562 10-10v-40c0-5.523438-4.476562-10-10-10h-14.261719l-14.28125-37.699219c-1.472656-3.886719-5.195312-6.457031-9.351562-6.457031h-180.210938c-4.15625 0-7.878906 2.570312-9.351562 6.457031l-14.28125 37.699219h-14.261719c-5.523438 0-10 4.476562-10 10v40c0 5.523438 4.476562 10 10 10h11.035156l10.519532 75.636719-63.554688 63.554687v-303.191406h59.296875c19.730469 0 36.789063-14.566406 39.933594-33.988281 8.707031-31.828125 37.730469-54.011719 70.769531-54.011719s62.0625 22.183594 70.769531 54.007812c3.144531 19.425782 20.199219 33.992188 39.929688 33.992188h46.242187l-42.136718 42.136719c-3.90625 3.90625-3.90625 10.238281 0 14.144531 1.953124 1.953125 4.511718 2.929688 7.070312 2.929688s5.121094-.976563 7.070312-2.929688l41.054688-41.050781v203.769531c0 5.523438 4.476562 10 10 10s10-4.476562 10-10v-229c0-5.523438-4.476562-10-10-10zm-308.191406 404 36.714844-36.714844 5.105468 36.714844zm44.992187-304.15625h166.398438l9.152343 24.15625h-184.703124zm-34.800781 44.15625h236v20h-236zm21.230469 40h193.539062l-30.589843 220h-132.359376l-7.566406-54.441406 97.605469-97.609375c3.90625-3.90625 3.90625-10.238281 0-14.144531-3.902344-3.902344-10.234375-3.902344-14.140625 0l-86.921875 86.921874-8.0625-57.984374 18.125-18.125c3.90625-3.90625 3.90625-10.238282 0-14.144532-3.90625-3.902344-10.238281-3.902344-14.144531 0l-7.433594 7.4375zm-6.222657 100.46875 8.0625 57.984375-61.546874 61.546875h-3.523438c-5.515625 0-10-4.484375-10-10v-42.523438zm0 0"/><path d="m241.074219 77.894531c-6.757813-22.3125-27.761719-37.894531-51.074219-37.894531-23.316406 0-44.320312 15.582031-51.078125 37.894531-.097656.328125-.183594.664063-.246094 1.003907l-.035156.179687c-1.394531 7.199219.464844 14.550781 5.101563 20.175781 4.585937 5.558594 11.347656 8.746094 18.558593 8.746094h55.398438c7.210937 0 13.972656-3.1875 18.558593-8.746094 4.636719-5.625 6.5-12.984375 5.089844-20.238281-.003906-.011719-.023437-.113281-.023437-.125-.066407-.335937-.148438-.667969-.25-.996094zm-20.25 8.636719c-.550781.667969-1.542969 1.46875-3.125 1.46875h-55.394531c-1.585938 0-2.574219-.800781-3.128907-1.46875-.457031-.558594-1.167969-1.714844-.945312-3.367188 4.390625-13.667968 17.375-23.164062 31.769531-23.164062s27.378906 9.496094 31.769531 23.164062c.222657 1.652344-.484375 2.808594-.945312 3.367188zm0 0"/><path d="m235.070312 314.589844c2.640626 0 5.210938-1.058594 7.070313-2.929688 1.871094-1.859375 2.929687-4.441406 2.929687-7.070312s-1.058593-5.210938-2.929687-7.070313c-1.851563-1.859375-4.429687-2.929687-7.070313-2.929687-2.628906 0-5.210937 1.070312-7.070312 2.929687s-2.929688 4.441407-2.929688 7.070313 1.070313 5.210937 2.929688 7.070312c1.859375 1.871094 4.441406 2.929688 7.070312 2.929688zm0 0"/><path d="m370 357c-2.628906 0-5.210938 1.070312-7.070312 2.929688-1.859376 1.859374-2.929688 4.441406-2.929688 7.070312s1.070312 5.210938 2.929688 7.070312c1.859374 1.859376 4.441406 2.929688 7.070312 2.929688s5.210938-1.070312 7.070312-2.929688c1.859376-1.859374 2.929688-4.441406 2.929688-7.070312s-1.070312-5.210938-2.929688-7.070312c-1.859374-1.859376-4.441406-2.929688-7.070312-2.929688zm0 0"/></svg>