<svg height="512pt" viewBox="0 0 512 512" width="512pt" xmlns="http://www.w3.org/2000/svg"><path d="m50 146c2.628906 0 5.210938-1.070312 7.070312-2.929688 1.859376-1.859374 2.929688-4.441406 2.929688-7.070312s-1.070312-5.210938-2.929688-7.070312c-1.859374-1.859376-4.441406-2.929688-7.070312-2.929688s-5.210938 1.070312-7.070312 2.929688c-1.859376 1.859374-2.929688 4.441406-2.929688 7.070312s1.070312 5.210938 2.929688 7.070312c1.859374 1.859376 4.441406 2.929688 7.070312 2.929688zm0 0"/><path d="m181.953125 460c-5.523437 0-10 4.476562-10 10s4.476563 10 10 10h.09375c5.523437 0 9.953125-4.476562 9.953125-10s-4.523438-10-10.046875-10zm0 0"/><path d="m255.632812 359c0-5.523438-4.476562-10-10-10h-61.214843c-5.523438 0-10 4.476562-10 10s4.476562 10 10 10h61.214843c5.523438 0 10-4.476562 10-10zm0 0"/><path d="m348.273438 349h-61.214844c-5.523438 0-10 4.476562-10 10s4.476562 10 10 10h61.214844c5.523437 0 10-4.476562 10-10s-4.476563-10-10-10zm0 0"/><path d="m452.332031 349h-61.214843c-5.523438 0-10 4.476562-10 10s4.476562 10 10 10h61.214843c5.523438 0 10-4.476562 10-10s-4.476562-10-10-10zm0 0"/><path d="m210.863281 312.835938c10.277344 0 19.777344-3.390626 27.445313-9.109376 7.664062 5.71875 17.164062 9.109376 27.445312 9.109376 25.363282 0 46-20.636719 46-46 0-25.363282-20.636718-46-46-46-10.28125 0-19.78125 3.390624-27.445312 9.109374-7.667969-5.71875-17.167969-9.109374-27.445313-9.109374-25.367187 0-46 20.636718-46 46 0 25.363281 20.632813 46 46 46zm80.890625-46c0 14.335937-11.664062 26-26 26-5.292968 0-10.222656-1.59375-14.332031-4.320313 3.46875-6.464844 5.441406-13.84375 5.441406-21.679687 0-7.835938-1.976562-15.214844-5.441406-21.679688 4.109375-2.726562 9.039063-4.320312 14.332031-4.320312 14.335938 0 26 11.664062 26 26zm-80.890625-26c5.292969 0 10.21875 1.59375 14.332031 4.320312-3.46875 6.464844-5.441406 13.84375-5.441406 21.679688 0 7.835937 1.972656 15.214843 5.441406 21.679687-4.113281 2.726563-9.039062 4.320313-14.332031 4.320313-14.339843 0-26-11.664063-26-26 0-14.339844 11.660157-26 26-26zm0 0"/><path d="m257.078125 428h-.132813c-5.519531 0-10 4.476562-10 10s4.480469 10 10 10h.132813c5.523437 0 10-4.476562 10-10s-4.476563-10-10-10zm0 0"/><path d="m482 180.960938h-118v-140.960938c0-22.054688-17.945312-40-40-40h-284c-22.054688 0-40 17.945312-40 40v432c0 22.054688 17.945312 40 40 40h284c22.054688 0 40-17.945312 40-40v-24h118c16.542969 0 30-13.460938 30-30v-207.039062c0-16.542969-13.457031-30-30-30zm10 237.039062c0 5.511719-4.484375 10-10 10h-184.78125c-5.523438 0-10 4.476562-10 10 0 5.519531 4.476562 10 10 10h46.78125v24c0 11.027344-8.972656 20-20 20h-284c-11.027344 0-20-8.972656-20-20v-432c0-11.027344 8.972656-20 20-20h284c11.027344 0 20 8.972656 20 20v140.960938h-20v-116.960938c0-5.523438-4.476562-10-10-10h-264c-5.523438 0-10 4.476562-10 10v32c0 5.523438 4.476562 10 10 10s10-4.476562 10-10v-22h244v106.960938h-149.5625c-16.542969 0-30 13.457031-30 30v207.039062c0 3.503906.609375 6.871094 1.71875 10h-66.15625v-251.875c0-5.523438-4.476562-10-10-10s-10 4.476562-10 10v261.875c0 5.523438 4.476562 10 10 10h104.4375.019531 62.621094c5.523437 0 10-4.480469 10-10 0-5.523438-4.476563-10-10-10h-62.640625c-5.515625 0-10-4.488281-10-10v-207.039062c0-5.515626 4.484375-10 10-10h327.5625c5.515625 0 10 4.484374 10 10zm0 0"/></svg>