<svg height="512pt" viewBox="0 0 512 512" width="512pt" xmlns="http://www.w3.org/2000/svg"><path d="m387.9375 206.929688v-76.929688c0-5.523438-4.476562-10-10-10h-41.9375v-62c-.007812.003906-.015625.003906-.023438.007812 0-2.605468-.992187-5.164062-2.90625-7.078124l-48-48c-1.875-1.875-4.417968-2.929688-7.070312-2.929688h-168c-2.652344 0-5.195312 1.054688-7.070312 2.929688l-48 48c-1.914063 1.910156-2.902344 4.46875-2.90625 7.070312-.007813 0-.015626 0-.023438 0v62h-42c-5.523438 0-10 4.476562-10 10v234.5625c0 2.652344 1.054688 5.195312 2.929688 7.070312l43.4375 43.4375c1.875 1.875 4.417968 2.929688 7.070312 2.929688h162.734375c23.4375 55.191406 78.183594 94 141.828125 94 84.914062 0 154-69.085938 154-154 0-74.675781-53.429688-137.097656-124.0625-151.070312zm-267.9375-86.929688v-52h148v52zm168-52h28v52h-28zm-173.855469-48h159.714844l28 28h-215.714844zm-42.144531 48h28v52h-28zm-14.417969 330-37.582031-37.582031v-220.417969h347.9375v64.328125c-3.289062-.210937-6.597656-.328125-9.9375-.328125-55.640625 0-104.480469 29.660156-131.546875 74h-162.453125c-5.523438 0-10 4.476562-10 10s4.476562 10 10 10h152.171875c-5.847656 13.761719-9.742187 28.546875-11.34375 44h-54.828125c-5.523438 0-10 4.476562-10 10s4.476562 10 10 10h54.050781c.320313 12.417969 2.125 24.472656 5.230469 36zm300.417969 94c-73.886719 0-134-60.113281-134-134s60.113281-134 134-134 134 60.113281 134 134-60.113281 134-134 134zm0 0"/><path d="m358 244c-62.859375 0-114 51.140625-114 114s51.140625 114 114 114 114-51.140625 114-114-51.140625-114-114-114zm0 208c-51.832031 0-94-42.167969-94-94s42.167969-94 94-94 94 42.167969 94 94-42.167969 94-94 94zm0 0"/><path d="m429.921875 351.011719c-1.863281-1.863281-4.441406-2.933594-7.070313-2.933594-2.640624 0-5.210937 1.070313-7.070312 2.933594-1.859375 1.859375-2.929688 4.4375-2.929688 7.066406 0 2.632813 1.070313 5.210937 2.929688 7.070313 1.859375 1.859374 4.4375 2.929687 7.070312 2.929687 2.628907 0 5.207032-1.066406 7.070313-2.929687 1.855469-1.859376 2.929687-4.4375 2.929687-7.070313 0-2.628906-1.074218-5.207031-2.929687-7.066406zm0 0"/><path d="m293.148438 347.921875c-2.628907 0-5.210938 1.058594-7.070313 2.929687-1.859375 1.859376-2.929687 4.4375-2.929687 7.070313 0 2.628906 1.070312 5.207031 2.929687 7.066406s4.441406 2.933594 7.070313 2.933594c2.628906 0 5.210937-1.070313 7.070312-2.933594 1.859375-1.859375 2.929688-4.4375 2.929688-7.066406 0-2.632813-1.070313-5.210937-2.929688-7.070313-1.859375-1.871093-4.441406-2.929687-7.070312-2.929687zm0 0"/><path d="m358.078125 303.148438c2.632813 0 5.210937-1.070313 7.070313-2.929688 1.859374-1.859375 2.929687-4.4375 2.929687-7.070312 0-2.628907-1.066406-5.210938-2.929687-7.070313-1.859376-1.859375-4.4375-2.929687-7.070313-2.929687-2.628906 0-5.207031 1.070312-7.066406 2.929687-1.863281 1.859375-2.933594 4.441406-2.933594 7.070313 0 2.632812 1.070313 5.210937 2.933594 7.070312 1.859375 1.859375 4.4375 2.929688 7.066406 2.929688zm0 0"/><path d="m357.921875 412.851562c-2.632813 0-5.210937 1.058594-7.070313 2.917969-1.859374 1.871094-2.929687 4.441407-2.929687 7.082031 0 2.628907 1.066406 5.207032 2.929687 7.070313 1.859376 1.859375 4.4375 2.929687 7.070313 2.929687 2.628906 0 5.207031-1.070312 7.066406-2.929687 1.859375-1.863281 2.933594-4.441406 2.933594-7.070313 0-2.632812-1.070313-5.210937-2.933594-7.082031-1.859375-1.859375-4.4375-2.917969-7.066406-2.917969zm0 0"/><path d="m393.261719 308.597656-35.261719 35.257813-18.742188-18.742188c-3.90625-3.902343-10.234374-3.902343-14.144531 0-3.902343 3.90625-3.902343 10.238281 0 14.144531l25.816407 25.8125c1.953124 1.953126 4.511718 2.929688 7.070312 2.929688s5.117188-.976562 7.070312-2.929688l42.332032-42.332031c3.90625-3.90625 3.90625-10.238281 0-14.144531-3.90625-3.902344-10.234375-3.902344-14.140625.003906zm0 0"/><path d="m110 342c-2.628906 0-5.210938 1.070312-7.070312 2.929688-1.859376 1.859374-2.929688 4.441406-2.929688 7.070312s1.070312 5.210938 2.929688 7.070312c1.859374 1.859376 4.441406 2.929688 7.070312 2.929688s5.210938-1.070312 7.070312-2.929688c1.859376-1.859374 2.929688-4.441406 2.929688-7.070312s-1.070312-5.210938-2.929688-7.070312c-1.859374-1.859376-4.441406-2.929688-7.070312-2.929688zm0 0"/></svg>