<svg height="512pt" viewBox="0 0 512 512" width="512pt" xmlns="http://www.w3.org/2000/svg"><path d="m512 256c0-61.097656-21.875-120.253906-61.59375-166.566406-39.289062-45.816406-93.550781-76.378906-152.792969-86.066406-5.449219-.886719-10.589843 2.804687-11.484375 8.253906-.890625 5.453125 2.804688 10.59375 8.257813 11.484375 114.503906 18.722656 197.613281 116.667969 197.613281 232.894531v34.542969c-5.359375-2.894531-11.492188-4.542969-18-4.542969h-33.015625c9.167969-9.902344 16.152344-21.761719 20.394531-34.945312 7.46875-23.207032 5.660156-48.046876-5.089844-69.9375-16.355468-33.316407-50.574218-53.527344-87.085937-52.332032-1.933594-12.621094-7.34375-23.71875-15.988281-32.363281-13.648438-13.648437-33.398438-19.269531-55.609375-15.808594-4.300781.667969-7.675781 4.042969-8.347657 8.34375-.460937 2.976563-.75 5.902344-.890624 8.777344-1.5625 0-3.132813.058594-4.699219.191406-17.207031 1.460938-32.613281 11.078125-41.566407 25.582031-4.527343-6.8125-10.074218-12.960937-16.480468-18.183593-14.496094-11.816407-32.804688-18.324219-51.539063-18.324219-45.035156 0-81.675781 36.640625-81.675781 81.671875 0 7.707031 1.050781 15.230469 3.128906 22.484375-28.257812 6.351562-49.429687 31.648438-49.429687 61.792969 0 11.777343 3.328125 23.207031 9.34375 33.050781h-17.449219c-6.507812 0-12.640625 1.648438-18 4.542969v-34.542969c0-116.222656 83.109375-214.171875 197.613281-232.894531 5.449219-.894531 9.144531-6.035157 8.253907-11.484375-.890626-5.449219-6.035157-9.140625-11.480469-8.253906-59.242188 9.6875-113.503907 40.25-152.792969 86.0625-39.71875 46.316406-61.59375 105.472656-61.59375 166.570312v68c0 3.765625.558594 7.402344 1.585938 10.839844-.003907.003906-.007813.007812-.007813.007812l.101563.320313c.027343.09375.054687.1875.085937.277343l42.535156 134.644532c7.917969 25.066406 30.902344 41.910156 57.191407 41.910156h309.019531c26.285156 0 49.269531-16.84375 57.1875-41.910156l42.535156-134.644532c.03125-.089843.058594-.183593.089844-.277343l.101562-.320313c-.003906 0-.007812 0-.011719-.003906 1.027344-3.4375 1.585938-7.074219 1.585938-10.84375zm-203.699219-156.34375c12.5-.382812 23.246094 3.378906 30.773438 10.90625 7.523437 7.523438 11.289062 18.269531 10.90625 30.769531-12.507813.390625-23.246094-3.378906-30.773438-10.90625-7.523437-7.527343-11.289062-18.269531-10.90625-30.769531zm-242.195312 153.292969c0-23.886719 19.429687-43.324219 43.316406-43.332031 3.433594 0 6.628906-1.765626 8.457031-4.671876 1.832032-2.90625 2.039063-6.550781.554688-9.648437-4-8.34375-6.027344-17.300781-6.027344-26.625 0-34.007813 27.667969-61.671875 61.671875-61.671875 28.765625 0 54.097656 20.367188 60.234375 48.433594 1.105469 5.050781 5.878906 8.429687 11 7.789062 5.128906-.636718 8.925781-5.074218 8.765625-10.238281-.171875-5.347656.863281-10.492187 3.070313-15.292969 5.144531-11.195312 15.953124-18.796875 28.210937-19.839844 1.617187-.136718 3.230469-.152343 4.835937-.066406 2.53125 10.3125 7.523438 19.4375 14.867188 26.785156 11.023438 11.019532 26.015625 16.800782 43.078125 16.800782 4.070313 0 8.257813-.328125 12.535156-.996094 4.300781-.667969 7.675781-4.042969 8.34375-8.34375.171875-1.089844.300781-2.171875.425781-3.25 28.859376-1.105469 55.964844 14.824219 68.890626 41.148438 17.167968 34.960937 4.402343 76.660156-28.996094 96.070312h-109.1875c.949218-1.554688 1.476562-3.351562 1.476562-5.207031 0-2.652344-1.054687-5.195313-2.929687-7.070313l-73.4375-73.4375c-1.875-1.875-4.417969-2.929687-7.070313-2.929687s-5.195312 1.054687-7.070312 2.929687c-23.535156 23.535156-24.117188 61.453125-1.769532 85.714844h-127.9375c-9.640624-8.195312-15.308593-20.332031-15.308593-33.050781zm152.9375-30.601563 57.589843 57.59375c-16.121093 9.761719-37.460937 7.691406-51.371093-6.222656-13.910157-13.910156-15.984375-35.246094-6.21875-51.371094zm-181.042969 83.652344h436c9.925781 0 18 8.074219 18 18 0 1.847656-.28125 3.628906-.800781 5.304688l-.027344.089843c-2.296875 7.296875-9.125 12.605469-17.171875 12.605469h-436c-8.046875 0-14.875-5.308594-17.171875-12.605469l-.027344-.089843c-.519531-1.675782-.800781-3.457032-.800781-5.304688 0-9.925781 8.074219-18 18-18zm410.628906 158.066406c-5.277344 16.707032-20.597656 27.933594-38.121094 27.933594h-309.015624c-17.523438 0-32.84375-11.226562-38.121094-27.933594l-17.078125-54.066406h129.375c5.523437 0 10-4.476562 10-10s-4.476563-10-10-10h-135.695313l-9.058594-28.671875c2.300782.433594 4.664063.671875 7.085938.671875h436c2.421875 0 4.785156-.238281 7.085938-.671875zm0 0"/><path d="m170 141.359375c-16.542969 0-30 13.457031-30 30 0 16.539063 13.457031 30 30 30s30-13.460937 30-30c0-16.542969-13.457031-30-30-30zm0 40c-5.515625 0-10-4.488281-10-10 0-5.515625 4.484375-10 10-10s10 4.484375 10 10c0 5.511719-4.484375 10-10 10zm0 0"/><path d="m338.574219 265.675781c5.105469.925781 10.074219 1.382813 14.867187 1.382813 16.703125 0 31.257813-5.558594 41.921875-16.21875 13.71875-13.722656 18.988281-33.890625 14.835938-56.789063-.746094-4.101562-3.953125-7.3125-8.054688-8.054687-22.898437-4.152344-43.066406 1.117187-56.789062 14.839844-13.71875 13.71875-18.988281 33.886718-14.835938 56.785156.746094 4.101562 3.953125 7.3125 8.054688 8.054687zm20.925781-50.699219c7.601562-7.601562 18.765625-11.125 31.925781-10.207031.921875 13.160157-2.601562 24.324219-10.207031 31.929688-7.601562 7.601562-18.761719 11.125-31.925781 10.203125-.921875-13.160156 2.601562-24.324219 10.207031-31.925782zm0 0"/><path d="m291.097656 204.96875c1.953125 1.953125 4.511719 2.929688 7.070313 2.929688 2.558593 0 5.117187-.976563 7.070312-2.929688 3.90625-3.90625 3.90625-10.238281 0-14.144531l-6.539062-6.539063c-3.90625-3.902344-10.238281-3.902344-14.144531 0-3.902344 3.90625-3.902344 10.238282 0 14.144532zm0 0"/><path d="m127.929688 236.929688-9.5 9.5c-3.90625 3.90625-3.90625 10.234374 0 14.140624 1.953124 1.953126 4.511718 2.929688 7.070312 2.929688s5.117188-.976562 7.070312-2.929688l9.5-9.5c3.90625-3.902343 3.90625-10.234374 0-14.140624s-10.234374-3.90625-14.140624 0zm0 0"/><path d="m215.671875 390c-2.640625 0-5.210937 1.070312-7.082031 2.929688-1.859375 1.859374-2.917969 4.441406-2.917969 7.070312s1.058594 5.210938 2.917969 7.070312c1.871094 1.859376 4.441406 2.929688 7.082031 2.929688 2.628906 0 5.207031-1.070312 7.066406-2.929688 1.863281-1.859374 2.933594-4.441406 2.933594-7.070312s-1.070313-5.210938-2.933594-7.070312c-1.859375-1.859376-4.4375-2.929688-7.066406-2.929688zm0 0"/><path d="m256 20c2.628906 0 5.210938-1.070312 7.070312-2.929688 1.859376-1.859374 2.929688-4.441406 2.929688-7.070312s-1.070312-5.210938-2.929688-7.070312c-1.859374-1.859376-4.441406-2.929688-7.070312-2.929688s-5.210938 1.070312-7.070312 2.929688c-1.859376 1.859374-2.929688 4.441406-2.929688 7.070312s1.070312 5.210938 2.929688 7.070312c1.859374 1.859376 4.441406 2.929688 7.070312 2.929688zm0 0"/></svg>