<svg height="512pt" viewBox="0 0 512 512" width="512pt" xmlns="http://www.w3.org/2000/svg"><path d="m502 120h-42v-62c0-2.761719-1.117188-5.261719-2.929688-7.070312l-48-48c-1.875-1.875-4.417968-2.929688-7.070312-2.929688h-168c-2.652344 0-5.195312 1.054688-7.070312 2.929688l-48 48c-1.8125 1.808593-2.929688 4.308593-2.929688 7.070312v62h-41.9375c-5.523438 0-10 4.476562-10 10v125.28125c-4.839844 6.652344-11.117188 12.214844-18.46875 16.214844l-10.941406 5.957031c-3.507813-5.777344-9.84375-9.65625-17.085938-9.65625h-57.566406c-11.027344 0-20 8.96875-20 20v145.871094c0 11.027343 8.972656 20 20 20h57.566406c8.929688 0 16.511719-5.886719 19.070313-13.980469l3.664062 2.652344c7.316407 5.300781 15.324219 9.292968 23.761719 11.929687v4.292969c0 2.652344 1.054688 5.195312 2.929688 7.070312l43.4375 43.4375c1.875 1.875 4.417968 2.929688 7.070312 2.929688h281.058594c2.652344 0 5.199218-1.054688 7.074218-2.929688l43.4375-43.4375c1.875-1.875 2.929688-4.417968 2.929688-7.070312v-328.5625c0-5.523438-4.476562-10-10-10zm-424.433594 313.667969h-57.566406v-145.871094h57.566406zm160.574219-413.667969h159.71875l28 28h-67.859375c-5.523438 0-10 4.476562-10 10s4.476562 10 10 10h34v52h-148v-52h34c5.523438 0 10-4.476562 10-10s-4.476562-10-10-10h-67.859375zm201.859375 48v52h-28v-52zm-244 0h28v52h-28zm-83.964844 358.144531-14.46875-10.480469v-117.023437l17.59375-9.578125c16.300782-8.875 28.753906-23.375 35.066406-40.828125l14.230469-39.328125c16.726563 5.128906 26.910157 21.945312 23.691407 39.152344l-9.113282 48.757812c0 .019532-.003906.035156-.003906.050782-.242188 1.207031-.402344 2.441406-.496094 3.695312l-4.277344 14.460938c-5.433593 18.367187-22.605468 31.191406-41.757812 31.191406-5.523438 0-10 4.480468-10 10 0 5.523437 4.476562 10 10 10 17.707031 0 34.246094-7.519532 46.015625-19.84375.472656 7.179687 3.414063 13.691406 7.992187 18.691406-5.007812 5.472656-8.070312 12.753906-8.070312 20.734375 0 8.222656 3.253906 15.695313 8.53125 21.21875-4.753906 5.414063-7.644531 12.5-7.644531 20.25 0 3.773437.6875 7.390625 1.9375 10.734375h-32.640625c-13.226563 0-25.875-4.101562-36.585938-11.855469zm379.964844 28.273438-37.582031 37.582031h-272.773438l-34.019531-34.019531c.332031.003906.664062.019531.996094.019531h61.210937c.023438 0 .050781-.003906.074219-.003906.050781 0 .101562.003906.148438.003906h43.160156c16.945312 0 30.734375-13.785156 30.734375-30.734375 0-5.648437-1.539063-10.9375-4.207031-15.488281 8.609374-5.453125 14.339843-15.054688 14.339843-25.976563 0-4.546875-1-8.863281-2.777343-12.75 11.566406-4.414062 19.808593-15.621093 19.808593-28.71875 0-13.101562-8.242187-24.308593-19.808593-28.722656 1.777343-3.886719 2.777343-8.199219 2.777343-12.746094 0-16.949219-13.785156-30.734375-30.734375-30.734375h-54.175781c-1.792969 0-3.550781.164063-5.261719.460938l3.898438-20.855469c5.097656-27.269531-11.074219-53.917969-37.617188-61.988281l-9-2.734375c-5.089844-1.550781-10.5 1.160156-12.3125 6.164062l-4.816406 13.316407v-66.492188h347.9375zm-282.828125-120.820313h71.210937c5.917969 0 10.730469 4.8125 10.730469 10.730469s-4.8125 10.734375-10.730469 10.734375h-71.210937c-5.917969 0-10.734375-4.816406-10.734375-10.734375s4.816406-10.730469 10.734375-10.730469zm-10.734375-30.738281c0-5.917969 4.816406-10.730469 10.734375-10.730469h54.175781c5.917969 0 10.734375 4.8125 10.734375 10.734375 0 5.917969-4.816406 10.730469-10.734375 10.730469h-54.175781c-5.917969.003906-10.734375-4.8125-10.734375-10.734375zm10.734375 72.203125h54.175781c5.917969 0 10.734375 4.816406 10.734375 10.734375s-4.816406 10.734375-10.734375 10.734375h-54.175781c-5.917969 0-10.734375-4.816406-10.734375-10.734375s4.816406-10.734375 10.734375-10.734375zm54.777344 52.203125c0 5.917969-4.816407 10.734375-10.734375 10.734375h-43.160156c-5.917969 0-10.734376-4.816406-10.734376-10.734375s4.816407-10.734375 10.734376-10.734375h43.160156c5.917968 0 10.734375 4.816406 10.734375 10.734375zm0 0"/><path d="m344.25 387.332031c5.523438 0 10-4.476562 10-10v-101.664062h7.625c15.644531 0 28.375-12.730469 28.375-28.378907v-56.621093c0-5.523438-4.476562-10-10-10s-10 4.476562-10 10v56.621093c0 4.621094-3.757812 8.378907-8.375 8.378907h-7.625v-65c0-5.523438-4.476562-10-10-10s-10 4.476562-10 10v65h-7.625c-4.617188 0-8.375-3.757813-8.375-8.378907v-56.621093c0-5.523438-4.476562-10-10-10s-10 4.476562-10 10v56.621093c0 15.648438 12.726562 28.378907 28.375 28.378907h7.625v101.664062c0 5.523438 4.476562 10 10 10zm0 0"/><path d="m420.457031 181.296875c-3.066406-1.144531-6.503906-.710937-9.191406 1.15625-2.691406 1.871094-4.292969 4.9375-4.292969 8.214844v186.664062c0 5.523438 4.476563 10 10 10 5.523438 0 10-4.476562 10-10v-70.519531h16.953125c15.847657 0 28.738281-12.894531 28.738281-28.738281v-21.652344c0-33.320313-20.980468-63.511719-52.207031-75.125zm32.207031 96.777344c0 4.816406-3.917968 8.734375-8.738281 8.734375h-16.953125v-79.671875c15.789063 11.097656 25.691406 29.453125 25.691406 49.28125zm0 0"/><path d="m318 68c2.628906 0 5.210938-1.070312 7.070312-2.929688 1.859376-1.859374 2.929688-4.441406 2.929688-7.070312s-1.070312-5.210938-2.929688-7.070312c-1.859374-1.859376-4.441406-2.929688-7.070312-2.929688s-5.210938 1.070312-7.070312 2.929688c-1.859376 1.859374-2.929688 4.441406-2.929688 7.070312s1.070312 5.210938 2.929688 7.070312c1.859374 1.859376 4.441406 2.929688 7.070312 2.929688zm0 0"/></svg>