<svg height="511pt" viewBox="0 1 511 511.9999" width="511pt" xmlns="http://www.w3.org/2000/svg"><path d="m504.839844 206.40625c-4.648438-1.925781-9.957032-.871094-13.519532 2.6875l-8.820312 8.824219-7.074219-7.070313c-4.585937-4.585937-11.019531-6.203125-16.925781-4.886718v-73.960938c0-16.542969-13.460938-30-30-30h-56.285156v-52c0-27.570312-22.429688-50-50-50h-184c-27.570313 0-50 22.429688-50 50v52h-57.714844c-16.542969 0-30 13.457031-30 30v272c0 16.539062 13.457031 30 30 30h192c5.523438 0 10-4.480469 10-10 0-5.523438-4.476562-10-10-10h-187.859375l136-136h121.855469v221.589844c0 5.03125 3.007812 9.53125 7.660156 11.460937 4.652344 1.925781 9.957031.871094 13.515625-2.691406h.003906l8.820313-8.824219 7.074218 7.070313c7.128907 7.128906 18.726563 7.128906 25.855469 0l7.070313-7.070313 7.074218 7.070313c7.128907 7.128906 18.726563 7.128906 25.855469 0l7.070313-7.070313 7.070312 7.070313c7.132813 7.128906 18.730469 7.128906 25.859375 0l7.070313-7.070313 7.070312 7.070313c7.132813 7.128906 18.730469 7.128906 25.859375 0l7.070313-7.070313 8.824218 8.824219c2.378907 2.378906 5.539063 3.640625 8.757813 3.640625 1.601563 0 3.21875-.3125 4.761719-.949219 4.652344-1.929687 7.65625-6.429687 7.65625-11.460937v-281.722656c0-5.035157-3.003906-9.53125-7.65625-11.460938zm-66.339844-54.328125v61.84375l-3.074219-3.074219c-7.128906-7.128906-18.726562-7.128906-25.855469 0l-7.070312 7.074219-4.847656-4.847656zm-330.285156-102.078125c0-16.542969 13.457031-30 30-30h184c16.542968 0 30 13.457031 30 30v52h-20v-52c0-5.523438-4.476563-10-10-10h-184c-5.523438 0-10 4.476562-10 10v52h-20zm204 52h-164v-42h164zm-291.714844 297.855469v-251.472657l83.578125 125.167969c1.851563 2.777344 4.972656 4.449219 8.3125 4.449219h29.964844zm97.242188-141.855469-90.453126-135.460938c1.011719-.34375 2.085938-.539062 3.210938-.539062h398c1.871094 0 3.617188.527344 5.117188 1.425781l-55.304688 82.578125c-3.203125.75-6.25 2.351563-8.742188 4.84375l-7.074218 7.070313-7.070313-7.070313c-7.128906-7.128906-18.726562-7.128906-25.855469 0l-7.074218 7.070313-8.824219-8.824219c-3.558594-3.558594-8.867187-4.613281-13.519531-2.6875-4.648438 1.925781-7.65625 6.425781-7.65625 11.460938v40.132812zm374.753906 223.800781c-7.085938-4.632812-16.707032-3.839843-22.925782 2.378907l-7.070312 7.074218-7.074219-7.074218c-3.5625-3.5625-8.246093-5.34375-12.925781-5.34375-4.683594 0-9.367188 1.78125-12.929688 5.34375l-7.070312 7.074218-7.074219-7.074218c-3.453125-3.453126-8.042969-5.355469-12.925781-5.355469-4.886719 0-9.476562 1.902343-12.929688 5.355469l-7.070312 7.074218-7.074219-7.074218c-7.128906-7.128907-18.726562-7.128907-25.855469 0l-7.070312 7.074218-7.074219-7.074218c-6.21875-6.21875-15.839843-7.011719-22.925781-2.378907v-246.144531c7.085938 4.628906 16.707031 3.835938 22.925781-2.382812l7.074219-7.070313 7.070312 7.070313c7.128907 7.128906 18.726563 7.128906 25.855469 0l7.074219-7.070313 7.070312 7.070313c3.453126 3.453124 8.042969 5.355468 12.929688 5.355468 4.882812 0 9.472656-1.902344 12.925781-5.355468l7.074219-7.070313 7.070312 7.070313c7.128907 7.128906 18.726563 7.128906 25.855469 0l7.074219-7.070313 7.070312 7.070313c6.21875 6.21875 15.839844 7.011718 22.925782 2.382812zm0 0"/><path d="m440.441406 363.398438c6.617188 0 12 4.46875 12 9.964843 0 5.523438 4.480469 10 10 10 5.523438 0 10-4.476562 10-10 0-13.25-9.238281-24.515625-22-28.457031v-.578125c0-5.519531-4.476562-10-10-10-5.519531 0-10 4.480469-10 10v.578125c-12.757812 3.941406-22 15.207031-22 28.457031 0 16.523438 14.355469 29.96875 32 29.96875 6.617188 0 12 4.46875 12 9.964844s-5.382812 9.964844-12 9.964844c-6.613281 0-12-4.46875-12-9.964844 0-5.523437-4.476562-10-10-10-5.519531 0-10 4.476563-10 10 0 13.257813 9.246094 24.523437 22.011719 28.460937.101563 5.433594 4.53125 9.808594 9.988281 9.808594 5.460938 0 9.890625-4.375 9.992188-9.808594 12.765625-3.9375 22.007812-15.203124 22.007812-28.460937 0-16.523437-14.351562-29.964844-32-29.964844-6.613281 0-12-4.472656-12-9.96875 0-5.496093 5.386719-9.964843 12-9.964843zm0 0"/><path d="m440.5 284c0-5.523438-4.480469-10-10-10h-79c-5.523438 0-10 4.476562-10 10 0 5.519531 4.476562 10 10 10h79c5.519531 0 10-4.480469 10-10zm0 0"/><path d="m378.832031 322h-27.332031c-5.523438 0-10 4.476562-10 10 0 5.519531 4.476562 10 10 10h27.332031c5.523438 0 10-4.480469 10-10 0-5.523438-4.476562-10-10-10zm0 0"/><path d="m378.832031 370h-27.332031c-5.523438 0-10 4.476562-10 10 0 5.519531 4.476562 10 10 10h27.332031c5.523438 0 10-4.480469 10-10 0-5.523438-4.476562-10-10-10zm0 0"/><path d="m262.5 414c-2.632812 0-5.210938 1.066406-7.070312 2.929688-1.859376 1.859374-2.929688 4.4375-2.929688 7.070312 0 2.628906 1.070312 5.207031 2.929688 7.066406 1.859374 1.859375 4.4375 2.933594 7.070312 2.933594 2.628906 0 5.207031-1.070312 7.070312-2.933594 1.859376-1.859375 2.929688-4.4375 2.929688-7.066406 0-2.632812-1.070312-5.210938-2.929688-7.070312-1.863281-1.859376-4.441406-2.929688-7.070312-2.929688zm0 0"/></svg>