<svg height="512pt" viewBox="0 -20 512 512" width="512pt" xmlns="http://www.w3.org/2000/svg"><path d="m181.871094 222c0-5.523438-4.476563-10-10-10h-105.742188c-5.523437 0-10 4.476562-10 10s4.476563 10 10 10h105.742188c5.523437 0 10-4.476562 10-10zm0 0"/><path d="m100.707031 252c-5.523437 0-10 4.476562-10 10s4.476563 10 10 10h36.585938c5.523437 0 10-4.476562 10-10s-4.476563-10-10-10zm0 0"/><path d="m181.871094 82c0-5.523438-4.476563-10-10-10h-105.742188c-5.523437 0-10 4.476562-10 10s4.476563 10 10 10h105.742188c5.523437 0 10-4.476562 10-10zm0 0"/><path d="m100.707031 112c-5.523437 0-10 4.476562-10 10s4.476563 10 10 10h36.585938c5.523437 0 10-4.476562 10-10s-4.476563-10-10-10zm0 0"/><path d="m181.871094 356.042969c0-5.519531-4.476563-10-10-10h-105.742188c-5.523437 0-10 4.480469-10 10 0 5.523437 4.476563 10 10 10h105.742188c5.523437 0 10-4.476563 10-10zm0 0"/><path d="m100.707031 386.042969c-5.523437 0-10 4.480469-10 10 0 5.523437 4.476563 10 10 10h36.585938c5.523437 0 10-4.476563 10-10 0-5.519531-4.476563-10-10-10zm0 0"/><path d="m443.371094 72h-105.742188c-5.523437 0-10 4.476562-10 10s4.476563 10 10 10h105.742188c5.523437 0 10-4.476562 10-10s-4.476563-10-10-10zm0 0"/><path d="m408.792969 132c5.523437 0 10-4.476562 10-10s-4.476563-10-10-10h-36.585938c-5.523437 0-10 4.476562-10 10s4.476563 10 10 10zm0 0"/><path d="m453.371094 356.042969c0-5.519531-4.476563-10-10-10h-105.742188c-5.523437 0-10 4.480469-10 10 0 5.523437 4.476563 10 10 10h105.742188c5.523437 0 10-4.476563 10-10zm0 0"/><path d="m372.207031 386.042969c-5.523437 0-10 4.480469-10 10 0 5.523437 4.476563 10 10 10h36.585938c5.523437 0 10-4.476563 10-10 0-5.519531-4.476563-10-10-10zm0 0"/><path d="m482 0h-186c-16.542969 0-30 13.457031-30 30v68.570312c-3.242188-.609374-6.582031-.945312-10-.945312s-6.757812.335938-10 .945312v-68.570312c0-16.542969-13.457031-30-30-30h-186c-16.542969 0-30 13.457031-30 30v182c0 5.523438 4.476562 10 10 10s10-4.476562 10-10v-182c0-5.515625 4.484375-10 10-10h186c5.515625 0 10 4.484375 10 10v76.75c-14.460938 9.699219-24 26.195312-24 44.875 0 5.523438 4.476562 10 10 10s10-4.476562 10-10c0-5.773438 1.449219-11.210938 4-15.976562v77.476562c-14.460938 9.699219-24 26.195312-24 44.875 0 5.523438 4.476562 10 10 10s10-4.476562 10-10c0-5.773438 1.449219-11.210938 4-15.976562v77.476562c-14.460938 9.699219-24 26.195312-24 44.875 0 5.523438 4.476562 10 10 10s10-4.476562 10-10c0-5.773438 1.449219-11.210938 4-15.976562v93.601562c0 5.515625-4.484375 10-10 10h-186c-5.515625 0-10-4.484375-10-10v-150c0-5.523438-4.476562-10-10-10s-10 4.476562-10 10v150c0 16.542969 13.457031 30 30 30h186c16.542969 0 30-13.457031 30-30v-110.121094c3.164062-.976562 6.519531-1.503906 10-1.503906s6.835938.527344 10 1.503906v110.121094c0 16.542969 13.457031 30 30 30h186c16.542969 0 30-13.457031 30-30v-242.5c0-5.523438-4.476562-10-10-10s-10 4.476562-10 10v242.5c0 5.515625-4.484375 10-10 10h-186c-5.515625 0-10-4.484375-10-10v-93.605469c2.550781 4.765625 4 10.207031 4 15.980469 0 5.519531 4.476562 10 10 10s10-4.480469 10-10c0-18.683594-9.539062-35.175781-24-44.875v-77.480469c2.550781 4.765625 4 10.207031 4 15.980469 0 5.519531 4.476562 10 10 10s10-4.480469 10-10c0-18.683594-9.539062-35.175781-24-44.875v-77.480469c2.550781 4.765625 4 10.207031 4 15.980469 0 5.519531 4.476562 10 10 10s10-4.480469 10-10c0-18.683594-9.539062-35.175781-24-44.875v-76.75c0-5.515625 4.484375-10 10-10h186c5.515625 0 10 4.484375 10 10v89.5c0 5.523438 4.476562 10 10 10s10-4.476562 10-10v-89.5c0-16.542969-13.457031-30-30-30zm-226 310.375c-3.417969 0-6.757812.332031-10 .941406v-85.8125c3.164062-.976562 6.519531-1.503906 10-1.503906s6.835938.527344 10 1.503906v85.8125c-3.242188-.609375-6.582031-.941406-10-.941406zm0-106.375c-3.417969 0-6.757812.332031-10 .941406v-85.8125c3.164062-.976562 6.519531-1.503906 10-1.503906s6.835938.527344 10 1.503906v85.8125c-3.242188-.609375-6.582031-.941406-10-.941406zm0 0"/><path d="m350.714844 192.429688-10.183594 31.570312h-1.03125c-5.523438 0-10 4.476562-10 10 0 5.476562 4.40625 9.921875 9.867188 9.992188l11.898437 70.046874c.816406 4.808594 4.980469 8.324219 9.859375 8.324219h58.75c4.875 0 9.042969-3.519531 9.859375-8.324219l11.898437-70.046874c5.460938-.070313 9.867188-4.515626 9.867188-9.992188 0-5.523438-4.476562-10-10-10h-.945312l-9.773438-31.464844c-1.296875-4.183594-5.167969-7.035156-9.546875-7.035156h-13.421875l2.167969-16h13.253906c5.523437 0 10-4.476562 10-10s-4.476563-10-10-10h-21.992187c-5.003907 0-9.234376 3.699219-9.90625 8.65625l-3.707032 27.34375h-27.394531c-4.339844 0-8.1875 2.800781-9.519531 6.929688zm60.714844 109.933593h-41.859376l-9.917968-58.363281h20.046875l-2.328125 17.15625c-.738282 5.472656 3.09375 10.511719 8.566406 11.253906.457031.0625.910156.089844 1.359375.089844 4.925781 0 9.214844-3.640625 9.894531-8.65625l2.691406-19.84375h21.460938zm2.4375-96.863281 5.746093 18.5h-17.019531l2.507812-18.5zm-46.351563 0h17.402344l-2.507813 18.5h-20.863281zm0 0"/><path d="m502 149.5c-2.628906 0-5.210938 1.070312-7.070312 2.929688-1.859376 1.859374-2.929688 4.441406-2.929688 7.070312s1.070312 5.210938 2.929688 7.070312c1.859374 1.859376 4.441406 2.929688 7.070312 2.929688s5.210938-1.070312 7.070312-2.929688c1.859376-1.859374 2.929688-4.441406 2.929688-7.070312s-1.070312-5.210938-2.929688-7.070312c-1.859374-1.859376-4.441406-2.929688-7.070312-2.929688zm0 0"/><path d="m10 262c2.628906 0 5.210938-1.070312 7.070312-2.929688 1.859376-1.859374 2.929688-4.441406 2.929688-7.070312s-1.070312-5.210938-2.929688-7.070312c-1.859374-1.859376-4.441406-2.929688-7.070312-2.929688s-5.210938 1.070312-7.070312 2.929688c-1.859376 1.859374-2.929688 4.441406-2.929688 7.070312s1.070312 5.210938 2.929688 7.070312c1.859374 1.859376 4.441406 2.929688 7.070312 2.929688zm0 0"/></svg>