<svg height="512pt" viewBox="-84 0 512 512" width="512pt" xmlns="http://www.w3.org/2000/svg"><path d="m224 0c-17.644531 0-32 14.355469-32 32v470c0 5.523438 4.476562 10 10 10h44c5.523438 0 10-4.476562 10-10v-470c0-17.644531-14.355469-32-32-32zm0 20c6.617188 0 12 5.382812 12 12v314h-24v-314c0-6.617188 5.382812-12 12-12zm-12 472v-126h24v126zm0 0"/><path d="m312 0c-17.644531 0-32 14.355469-32 32v470c0 5.523438 4.476562 10 10 10h44c5.523438 0 10-4.476562 10-10v-226c0-5.523438-4.476562-10-10-10s-10 4.476562-10 10v70h-24v-314c0-6.617188 5.382812-12 12-12s12 5.382812 12 12v164c0 5.523438 4.476562 10 10 10s10-4.476562 10-10v-164c0-17.644531-14.355469-32-32-32zm12 366v126h-24v-126zm0 0"/><path d="m82 0c-45.214844 0-82 43.066406-82 96s36.785156 96 82 96c3.742188 0 7.421875-.300781 11.03125-.871094v118.507813h-20v-47.636719c0-5.523438-4.476562-10-10-10s-10 4.476562-10 10v54.113281c-3.050781 3.25-5.066406 7.507813-5.496094 12.304688l-11.769531 131.914062c-1.179687 13.230469 3.285156 26.441407 12.253906 36.242188 8.964844 9.804687 21.726563 15.425781 35.011719 15.425781s26.046875-5.621094 35.015625-15.425781c8.964844-9.800781 13.429687-23.011719 12.25-36.242188l-11.769531-131.914062c-.425782-4.796875-2.441406-9.054688-5.496094-12.304688v-131.257812c29.875-14.351563 50.96875-48.773438 50.96875-88.855469 0-52.933594-36.785156-96-82-96zm21.289062 483.078125c-5.265624 5.753906-12.460937 8.921875-20.257812 8.921875s-14.992188-3.167969-20.253906-8.921875c-5.265625-5.753906-7.78125-13.203125-7.089844-20.96875l11.769531-131.914063c.027344-.316406.292969-.558593.613281-.558593h29.925782c.320312 0 .582031.242187.613281.558593l11.769531 131.914063c.6875 7.765625-1.828125 15.214844-7.089844 20.96875zm-21.289062-311.078125c-34.1875 0-62-34.09375-62-76s27.8125-76 62-76 62 34.09375 62 76-27.8125 76-62 76zm0 0"/><path d="m334 226c-2.628906 0-5.210938 1.070312-7.070312 2.929688-1.859376 1.859374-2.929688 4.441406-2.929688 7.070312s1.070312 5.210938 2.929688 7.070312c1.859374 1.859376 4.441406 2.929688 7.070312 2.929688s5.210938-1.070312 7.070312-2.929688c1.859376-1.859374 2.929688-4.441406 2.929688-7.070312s-1.070312-5.210938-2.929688-7.070312c-1.859374-1.859376-4.429687-2.929688-7.070312-2.929688zm0 0"/><path d="m63.03125 232c2.628906 0 5.207031-1.070312 7.070312-2.929688 1.859376-1.859374 2.929688-4.441406 2.929688-7.070312s-1.070312-5.210938-2.929688-7.070312c-1.863281-1.859376-4.441406-2.929688-7.070312-2.929688-2.632812 0-5.210938 1.070312-7.070312 2.929688-1.859376 1.859374-2.929688 4.441406-2.929688 7.070312s1.070312 5.210938 2.929688 7.070312c1.859374 1.859376 4.4375 2.929688 7.070312 2.929688zm0 0"/></svg>