<svg height="511pt" viewBox="-42 0 511 511.998" width="511pt" xmlns="http://www.w3.org/2000/svg"><path d="m428.289062 222c0-28.226562-20.265624-51.792969-47.007812-56.941406 4.703125-3.34375 9.167969-7.105469 13.339844-11.273438 25.140625-25.140625 35.515625-60.90625 27.753906-95.679687-.84375-3.78125-3.800781-6.734375-7.582031-7.582031-32.078125-7.160157-64.988281 1.125-89.632813 22.183593-9.347656-9.207031-21.460937-15.601562-34.96875-17.828125 1.914063-14.269531 8.414063-27.707031 18.515625-37.808594 3.90625-3.90625 3.90625-10.234374 0-14.140624-3.90625-3.90625-10.234375-3.90625-14.144531 0-13.777344 13.777343-22.445312 32.273437-24.492188 51.773437-17.378906 2.5625-32.542968 12.019531-42.601562 25.503906-5.917969-1.132812-11.976562-1.707031-18.046875-1.707031h-15.21875c-5.515625 0-10.335937-2.914062-12.902344-7.789062-2.566406-4.882813-2.234375-10.503907.886719-15.046876 2.105469-3.0625 2.339844-7.035156.609375-10.320312s-5.136719-5.34375-8.851563-5.34375h-58.972656c-39.703125 0-72 32.296875-72 72 0 20.429688 8.5625 38.882812 22.277344 52h-6.75c-31.980469 0-58 26.019531-58 58 0 16.007812 6.625 31.085938 17.902344 41.894531-9.492188 10.148438-12.957032 24.554688-9.015625 37.949219l15.769531 53.589844c1.558594 5.296875 7.113281 8.328125 12.417969 6.769531 5.296875-1.558594 8.328125-7.117187 6.769531-12.417969l-15.773438-53.585937c-1.996093-6.792969-.128906-14.121094 4.878907-19.128907 7.617187-7.621093 20.019531-7.621093 27.640625 0 7.46875 7.46875 17.398437 11.582032 27.960937 11.582032s20.492188-4.113282 27.960938-11.582032c3.691406-3.691406 8.601562-5.722656 13.820312-5.722656s10.128907 2.03125 13.820313 5.722656c15.417968 15.421876 40.507812 15.417969 55.921875 0 3.691406-3.691406 8.601562-5.722656 13.820312-5.722656s10.128907 2.03125 13.820313 5.722656c15.417968 15.421876 40.507812 15.417969 55.925781 0 3.6875-3.691406 8.597656-5.722656 13.820313-5.722656 5.21875 0 10.125 2.03125 13.816406 5.722656 7.46875 7.46875 17.398437 11.582032 27.960937 11.582032 10.566407 0 20.496094-4.113282 27.964844-11.582032 5.25-5.253906 12.773437-6.882812 19.4375-4.894531 1.242187.941407 2.6875 1.558594 4.203125 1.84375 1.425781.828125 2.777344 1.832031 4 3.050781 5.003906 5.007813 6.875 12.335938 4.875 19.128907l-49.597656 168.511719c-4.722656 16.066406-19.71875 27.289062-36.464844 27.289062h-199.519531c-16.746094 0-31.746094-11.222656-36.472657-27.292969l-11.230468-38.171875c-1.558594-5.300781-7.117188-8.332031-12.417969-6.769531-5.296875 1.558594-8.328125 7.117187-6.769531 12.414063l11.234375 38.171874c7.207031 24.519532 30.097656 41.644532 55.65625 41.644532h199.515625c25.5625 0 48.449218-17.125 55.65625-41.644532l49.59375-168.507812c3.941406-13.390625.476562-27.792969-9.007813-37.941406 11.28125-10.796875 17.894531-25.851563 17.894531-41.902344zm-24.257812-153.132812c3.746094 25.984374-4.820312 52.039062-23.554688 70.773437-14.675781 14.679687-33.855468 23.113281-53.96875 24.273437 11.1875-11.683593 18.082032-27.503906 18.082032-44.914062 0-10.898438-2.707032-21.171875-7.46875-30.199219 18.363281-16.203125 42.664062-23.425781 66.910156-19.933593zm-134.441406 6.265624v.03125c0 5.523438 4.476562 10 10 10 5.523437 0 10-4.476562 10-10v-.03125c20.015625 4.558594 35 22.488282 35 43.863282 0 24.816406-20.1875 45-45 45s-45-20.183594-45-45c0-21.375 14.984375-39.304688 35-43.863282zm-206.617188 36.867188c0-28.675781 23.328125-52 52-52h44.859375c-.773437 6.769531.464844 13.738281 3.769531 20.019531 5.996094 11.398438 17.722657 18.480469 30.601563 18.480469h15.222656c2.789063 0 5.578125.152344 8.339844.457031-2.050781 6.316407-3.175781 13.050781-3.175781 20.042969 0 17.453125 6.929687 33.308594 18.164062 45h-117.78125c-28.671875 0-52-23.328125-52-52zm290.589844 150.929688c-3.691406 3.6875-8.601562 5.722656-13.820312 5.722656s-10.128907-2.03125-13.820313-5.726563c-15.414063-15.417969-40.503906-15.417969-55.925781 0-3.6875 3.691407-8.597656 5.726563-13.816406 5.726563-5.222657 0-10.128907-2.035156-13.820313-5.722656-7.46875-7.472657-17.398437-11.585938-27.960937-11.585938s-20.496094 4.113281-27.964844 11.582031c-3.691406 3.691407-8.597656 5.726563-13.820313 5.726563-5.21875 0-10.125-2.035156-13.816406-5.726563-15.417969-15.417969-40.507813-15.417969-55.925781.003907-3.691406 3.6875-8.597656 5.722656-13.820313 5.722656-5.21875 0-10.125-2.03125-13.816406-5.726563-10.5-10.496093-25.484375-13.839843-38.84375-10.039062-9.886719-7.09375-15.886719-18.566407-15.886719-30.890625 0-20.949219 17.046875-38 38-38h311.789063c20.953125 0 38 17.050781 38 38 0 12.355468-5.984375 23.800781-15.878907 30.890625-13.363281-3.800781-28.351562-.460938-38.851562 10.042969zm0 0"/><path d="m363.394531 203.664062h-95.5c-5.519531 0-10 4.480469-10 10 0 5.523438 4.480469 10 10 10h95.5c5.523438 0 10-4.476562 10-10 0-5.519531-4.476562-10-10-10zm0 0"/><path d="m224.585938 203.667969c-2.632813 0-5.210938 1.058593-7.070313 2.929687-1.859375 1.851563-2.929687 4.429688-2.929687 7.070313 0 2.628906 1.070312 5.210937 2.929687 7.070312s4.4375 2.929688 7.070313 2.929688c2.628906 0 5.210937-1.070313 7.078124-2.929688 1.859376-1.871093 2.933594-4.441406 2.933594-7.070312 0-2.640625-1.070312-5.210938-2.933594-7.070313-1.867187-1.871094-4.4375-2.929687-7.078124-2.929687zm0 0"/><path d="m55.863281 391.039062c0-2.628906-1.066406-5.210937-2.929687-7.070312-1.859375-1.859375-4.4375-2.929688-7.070313-2.929688-2.628906 0-5.207031 1.070313-7.066406 2.929688s-2.933594 4.441406-2.933594 7.070312c0 2.628907 1.070313 5.210938 2.933594 7.070313 1.859375 1.859375 4.4375 2.929687 7.066406 2.929687 2.632813 0 5.210938-1.070312 7.070313-2.929687 1.863281-1.859375 2.929687-4.441406 2.929687-7.070313zm0 0"/></svg>