<svg height="511pt" viewBox="-12 1 511 511.999" width="511pt" xmlns="http://www.w3.org/2000/svg"><path d="m469.976562 73.113281c-8.566406-4.945312-18.550781-6.257812-28.105468-3.699219-9.554688 2.5625-17.542969 8.6875-22.488282 17.257813l-24.101562 41.746094c-9.125-13.242188-20.835938-24.589844-34.523438-33.3125-9.359374-5.964844-19.441406-10.554688-29.960937-13.710938-11.617187-33.207031-37.632813-60.3125-70.558594-73.144531-5.148437-2.007812-10.941406.539062-12.949219 5.683594-2.003906 5.148437.539063 10.945312 5.6875 12.949218 23.71875 9.246094 43.148438 27.355469 54.269532 49.953126-3.675782-.335938-7.375-.523438-11.089844-.523438-29.28125 0-57.5 10.640625-79.460938 29.960938-2.867187 2.523437-5.597656 5.171874-8.195312 7.933593-21.683594-23.136719-51.242188-36.648437-83.175781-37.804687 11.296875-22.640625 31.015625-40.765625 54.839843-49.820313 5.160157-1.964843 7.753907-7.738281 5.792969-12.902343-1.960937-5.160157-7.738281-7.753907-12.902343-5.792969-31.984376 12.160156-57.792969 37.972656-70.125 69.761719-57.894532 8.675781-102.429688 58.738281-102.429688 119.007812 0 11.246094 1.542969 22.28125 4.582031 32.949219-.878906.566406-1.679687 1.265625-2.351562 2.097656-1.898438 2.34375-2.6406252 5.417969-2.011719 8.371094l56 264c.980469 4.617187 5.058594 7.921875 9.78125 7.921875h71.554688c.003906 0 .011718.003906.019531.003906.003906 0 .011719-.003906.015625-.003906h140.820312l.015625.003906c.003907 0 .011719-.003906.011719-.003906h71.5625c4.722656 0 8.800781-3.304688 9.78125-7.921875l55.960938-263.820313 67.289062-116.546875c10.210938-17.6875 4.128906-40.382812-13.554688-50.59375zm-173.820312 23.199219c8.132812 0 16.085938.96875 23.734375 2.800781.460937.152344.9375.265625 1.421875.347657 26.441406 6.753906 49.074219 24.046874 62.636719 48.585937l-46.164063 79.953125h-75.484375c1.480469-1.285156 2.9375-2.605469 4.335938-4.003906 19.949219-19.949219 28.183593-48.332032 22.023437-75.921875-.84375-3.785157-3.796875-6.738281-7.582031-7.582031-27.589844-6.160157-55.972656 2.074218-75.921875 22.023437-1.847656 1.851563-3.605469 3.785156-5.261719 5.796875 12.355469-41.929688 51.390625-72 96.261719-72zm-77.65625 395.6875v-174c0-5.523438-4.480469-10-10-10-5.523438 0-10 4.476562-10 10v174h-51.671875l-32.996094-244h189.332031l-32.992187 244zm-85.210938-282.144531c-13.527343-13.527344-19.929687-32.183594-17.746093-50.941407 18.753906-2.179687 37.417969 4.222657 50.9375 17.746094 13.527343 13.523438 19.929687 32.179688 17.746093 50.9375-2.140624.25-4.285156.375-6.417968.402344h-1.351563c-16.050781-.144531-31.519531-6.496094-43.167969-18.144531zm76.621094 18.144531h-2.300781c-1.097656-.019531-2.199219-.070312-3.300781-.148438.714844-7.839843.300781-15.644531-1.179688-23.207031.128906-.328125.246094-.667969.34375-1.015625 2.851563-10.144531 8.324219-19.46875 15.828125-26.96875 13.523438-13.527344 32.179688-19.929687 50.9375-17.746094 2.179688 18.757813-4.222656 37.414063-17.746093 50.9375-11.507813 11.511719-26.734376 17.855469-42.582032 18.148438zm-89.066406-131.6875c29.035156 0 56 12.222656 75.058594 33.765625-6.65625 10.011719-11.785156 20.972656-15.191406 32.527344-.03125-.027344-.058594-.058594-.085938-.085938-19.949219-19.949219-48.332031-28.1875-75.921875-22.027343-3.785156.84375-6.738281 3.796874-7.582031 7.582031-6.160156 27.589843 2.074218 55.972656 22.023437 75.921875 1.402344 1.402344 2.855469 2.722656 4.335938 4.003906h-97.980469c-3.316406-10.082031-5-20.59375-5-31.34375 0-55.332031 45.011719-100.34375 100.34375-100.34375zm-98 151.6875h70.804688l32.996093 244h-52.042969zm319.554688 244h-52.042969l32.992187-244h20.015625c.058594 0 .121094.011719.179688.011719.0625 0 .121093-.011719.183593-.011719h50.429688zm123.8125-378.292969-65.984376 114.292969h-39.347656l43.097656-74.640625c.027344-.050781.058594-.101563.085938-.152344l32.640625-56.535156c4.695313-8.136719 15.136719-10.9375 23.273437-6.238281 8.132813 4.699218 10.929688 15.136718 6.234376 23.273437zm0 0"/><path d="m215.566406 270.929688c-1.855468-1.859376-4.4375-2.929688-7.066406-2.929688-2.632812 0-5.210938 1.070312-7.070312 2.929688-1.859376 1.859374-2.929688 4.429687-2.929688 7.070312 0 2.628906 1.066406 5.210938 2.929688 7.070312 1.859374 1.859376 4.4375 2.929688 7.070312 2.929688 2.628906 0 5.210938-1.070312 7.066406-2.929688 1.863282-1.859374 2.933594-4.441406 2.933594-7.070312s-1.070312-5.210938-2.933594-7.070312zm0 0"/><path d="m216.179688 20c2.628906 0 5.207031-1.070312 7.070312-2.929688 1.855469-1.859374 2.929688-4.441406 2.929688-7.070312s-1.070313-5.210938-2.929688-7.070312c-1.863281-1.859376-4.441406-2.929688-7.070312-2.929688-2.640626 0-5.210938 1.070312-7.070313 2.929688-1.871094 1.859374-2.929687 4.441406-2.929687 7.070312s1.058593 5.210938 2.929687 7.070312c1.859375 1.859376 4.429687 2.929688 7.070313 2.929688zm0 0"/></svg>