<svg height="511pt" viewBox="1 0 511.999 511" width="511pt" xmlns="http://www.w3.org/2000/svg"><path d="m458 263.261719v-68.761719c0-1.605469-.386719-3.183594-1.125-4.609375l-52.875-101.832031v-53.558594c0-18.75-15.253906-34-34-34h-282c-18.746094 0-34 15.25-34 34v53.558594l-52.875 101.832031c-.738281 1.425781-1.125 3.003906-1.125 4.609375v268c0 5.523438 4.476562 10 10 10h93.667969c5.523437 0 10-4.476562 10-10s-4.476563-10-10-10h-83.667969v-255.558594l50.074219-96.441406h317.851562l50.074219 96.441406v56.605469c-10.675781-3.933594-22.101562-6.292969-34-6.804687v-38.242188c0-5.523438-4.476562-10-10-10h-330c-5.523438 0-10 4.476562-10 10v200c0 5.523438 4.476562 10 10 10h97.34375c3.394531 6.171875 7.867188 11.84375 13.347656 16.769531-5.28125 24.714844 4.132813 49.558594 25.066406 64.765625 20.929688 15.207032 47.464844 16.484375 69.339844 3.824219 9.933594 5.75 20.832032 8.625 31.730469 8.625 13.09375 0 26.183594-4.148437 37.609375-12.449219 11.9375-8.675781 20.125-20.488281 23.976562-33.621094 11.746094 4.039063 24.035157 6.085938 36.648438 6.085938 62.273438 0 112.9375-50.664062 112.9375-112.9375 0-40.691406-21.632812-76.421875-54-96.300781zm-384-182.761719v-46c0-7.722656 6.28125-14 14-14h282c7.71875 0 14 6.277344 14 14v46zm310 167.136719c-32.164062 4.335937-61.109375 22.398437-79.148438 49.648437-10.21875-6.832031-22.503906-10.660156-35.753906-10.660156-3.636718 0-7.199218.300781-10.671875.859375l67.449219-67.449219c.476562-.476562.894531-.992187 1.257812-1.535156h56.867188zm-199.09375-29.136719-110.90625 110.90625v-110.90625zm-110.90625 180v-40.808594l138.261719-138.265625c.296875-.292969.558593-.605469.8125-.925781h86.050781l-112.894531 112.894531c-.367188.367188-.683594.757813-.984375 1.160157-13.136719 7.652343-23.285156 20.019531-28.34375 35.585937-3.308594 10.175781-4.042969 20.523437-2.453125 30.359375zm268.660156 36.175781c7.28125 22.410157-3.480468 40.097657-15.980468 49.175781-12.496094 9.082032-32.644532 13.851563-51.707032 0-1.75-1.269531-3.8125-1.90625-5.875-1.90625-2.066406 0-4.125.636719-5.878906 1.90625-19.0625 13.851563-39.207031 9.082032-51.707031 0-12.5-9.078124-23.261719-26.765624-15.980469-49.175781 1.339844-4.121093-.128906-8.632812-3.632812-11.179687-19.0625-13.847656-20.75-34.484375-15.976563-49.175782 4.769531-14.691406 18.269531-30.394531 41.832031-30.394531 4.332032 0 8.171875-2.789062 9.507813-6.910156 7.28125-22.40625 26.382812-30.390625 41.832031-30.390625s34.550781 7.984375 41.832031 30.390625c1.339844 4.121094 5.179688 6.910156 9.511719 6.910156 23.5625 0 37.058594 15.703125 41.832031 30.394531 4.773438 14.691407 3.082031 35.328126-15.980469 49.175782-3.5 2.546875-4.96875 7.0625-3.628906 11.179687zm56.402344 17.824219c-11.84375 0-23.324219-2.1875-34.191406-6.496094-.15625-3.558594-.605469-7.148437-1.371094-10.734375 18.800781-16.890625 25.785156-42.519531 17.792969-67.128906-7.996094-24.605469-28.714844-41.234375-53.851563-43.851563-2.101562-4.738281-4.71875-9.109374-7.753906-13.078124 16.839844-27.589844 46.910156-44.585938 79.375-44.585938 51.246094 0 92.9375 41.691406 92.9375 92.9375s-41.691406 92.9375-92.9375 92.9375zm0 0"/><path d="m228.570312 377.425781c-3.90625-3.902343-10.234374-3.902343-14.140624 0l-7.5 7.5c-3.90625 3.90625-3.90625 10.238281 0 14.144531 1.953124 1.953126 4.511718 2.929688 7.070312 2.929688s5.117188-.976562 7.070312-2.929688l7.5-7.5c3.90625-3.90625 3.90625-10.238281 0-14.144531zm0 0"/><path d="m261.976562 360.621094c1.953126 1.953125 4.511719 2.925781 7.074219 2.925781 2.558594 0 5.117188-.972656 7.070313-2.925781 3.902344-3.90625 3.902344-10.238282 0-14.144532l-5.550782-5.550781c-3.90625-3.902343-10.234374-3.902343-14.140624 0-3.90625 3.90625-3.90625 10.238281 0 14.144531zm0 0"/><path d="m315.929688 384.925781-6.5 6.5c-3.90625 3.90625-3.90625 10.238281 0 14.144531 1.953124 1.953126 4.511718 2.929688 7.070312 2.929688s5.117188-.976562 7.070312-2.929688l6.5-6.5c3.90625-3.90625 3.90625-10.238281 0-14.144531-3.90625-3.902343-10.234374-3.902343-14.140624 0zm0 0"/><path d="m394.320312 301.425781c-3.90625-3.902343-10.234374-3.902343-14.140624 0l-6.5 6.5c-3.90625 3.90625-3.90625 10.238281 0 14.144531 1.953124 1.953126 4.511718 2.929688 7.070312 2.929688s5.117188-.976562 7.070312-2.929688l6.5-6.5c3.90625-3.90625 3.90625-10.238281 0-14.144531zm0 0"/><path d="m419.101562 352.492188c-3.902343-3.90625-10.234374-3.90625-14.140624 0l-6.5 6.5c-3.90625 3.90625-3.90625 10.234374 0 14.140624 1.953124 1.953126 4.511718 2.929688 7.070312 2.929688s5.117188-.976562 7.070312-2.929688l6.5-6.5c3.90625-3.90625 3.90625-10.234374 0-14.140624zm0 0"/><path d="m270.570312 405.128906c-3.90625-3.90625-10.234374-3.90625-14.140624 0s-3.90625 10.238282 0 14.144532l5.796874 5.796874c1.953126 1.953126 4.511719 2.929688 7.070313 2.929688s5.121094-.976562 7.070313-2.929688c3.90625-3.90625 3.90625-10.238281 0-14.144531zm0 0"/><path d="m452.171875 320.398438c-3.90625-3.90625-10.238281-3.90625-14.144531 0-3.902344 3.902343-3.902344 10.234374 0 14.140624l5.800781 5.800782c1.953125 1.953125 4.511719 2.925781 7.070313 2.925781 2.558593 0 5.121093-.972656 7.070312-2.925781 3.90625-3.90625 3.90625-10.238282 0-14.144532zm0 0"/><path d="m437.070312 395.628906c-3.90625-3.90625-10.234374-3.90625-14.140624 0s-3.90625 10.238282 0 14.144532l5.796874 5.796874c1.953126 1.953126 4.511719 2.929688 7.070313 2.929688s5.121094-.976562 7.070313-2.929688c3.90625-3.90625 3.90625-10.238281 0-14.144531zm0 0"/><path d="m230.679688 442.300781-3.75 3.75c-3.90625 3.90625-3.90625 10.238281 0 14.144531 1.953124 1.953126 4.511718 2.929688 7.070312 2.929688s5.117188-.976562 7.070312-2.929688l3.75-3.75c3.90625-3.90625 3.90625-10.238281 0-14.144531-3.90625-3.902343-10.234374-3.902343-14.140624 0zm0 0"/><path d="m306.320312 441.425781c-3.90625-3.902343-10.234374-3.902343-14.140624 0-3.90625 3.90625-3.90625 10.238281 0 14.144531l5.5 5.5c1.953124 1.953126 4.511718 2.929688 7.070312 2.929688s5.117188-.976562 7.070312-2.929688c3.90625-3.90625 3.90625-10.238281 0-14.144531zm0 0"/><path d="m143.671875 452.5c-2.640625 0-5.210937 1.070312-7.070313 2.929688-1.871093 1.859374-2.929687 4.441406-2.929687 7.070312s1.058594 5.210938 2.929687 7.070312c1.859376 1.859376 4.429688 2.929688 7.070313 2.929688 2.628906 0 5.207031-1.070312 7.066406-2.929688 1.863281-1.859374 2.933594-4.441406 2.933594-7.070312s-1.070313-5.210938-2.933594-7.070312c-1.859375-1.859376-4.4375-2.929688-7.066406-2.929688zm0 0"/><path d="m296.128906 40.5h-134.257812c-5.519532 0-10 4.476562-10 10s4.480468 10 10 10h134.257812c5.519532 0 10-4.476562 10-10s-4.480468-10-10-10zm0 0"/></svg>