<svg height="512pt" viewBox="0 -27 512 512" width="512pt" xmlns="http://www.w3.org/2000/svg"><path d="m509.070312 280.929688-72-72c-1.875-1.875-4.417968-2.929688-7.070312-2.929688h-226.332031c-5.523438 0-10 4.476562-10 10s4.476562 10 10 10h222.1875l52 52h-443.710938l52-52h37.523438c5.523437 0 10-4.476562 10-10s-4.476563-10-10-10h-41.667969c-2.652344 0-5.195312 1.054688-7.070312 2.929688l-72 72c-1.808594 1.808593-2.929688 4.308593-2.929688 7.070312v40c0 1.464844.320312 2.847656.886719 4.101562-.003907 0-.003907 0-.003907 0l54 120c1.613282 3.589844 5.179688 5.898438 9.117188 5.898438h384c3.9375 0 7.503906-2.308594 9.117188-5.894531l54-120c0-.003907 0-.003907-.003907-.003907.566407-1.253906.886719-2.636718.886719-4.101562v-40c0-2.761719-1.121094-5.261719-2.929688-7.070312zm-17.070312 17.070312v20h-472v-20zm-189.546875 40-8.648437 23.304688c-.15625.417968-.558594.695312-1 .695312h-73.609376c-.441406 0-.84375-.277344-1-.695312l-8.648437-23.304688zm139.082031 100h-371.070312l-45-100h162.75l11.230468 30.265625c3.050782 8.214844 10.988282 13.734375 19.75 13.734375h73.609376c8.761718 0 16.699218-5.519531 19.75-13.734375l11.234374-30.265625h162.746094zm0 0"/><path d="m10 64h470c17.644531 0 32-14.355469 32-32s-14.355469-32-32-32h-470c-5.523438 0-10 4.476562-10 10v44c0 5.523438 4.476562 10 10 10zm482-32c0 6.617188-5.382812 12-12 12h-314v-24h314c6.617188 0 12 5.382812 12 12zm-472-12h126v24h-126zm0 0"/><path d="m480 88h-470c-5.523438 0-10 4.476562-10 10v44c0 5.523438 4.476562 10 10 10h185.996094c5.523437 0 10-4.476562 10-10s-4.476563-10-10-10h-29.996094v-24h314c6.617188 0 12 5.382812 12 12s-5.382812 12-12 12h-204.003906c-5.519532 0-10 4.476562-10 10s4.480468 10 10 10h204.003906c17.644531 0 32-14.355469 32-32s-14.355469-32-32-32zm-334 44h-126v-24h126zm0 0"/><path d="m243.070312 149.070312c1.859376-1.859374 2.929688-4.441406 2.929688-7.070312s-1.070312-5.210938-2.929688-7.070312c-1.859374-1.859376-4.441406-2.929688-7.070312-2.929688s-5.210938 1.070312-7.070312 2.929688c-1.859376 1.859374-2.929688 4.441406-2.929688 7.070312s1.070312 5.210938 2.929688 7.070312c1.859374 1.859376 4.441406 2.929688 7.070312 2.929688s5.210938-1.070312 7.070312-2.929688zm0 0"/><path d="m170.738281 223.070312c1.859375-1.859374 2.933594-4.441406 2.933594-7.070312s-1.070313-5.210938-2.933594-7.070312c-1.859375-1.859376-4.4375-2.929688-7.066406-2.929688-2.644531 0-5.210937 1.070312-7.070313 2.929688-1.871093 1.859374-2.929687 4.441406-2.929687 7.070312s1.058594 5.210938 2.929687 7.070312c1.859376 1.859376 4.4375 2.929688 7.070313 2.929688 2.628906 0 5.207031-1.070312 7.066406-2.929688zm0 0"/></svg>