<svg height="512pt" viewBox="0 0 512 512" width="512pt" xmlns="http://www.w3.org/2000/svg"><path d="m391.316406 254.683594c0-73.886719-60.113281-134-134-134-73.886718 0-134 60.113281-134 134 0 73.886718 60.113282 134 134 134 73.886719 0 134-60.113282 134-134zm-248 0c0-62.859375 51.140625-114 114-114s114 51.140625 114 114-51.140625 114-114 114-114-51.140625-114-114zm0 0"/><path d="m422 98.511719c2.628906 0 5.210938-1.070313 7.070312-2.933594 1.859376-1.867187 2.929688-4.4375 2.929688-7.078125 0-2.628906-1.070312-5.199219-2.929688-7.070312-1.859374-1.859376-4.441406-2.917969-7.070312-2.917969s-5.210938 1.058593-7.070312 2.917969c-1.859376 1.871093-2.929688 4.441406-2.929688 7.070312 0 2.640625 1.070312 5.210938 2.929688 7.078125 1.859374 1.859375 4.441406 2.933594 7.070312 2.933594zm0 0"/><path d="m427.066406 1.378906c-3.09375-1.816406-6.921875-1.839844-10.035156-.058594s-5.03125 5.09375-5.03125 8.679688v35.90625c0 5.523438 4.476562 10 10 10s10-4.476562 10-10v-17.164062c37.390625 28.53125 60 73.433593 60 121.042968v92.917969l-28.660156 25.550781c-2.132813 1.898438-3.351563 4.617188-3.347656 7.476563l.007812 6.71875v195.546875c0 7.722656-6.28125 14.003906-14.003906 14.003906-7.71875 0-13.996094-6.277344-13.996094-13.992188v-350.007812c0-5.523438-4.476562-10-10-10s-10 4.476562-10 10v17.148438c-35.078125-49.53125-92.410156-79.980469-154.683594-79.980469-43.109375 0-84.015625 14.304687-117.316406 40.65625v-95.824219c0-5.523438-4.476562-10-10-10s-10 4.476562-10 10v108h-20v-108c0-5.523438-4.476562-10-10-10s-10 4.476562-10 10v108h-20v-108c0-5.523438-4.476562-10-10-10s-10 4.476562-10 10v108h-20v-108c0-5.523438-4.476562-10-10-10s-10 4.476562-10 10v131.5c0 23.433594 17.425781 42.863281 40 46.035156v126.527344c-3.054688 3.273438-5.070312 7.558594-5.496094 12.390625l-11.769531 133.421875c-1.183594 13.4375 3.339844 26.828125 12.414063 36.738281 8.953124 9.777344 21.65625 15.386719 34.851562 15.386719s25.898438-5.609375 34.851562-15.386719c9.074219-9.910156 13.597657-23.300781 12.414063-36.738281l-7.625-86.472656c9.0625 11.261718 19.394531 21.523437 30.746094 30.429687 22.328125 17.53125 48.730469 29.980469 76.347656 36.007813.71875.15625 1.4375.230468 2.144531.230468 4.597656 0 8.738282-3.191406 9.757813-7.867187 1.179687-5.398437-2.242188-10.726563-7.636719-11.902344-50.050781-10.921875-91.957031-43.472656-115.105469-89.351562l-.398437-4.496094c-.425782-4.832031-2.441406-9.117187-5.496094-12.390625v-126.527344c22.574219-3.171875 40-22.601562 40-46.035156v-9.167969c31.710938-30.4375 73.226562-47.164062 117.316406-47.164062 66.84375 0 127.332032 39.21875 154.683594 100.09375v138.839843c-21.433594 47.679688-64.292969 83.277344-115.035156 95.4375-5.371094 1.285157-8.683594 6.683594-7.394532 12.054688 1.097657 4.589844 5.195313 7.671875 9.714844 7.671875.769532 0 1.554688-.089844 2.335938-.277344 44.761718-10.722656 84.027344-37.761719 110.378906-74.859375v113.878906c0 18.742188 15.25 33.992188 33.996094 33.992188 18.75 0 34.003906-15.253906 34.003906-34.003906v-195.558594l-.003906-2.242188 28.65625-25.542968c2.128906-1.898438 3.347656-4.613282 3.347656-7.464844v-97.402344c0-60.761718-32.546875-117.628906-84.933594-148.40625zm-347.066406 186.621094v119.550781h-20v-119.550781zm10.101562 295.105469c-5.25 5.738281-12.390624 8.894531-20.101562 8.894531s-14.851562-3.15625-20.101562-8.894531c-5.375-5.867188-7.945313-13.492188-7.242188-21.472657l11.769531-133.421874c.035157-.371094.300781-.660157.613281-.660157h29.925782c.308594 0 .578125.289063.609375.660157l11.769531 133.421874c.703125 7.980469-1.867188 15.605469-7.242188 21.472657zm3.398438-315.105469h-47c-14.613281 0-26.5-11.886719-26.5-26.5v-3.5h100v3.5c0 14.613281-11.886719 26.5-26.5 26.5zm0 0"/><path d="m190.179688 213.105469c-14.0625 0-25.5 11.4375-25.5 25.496093 0 5.523438 4.476562 10 10 10 5.523437 0 10-4.476562 10-10 0-3.03125 2.464843-5.496093 5.5-5.496093 4.621093 0 5.496093 1.933593 5.496093 5.496093 0 11.5625-18.140625 28.703126-26.917969 35.183594-3.484374 2.5625-4.925781 7.070313-3.578124 11.175782 1.347656 4.105468 5.179687 6.882812 9.5 6.882812h31c5.519531 0 10-4.476562 10-10s-4.480469-10-10-10h-5.566407c8.085938-9.292969 15.566407-21.15625 15.566407-33.238281-.003907-15.253907-10.25-25.5-25.5-25.5zm0 0"/><path d="m257.625 281.960938c0 5.519531 4.476562 10 10 10s10-4.480469 10-10v-19.722657c4.4375-1.019531 7.753906-4.988281 7.753906-9.738281s-3.316406-8.71875-7.753906-9.738281v-19.65625c0-5.523438-4.476562-10-10-10s-10 4.476562-10 10v19.394531h-11.515625v-19.394531c0-5.523438-4.476563-10-10-10s-10 4.476562-10 10v29.394531c0 5.523438 4.476563 10 10 10h21.515625zm0 0"/><path d="m308.144531 291.84375c5.523438 0 10-4.476562 10-10v-14.585938c0-2.53125 2.058594-4.585937 4.589844-4.585937 2.527344 0 4.585937 2.054687 4.585937 4.585937v14.585938c0 5.523438 4.476563 10 10 10 5.523438 0 10-4.476562 10-10v-14.585938c0-13.558593-11.03125-24.585937-24.585937-24.585937-1.570313 0-3.101563.152344-4.589844.433594v-20c0-5.519531-4.476562-10-10-10-5.523437 0-10 4.480469-10 10v58.738281c0 5.523438 4.480469 10 10 10zm0 0"/><path d="m259.289062 424.199219c-2.628906 0-5.210937 1.0625-7.070312 2.929687-1.859375 1.859375-2.929688 4.429688-2.929688 7.070313 0 2.628906 1.070313 5.210937 2.929688 7.070312s4.441406 2.929688 7.070312 2.929688c2.632813 0 5.210938-1.070313 7.070313-2.929688 1.871094-1.859375 2.929687-4.441406 2.929687-7.070312 0-2.640625-1.058593-5.210938-2.929687-7.070313-1.859375-1.867187-4.4375-2.929687-7.070313-2.929687zm0 0"/></svg>