<svg height="512pt" viewBox="0 0 512 512" width="512pt" xmlns="http://www.w3.org/2000/svg"><path d="m336 60c2.628906 0 5.210938-1.070312 7.070312-2.929688 1.859376-1.859374 2.929688-4.441406 2.929688-7.070312s-1.070312-5.210938-2.929688-7.070312c-1.859374-1.859376-4.441406-2.929688-7.070312-2.929688s-5.210938 1.070312-7.070312 2.929688c-1.859376 1.859374-2.929688 4.441406-2.929688 7.070312s1.070312 5.210938 2.929688 7.070312c1.859374 1.859376 4.441406 2.929688 7.070312 2.929688zm0 0"/><path d="m42 171.953125c-5.523438 0-10 4.476563-10 10v.09375c0 5.523437 4.476562 9.953125 10 9.953125s10-4.523438 10-10.046875-4.476562-10-10-10zm0 0"/><path d="m482 304h-10v-264c0-22.054688-17.945312-40-40-40h-392c-22.054688 0-40 17.945312-40 40v284c0 22.054688 17.945312 40 40 40h188v34h-81c-5.523438 0-10 4.476562-10 10s4.476562 10 10 10h81v28h-112.832031c-5.523438 0-10 4.476562-10 10s4.476562 10 10 10h112.832031v16c0 16.542969 13.457031 30 30 30h224c16.542969 0 30-13.457031 30-30v-148c0-16.542969-13.457031-30-30-30zm10 172.992188-58.992188-58.992188h8.460938c3.339844 0 6.460938-1.667969 8.3125-4.445312l42.21875-63.230469zm-244-128.074219 43.15625 64.636719c1.855469 2.777343 4.976562 4.445312 8.316406 4.445312h8.460938l-59.933594 59.933594zm88.21875 69.082031h68.503906l74 74h-216.503906zm148.960938-93.472656-49.0625 73.472656h-131.296876l-49.210937-73.699219c.769531-.1875 1.566406-.300781 2.390625-.300781h224c1.113281 0 2.179688.191406 3.179688.527344zm-244.179688-202.527344c48.453125 0 88.460938 36.855469 93.472656 84h-186.945312c5.011718-47.144531 45.019531-84 93.472656-84zm-104 104h218.285156c-4.125 11.640625-15.246094 20-28.285156 20h-172c-13.039062 0-24.160156-8.359375-28.285156-20zm188.363281 52.078125c0-6.589844 5.359375-11.949219 11.949219-11.949219h70.097656c6.589844 0 11.953125 5.359375 11.953125 11.949219v25.921875h-94zm-285.363281 65.921875c-11.027344 0-20-8.972656-20-20v-284c0-11.027344 8.972656-20 20-20h392c11.027344 0 20 8.972656 20 20v264h-12.636719v-25.921875c0-13.90625-8.933593-25.761719-21.363281-30.140625v-197.9375c0-5.523438-4.476562-10-10-10h-32c-5.523438 0-10 4.476562-10 10s4.476562 10 10 10h22v186.128906h-31.128906c6.351562-8.386718 10.128906-18.824218 10.128906-30.128906 0-5.523438-4.476562-10-10-10h-12.445312c-4.792969-54.898438-48.65625-98.761719-103.554688-103.554688v-3.851562c0-5.523438-4.476562-10-10-10s-10 4.476562-10 10v3.851562c-54.898438 4.792969-98.761719 48.660157-103.554688 103.554688h-12.445312c-5.523438 0-10 4.476562-10 10 0 27.570312 22.429688 50 50 50h152.738281c-1.527343 3.730469-2.375 7.804688-2.375 12.078125v25.921875h-221.363281v-244h211.875c5.523438 0 10-4.476562 10-10s-4.476562-10-10-10h-221.875c-5.523438 0-10 4.476562-10 10v264c0 5.523438 4.476562 10 10 10h155.71875c-1.109375 3.128906-1.71875 6.492188-1.71875 10v10zm0 0"/><path d="m75.171875 446c-2.640625 0-5.210937 1.070312-7.070313 2.929688-1.863281 1.859374-2.929687 4.441406-2.929687 7.070312s1.066406 5.210938 2.929687 7.070312c1.859376 1.859376 4.4375 2.929688 7.070313 2.929688 2.628906 0 5.207031-1.070312 7.066406-2.929688 1.863281-1.859374 2.933594-4.441406 2.933594-7.070312s-1.070313-5.210938-2.933594-7.070312c-1.859375-1.859376-4.4375-2.929688-7.066406-2.929688zm0 0"/></svg>