<svg height="512pt" viewBox="0 0 512 512" width="512pt" xmlns="http://www.w3.org/2000/svg"><path d="m510.375 432.546875c.003906 0 .003906-.003906.003906-.007813l-62.539062-96c-1.847656-2.828124-5-4.539062-8.378906-4.539062h-56.308594c16.601562-24.574219 26.308594-54.175781 26.308594-86 0-84.914062-69.085938-154-154-154-84.917969 0-154 69.085938-154 154 0 31.824219 9.703124 61.425781 26.304687 86h-46.304687v-272h348v202c0 5.523438 4.476562 10 10 10 5.519531 0 10-4.476562 10-10v-207.859375l14.550781-14.546875c1.875-1.878906 2.925781-4.421875 2.925781-7.074219v-22.519531c0-5.523438-4.476562-10-10-10h-402.957031c-5.523438 0-10 4.476562-10 10v22.519531c0 2.652344 1.054687 5.195313 2.929687 7.074219l14.550782 14.550781v284.929688l-59.882813 93.535156s.003906 0 .007813.003906c-1 1.554688-1.585938 3.402344-1.585938 5.386719v64c0 5.523438 4.476562 10 10 10h492c5.523438 0 10-4.476562 10-10v-64c0-2.011719-.601562-3.882812-1.625-5.453125zm-254.914062-320.546875c73.886718 0 134 60.113281 134 134s-60.113282 134-134 134c-73.890626 0-134-60.113281-134-134s60.109374-134 134-134zm-191.480469-92h382.957031v8.378906l-11.621094 11.621094h-359.714844l-11.621093-11.621094zm-22.871094 387.953125c.292969.027344.589844.046875.890625.046875h66c5.523438 0 10-4.476562 10-10s-4.476562-10-10-10h-54.117188l23.046876-36h66.738281c.058593 0 .113281-.007812.171875-.007812 28.078125 29.554687 67.734375 48.007812 111.621094 48.007812 43.890624 0 83.550781-18.460938 111.628906-48.019531.136718.003906.269531.019531.410156.019531h66.539062l49.511719 76h-455.273437zm231.015625 40.046875c-3.355469 5.390625-9.320312 9-16.125 9s-12.769531-3.609375-16.125-9zm219.875 44h-472v-44h198.304688c4.425781 16.675781 19.644531 29 37.695312 29s33.265625-12.324219 37.695312-29h198.304688zm0 0"/><path d="m148 388c-2.628906 0-5.210938 1.070312-7.070312 2.929688-1.859376 1.859374-2.929688 4.441406-2.929688 7.070312s1.070312 5.210938 2.929688 7.070312c1.859374 1.859376 4.441406 2.929688 7.070312 2.929688s5.210938-1.070312 7.070312-2.929688c1.859376-1.859374 2.929688-4.441406 2.929688-7.070312s-1.070312-5.210938-2.929688-7.070312c-1.859374-1.859376-4.441406-2.929688-7.070312-2.929688zm0 0"/><path d="m439.460938 292c-2.632813 0-5.210938 1.070312-7.070313 2.929688-1.859375 1.859374-2.929687 4.441406-2.929687 7.070312s1.070312 5.210938 2.929687 7.070312c1.859375 1.859376 4.4375 2.929688 7.070313 2.929688 2.628906 0 5.210937-1.070312 7.070312-2.929688 1.859375-1.859374 2.929688-4.441406 2.929688-7.070312s-1.070313-5.210938-2.929688-7.070312c-1.859375-1.859376-4.441406-2.929688-7.070312-2.929688zm0 0"/><path d="m255.460938 287.191406c22.710937 0 41.1875-18.480468 41.1875-41.191406s-18.476563-41.191406-41.1875-41.191406c-22.714844 0-41.191407 18.476562-41.191407 41.191406s18.476563 41.191406 41.191407 41.191406zm0-62.382812c11.683593 0 21.1875 9.507812 21.1875 21.191406s-9.503907 21.191406-21.1875 21.191406c-11.6875 0-21.191407-9.507812-21.191407-21.191406s9.503907-21.191406 21.191407-21.191406zm0 0"/><path d="m174.144531 327.316406c8.453125 8.453125 19.671875 13.101563 31.617188 13.101563h.339843c6.558594 0 12.960938 2.667969 17.578126 7.328125 8.464843 8.546875 19.75 13.253906 31.78125 13.253906 12.027343 0 23.316406-4.707031 31.78125-13.253906 4.613281-4.660156 11.015624-7.328125 17.574218-7.328125h.339844c11.945312 0 23.167969-4.648438 31.621094-13.101563 8.503906-8.507812 13.160156-19.816406 13.101562-31.84375-.03125-6.601562 2.636719-13.046875 7.328125-17.691406 8.546875-8.464844 13.253907-19.753906 13.253907-31.78125s-4.707032-23.316406-13.253907-31.78125c-4.6875-4.644531-7.359375-11.089844-7.328125-17.691406.058594-12.027344-4.59375-23.335938-13.101562-31.84375-8.507813-8.507813-19.816406-13.125-31.84375-13.101563-6.601563.042969-13.046875-2.640625-17.691406-7.328125-8.464844-8.546875-19.753907-13.253906-31.78125-13.253906-12.03125 0-23.316407 4.707031-31.78125 13.253906-4.617188 4.660156-11.015626 7.328125-17.574219 7.328125-.113281 0-.226563 0-.339844 0-11.945313 0-23.167969 4.648438-31.621094 13.101563-8.507812 8.503906-13.160156 19.8125-13.105469 31.84375.035157 6.601562-2.636718 13.046875-7.324218 17.691406-8.546875 8.464844-13.253906 19.753906-13.253906 31.78125s4.707031 23.316406 13.253906 31.78125c4.6875 4.644531 7.359375 11.089844 7.324218 17.691406-.054687 12.03125 4.597657 23.339844 13.105469 31.84375zm-6.355469-98.886718c8.480469-8.398438 13.3125-20.0625 13.253907-31.996094-.03125-6.652344 2.539062-12.90625 7.242187-17.609375 4.675782-4.671875 10.878906-7.242188 17.480469-7.242188h.125c11.917969.035157 23.601563-4.773437 32-13.253906 4.679687-4.726563 10.917969-7.328125 17.570313-7.328125 6.648437 0 12.890624 2.605469 17.570312 7.328125 8.347656 8.433594 19.921875 13.257813 31.789062 13.253906h.207032c6.628906-.0625 12.90625 2.539063 17.609375 7.242188s7.273437 10.957031 7.242187 17.609375c-.058594 11.933594 4.773438 23.597656 13.253906 31.996094 4.726563 4.679687 7.328126 10.921874 7.328126 17.570312s-2.601563 12.890625-7.328126 17.570312c-8.480468 8.398438-13.3125 20.0625-13.253906 32 .03125 6.648438-2.539062 12.902344-7.242187 17.605469-4.675781 4.671875-10.878907 7.242188-17.484375 7.242188-.113282 0-.222656 0-.335938 0-11.863281 0-23.4375 4.824219-31.785156 13.253906-4.679688 4.726563-10.921875 7.328125-17.570312 7.328125-6.652344 0-12.890626-2.605469-17.570313-7.328125-8.351563-8.433594-19.921875-13.253906-31.789063-13.253906-.070312 0-.140624 0-.210937 0-6.636719.027343-12.902344-2.542969-17.605469-7.242188-4.703125-4.703125-7.273437-10.957031-7.242187-17.605469.058593-11.9375-4.773438-23.601562-13.253907-32-4.726562-4.679687-7.328124-10.921874-7.328124-17.570312s2.601562-12.890625 7.328124-17.570312zm0 0"/><path d="m203.679688 210.320312c1.953124 1.953126 4.511718 2.929688 7.070312 2.929688s5.117188-.976562 7.070312-2.929688c3.90625-3.90625 3.90625-10.234374 0-14.140624l-3.25-3.25c-3.90625-3.90625-10.234374-3.90625-14.140624 0-3.90625 3.902343-3.90625 10.234374 0 14.140624zm0 0"/><path d="m256.128906 192c5.519532 0 10-4.476562 10-10v-2c0-5.523438-4.480468-10-10-10-5.523437 0-10 4.476562-10 10v2c0 5.523438 4.476563 10 10 10zm0 0"/><path d="m295.742188 208.882812c1.953124 1.953126 4.511718 2.929688 7.070312 2.929688s5.117188-.976562 7.070312-2.929688c3.90625-3.902343 3.90625-10.234374 0-14.140624l-1.8125-1.8125c-3.90625-3.90625-10.238281-3.90625-14.144531 0-3.902343 3.902343-3.902343 10.234374 0 14.140624zm0 0"/><path d="m314.179688 258.820312c1.953124 1.953126 4.511718 2.929688 7.070312 2.929688s5.117188-.976562 7.070312-2.929688l2.25-2.25c3.90625-3.90625 3.90625-10.234374 0-14.140624s-10.234374-3.90625-14.140624 0l-2.25 2.25c-3.90625 3.90625-3.90625 10.234374 0 14.140624zm0 0"/><path d="m305.070312 288.429688c-3.90625-3.90625-10.234374-3.90625-14.140624 0s-3.90625 10.234374 0 14.140624l2 2c1.953124 1.953126 4.511718 2.929688 7.070312 2.929688s5.117188-.976562 7.070312-2.929688c3.90625-3.902343 3.90625-10.234374 0-14.140624zm0 0"/><path d="m256.128906 301c-5.523437 0-10 4.476562-10 10v3c0 5.523438 4.476563 10 10 10 5.519532 0 10-4.476562 10-10v-3c0-5.523438-4.480468-10-10-10zm0 0"/><path d="m214.570312 284.429688c-3.90625-3.90625-10.234374-3.90625-14.140624 0s-3.90625 10.234374 0 14.140624l1.8125 1.816407c1.953124 1.949219 4.511718 2.925781 7.070312 2.925781s5.117188-.976562 7.070312-2.925781c3.90625-3.90625 3.90625-10.238281 0-14.144531zm0 0"/><path d="m188.582031 255.082031c2.558594 0 5.121094-.976562 7.070313-2.929687l3.5-3.5c3.90625-3.902344 3.90625-10.234375 0-14.140625-3.902344-3.90625-10.234375-3.90625-14.140625 0l-3.5 3.5c-3.90625 3.902343-3.90625 10.234375 0 14.140625 1.953125 1.953125 4.511719 2.929687 7.070312 2.929687zm0 0"/></svg>