<svg height="512pt" viewBox="-14 0 512 512" width="512pt" xmlns="http://www.w3.org/2000/svg"><path d="m315.800781 107.882812-15.136719-6.269531c-9.972656-4.128906-16.414062-13.769531-16.414062-24.5625v-5.132812c6.941406-3.359375 11.75-10.453125 11.75-18.667969v-32.5c0-11.441406-9.308594-20.75-20.75-20.75h-66.5c-11.441406 0-20.75 9.308594-20.75 20.75v32.5c0 8.3125 4.925781 15.480469 12 18.789062v5.011719c0 10.792969-6.441406 20.433594-16.414062 24.5625l-15.136719 6.265625c-19.710938 8.164063-32.449219 27.226563-32.449219 48.558594v226.46875c-.039062.359375-.0625.722656-.0625 1.09375s.023438.734375.0625 1.09375v91.324219c0 19.617187 15.964844 35.582031 35.585938 35.582031 12.496093 0 23.507812-6.476562 29.859374-16.246094 9.480469 10 22.886719 16.246094 37.722657 16.246094h5.917969c14.835937 0 28.242187-6.246094 37.722656-16.246094 6.351562 9.769532 17.363281 16.246094 29.859375 16.246094 19.617187 0 35.582031-15.964844 35.582031-35.582031v-319.980469c0-21.332031-12.738281-40.394531-32.449219-48.554688zm-107.800781-87.132812c0-.414062.335938-.75.75-.75h66.5c.414062 0 .75.335938.75.75v32.5c0 .414062-.335938.75-.75.75h-66.5c-.414062 0-.75-.335938-.75-.75zm-52 135.6875c0-13.214844 7.890625-25.023438 20.101562-30.078125l15.136719-6.265625c17.472657-7.238281 28.761719-24.132812 28.761719-43.042969v-3.050781h44.25v3.050781c0 18.910157 11.289062 35.804688 28.765625 43.042969l15.132813 6.265625c12.210937 5.058594 20.101562 16.863281 20.101562 30.078125v17.5625h-102.3125c-5.523438 0-10 4.476562-10 10s4.476562 10 10 10h102.3125v180h-172.25zm156.667969 335.5625c-8.59375 0-15.582031-6.988281-15.582031-15.582031v-16.417969c0-5.523438-4.480469-10-10-10-5.523438 0-10 4.476562-10 10 0 17.644531-14.355469 32-32 32h-5.917969c-17.644531 0-32-14.355469-32-32 0-5.523438-4.476563-10-10-10-5.519531 0-10 4.476562-10 10v16.417969c0 8.59375-6.988281 15.582031-15.585938 15.582031-8.59375 0-15.582031-6.988281-15.582031-15.582031v-82.417969h172.25v82.417969c0 8.59375-6.988281 15.582031-15.582031 15.582031zm0 0"/><path d="m284.933594 262.09375c-.082032-.117188-.167969-.230469-.257813-.347656l-31-39.71875c-2.828125-3.617188-7.082031-5.695313-11.675781-5.695313-4.59375.003907-8.847656 2.078125-11.675781 5.699219l-31.167969 39.953125c-.011719.015625-.023438.03125-.039062.046875-7.777344 9.644531-12.105469 21.769531-12.191407 34.171875-.207031 30.164063 24.148438 55.042969 54.300781 55.457031.261719.003906.519532.007813.785157.007813 14.566406 0 28.273437-5.617188 38.660156-15.863281 10.578125-10.433594 16.402344-24.359376 16.402344-39.214844 0-12.53125-4.304688-24.75-12.140625-34.496094zm-18.304688 59.472656c-6.734375 6.640625-15.628906 10.203125-25.128906 10.097656-19.195312-.265624-34.707031-16.109374-34.574219-35.324218.054688-8.070313 2.777344-15.640625 7.871094-21.886719.097656-.117187.191406-.242187.28125-.363281l26.925781-34.511719 26.5 33.953125c.171875.25.355469.5.554688.738281 5.167968 6.257813 8.015625 14.183594 8.015625 22.320313 0 9.460937-3.710938 18.332031-10.445313 24.976562zm0 0"/><path d="m195.9375 184c0-2.628906-1.066406-5.210938-2.929688-7.070312-1.859374-1.859376-4.4375-2.929688-7.070312-2.929688-2.636719 0-5.207031 1.070312-7.066406 2.929688-1.871094 1.859374-2.933594 4.441406-2.933594 7.070312s1.0625 5.210938 2.933594 7.070312c1.859375 1.859376 4.4375 2.929688 7.066406 2.929688 2.632812 0 5.203125-1.070312 7.070312-2.929688 1.863282-1.859374 2.929688-4.441406 2.929688-7.070312zm0 0"/><path d="m90 94h-16.226562c-5.519532 0-10 4.476562-10 10s4.480468 10 10 10h16.226562c5.523438 0 10-4.476562 10-10s-4.476562-10-10-10zm0 0"/><path d="m25.105469 94h-15.105469c-5.523438 0-10 4.476562-10 10s4.476562 10 10 10h15.105469c5.523437 0 10-4.476562 10-10s-4.476563-10-10-10zm0 0"/><path d="m50 54c-5.523438 0-10 4.476562-10 10v14.632812c0 5.523438 4.476562 10 10 10s10-4.476562 10-10v-14.632812c0-5.523438-4.476562-10-10-10zm0 0"/><path d="m50 122.214844c-5.523438 0-10 4.480468-10 10v11.785156c0 5.523438 4.476562 10 10 10s10-4.476562 10-10v-11.785156c0-5.523438-4.476562-10-10-10zm0 0"/><path d="m474 398h-16.226562c-5.519532 0-10 4.476562-10 10s4.480468 10 10 10h16.226562c5.523438 0 10-4.476562 10-10s-4.476562-10-10-10zm0 0"/><path d="m409.105469 398h-15.105469c-5.523438 0-10 4.476562-10 10s4.476562 10 10 10h15.105469c5.523437 0 10-4.476562 10-10s-4.476563-10-10-10zm0 0"/><path d="m434 358c-5.523438 0-10 4.476562-10 10v14.632812c0 5.523438 4.476562 10 10 10s10-4.476562 10-10v-14.632812c0-5.523438-4.476562-10-10-10zm0 0"/><path d="m434 426.214844c-5.523438 0-10 4.480468-10 10v11.785156c0 5.523438 4.476562 10 10 10s10-4.476562 10-10v-11.785156c0-5.523438-4.476562-10-10-10zm0 0"/></svg>