<svg height="512pt" viewBox="0 0 512 512" width="512pt" xmlns="http://www.w3.org/2000/svg"><path d="m502 52h-274.085938c-22.929687-31.488281-60.066406-52-101.914062-52-69.476562 0-126 56.523438-126 126s56.523438 126 126 126c23.910156 0 47.003906-6.671875 67.089844-19.335938l36.238281 9.710938c3.453125.925781 7.132813-.0625 9.660156-2.589844 2.523438-2.523437 3.511719-6.207031 2.585938-9.65625l-9.625-35.921875c6.617187-10.25 11.652343-21.296875 15.023437-32.855469 5.839844 4.734376 13.273438 7.574219 21.359375 7.574219h139.332031c18.75 0 34-15.25 34-34 0-18.746093-15.25-34-34-34h-139.332031c-6.570312 0-12.710937 1.878907-17.917969 5.125-1.914062-11.996093-5.527343-23.429687-10.585937-34.050781h252.171875v410c0 5.515625-4.484375 10-10 10h-288c-5.515625 0-10-4.484375-10-10v-169.667969c0-5.519531-4.476562-10-10-10s-10 4.480469-10 10v169.667969c0 16.542969 13.457031 30 30 30h288c16.542969 0 30-13.457031 30-30v-420c0-5.523438-4.476562-10-10-10zm-233.667969 68.925781h139.335938c7.71875 0 14 6.28125 14 14 0 7.722657-6.28125 14-14 14h-139.335938c-7.71875 0-14-6.277343-14-14 0-7.71875 6.28125-14 14-14zm-55.410156 65.75c-1.695313 2.421875-2.230469 5.464844-1.464844 8.316407l6.316407 23.582031-23.835938-6.386719c-2.816406-.753906-5.820312-.242188-8.226562 1.402344-17.632813 12.042968-38.277344 18.410156-59.710938 18.410156-58.449219 0-106-47.550781-106-106s47.550781-106 106-106 106 47.550781 106 106c0 21.847656-6.597656 42.828125-19.078125 60.675781zm0 0"/><path d="m256.757812 246.128906c-5.523437 0-10 4.476563-10 10v56.621094c0 15.648438 12.730469 28.378906 28.375 28.378906h7.625v107.09375c0 5.519532 4.476563 10 10 10 5.523438 0 10-4.480468 10-10v-107.09375h7.625c15.644532 0 28.375-12.730468 28.375-28.378906v-56.621094c0-5.523437-4.476562-10-10-10-5.523437 0-10 4.476563-10 10v56.621094c0 4.617188-3.757812 8.378906-8.375 8.378906h-7.625v-65c0-5.523437-4.476562-10-10-10-5.523437 0-10 4.476563-10 10v65h-7.625c-4.617187 0-8.375-3.761718-8.375-8.378906v-56.621094c0-5.523437-4.476562-10-10-10zm0 0"/><path d="m383.550781 448.222656v-54.183594h35.691407c5.523437 0 10-4.480468 10-10v-62.160156c0-33.316406-20.980469-63.507812-52.207032-75.125-3.070312-1.144531-6.503906-.707031-9.191406 1.160156-2.691406 1.871094-4.292969 4.9375-4.292969 8.214844v192.09375c0 5.519532 4.476563 10 10 10 5.519531 0 10-4.480468 10-10zm0-175.625c15.789063 11.097656 25.691407 29.453125 25.691407 49.28125v52.160156h-25.691407zm0 0"/><path d="m124.609375 45.265625c-18.046875-.296875-35.054687 6.585937-47.890625 19.246094-12.839844 12.664062-19.914062 29.570312-19.914062 47.605469 0 15.238281 5.246093 30.101562 14.789062 41.9375.097656.136718.195312.273437.300781.40625l39.105469 50.101562c3.066406 3.929688 7.683594 6.179688 12.664062 6.179688 4.984376 0 9.601563-2.253907 12.667969-6.183594l39.316407-50.394532c.011718-.015624.023437-.027343.035156-.046874 9.46875-11.710938 14.734375-26.449219 14.839844-41.527344.253906-36.617188-29.3125-66.820313-65.914063-67.324219zm35.402344 96.429687c-.097657.121094-.191407.242188-.285157.367188l-35.152343 45.054688c-.003907 0-.003907 0-.003907 0l-.90625 1.164062-35.542968-45.539062c-.1875-.273438-.386719-.542969-.601563-.804688-6.90625-8.359375-10.710937-18.953125-10.710937-29.820312 0-12.640626 4.957031-24.488282 13.957031-33.367188 8.996094-8.871094 20.894531-13.683594 33.566406-13.488281 25.648438.355469 46.371094 21.523437 46.191407 47.1875-.074219 10.785156-3.710938 20.898437-10.511719 29.246093zm0 0"/><path d="m123.667969 82.117188c-16.542969 0-30 13.457031-30 30 0 16.542968 13.457031 30 30 30s30-13.457032 30-30c0-16.542969-13.457031-30-30-30zm0 40c-5.515625 0-10-4.484376-10-10 0-5.515626 4.484375-10 10-10 5.511719 0 10 4.484374 10 10 0 5.515624-4.488281 10-10 10zm0 0"/><path d="m174 282.328125c2.640625 0 5.210938-1.066406 7.070312-2.929687 1.859376-1.859376 2.929688-4.429688 2.929688-7.070313 0-2.628906-1.070312-5.207031-2.929688-7.066406-1.859374-1.863281-4.441406-2.933594-7.070312-2.933594s-5.210938 1.070313-7.070312 2.933594c-1.859376 1.859375-2.929688 4.4375-2.929688 7.066406 0 2.640625 1.070312 5.210937 2.929688 7.070313 1.859374 1.863281 4.429687 2.929687 7.070312 2.929687zm0 0"/></svg>