<svg height="512pt" viewBox="-54 0 512 512" width="512pt" xmlns="http://www.w3.org/2000/svg"><path d="m87.445312 63.304688c-6.601562-6.601563-15.992187-9.378907-25.128906-7.433594-9.113281 1.945312-16.539062 8.296875-19.863281 16.992187-9.929687 25.980469-3.636719 55.480469 16.03125 75.148438 6.128906 6.128906 6.1875 16.046875.128906 22.105469-27.441406 27.4375-27.382812 72.144531.125 99.652343 6.128907 6.128907 6.1875 16.042969.125 22.101563-19.667969 19.671875-25.863281 49.210937-15.785156 75.257812 3.359375 8.675782 10.800781 15.003906 19.90625 16.925782 1.898437.402343 3.8125.597656 5.707031.597656 7.1875 0 14.144532-2.828125 19.351563-8.035156 7.71875-7.722657 10.148437-19.195313 6.195312-29.234376-2.292969-5.808593-.957031-12.375 3.402344-16.734374 27.4375-27.4375 27.382813-72.144532-.128906-99.652344-6.128907-6.128906-6.183594-16.042969-.125-22.101563 13.277343-13.28125 20.574219-30.96875 20.546875-49.816406-.027344-18.835937-7.367188-36.53125-20.671875-49.835937-4.425781-4.425782-5.828125-11.03125-3.574219-16.832032 3.886719-10 1.4375-21.425781-6.242188-29.105468zm10.488282 95.800781c.023437 13.492187-5.195313 26.152343-14.6875 35.644531-13.855469 13.855469-13.800782 36.460938.125 50.386719 19.710937 19.710937 19.769531 51.726562.128906 71.371093-9.992188 9.988282-13.078125 24.984376-7.867188 38.210938 1.03125 2.625.355469 5.667969-1.730468 7.757812-2.570313 2.566407-5.605469 2.257813-6.785156 2.011719-1.183594-.25-4.074219-1.195312-5.382813-4.574219-7.222656-18.667968-2.796875-39.824218 11.273437-53.898437 13.855469-13.855469 13.800782-36.460937-.125-50.386719-19.710937-19.710937-19.769531-51.726562-.125-71.367187 13.855469-13.859375 13.796876-36.460938-.128906-50.390625-14.101562-14.097656-18.609375-35.242188-11.492187-53.867188 1.289062-3.367187 4.171875-4.316406 5.351562-4.570312.375-.078125.933594-.164063 1.597657-.164063 1.460937 0 3.449218.40625 5.21875 2.175781 2.074218 2.078126 2.761718 5.105469 1.746093 7.714844-5.128906 13.191406-1.960937 28.191406 8.070313 38.222656 9.53125 9.53125 14.792968 22.21875 14.8125 35.722657zm0 0"/><path d="m146 270c5.523438 0 10-4.476562 10-10v-182c0-43.011719-34.988281-78-78-78s-78 34.988281-78 78v283.09375c0 39.621094 29.699219 72.410156 68 77.335938v63.570312c0 5.523438 4.476562 10 10 10s10-4.476562 10-10v-63.570312c38.300781-4.925782 68-37.714844 68-77.335938v-21.09375c0-5.523438-4.476562-10-10-10s-10 4.476562-10 10v21.09375c0 31.980469-26.019531 58-58 58s-58-26.019531-58-58v-283.09375c0-31.980469 26.019531-58 58-58s58 26.019531 58 58v182c0 5.523438 4.476562 10 10 10zm0 0"/><path d="m404 226c0-31.023438-17.316406-58.070312-42.792969-72 25.476563-13.929688 42.792969-40.976562 42.792969-72 0-45.214844-36.785156-82-82-82s-82 36.785156-82 82c0 31.023438 17.316406 58.070312 42.792969 72-25.476563 13.929688-42.792969 40.976562-42.792969 72s17.316406 58.070312 42.792969 72c-25.476563 13.929688-42.792969 40.976562-42.792969 72 0 41.828125 31.488281 76.417969 72 81.367188v50.632812c0 5.523438 4.476562 10 10 10s10-4.476562 10-10v-50.632812c40.511719-4.949219 72-39.539063 72-81.367188 0-31.023438-17.316406-58.070312-42.792969-72 25.476563-13.929688 42.792969-40.976562 42.792969-72zm-144-144c0-34.1875 27.8125-62 62-62s62 27.8125 62 62-27.8125 62-62 62-62-27.8125-62-62zm124 288c0 34.1875-27.8125 62-62 62s-62-27.8125-62-62 27.8125-62 62-62 62 27.8125 62 62zm-62-82c-34.1875 0-62-27.8125-62-62s27.8125-62 62-62 62 27.8125 62 62-27.8125 62-62 62zm0 0"/><path d="m146 290c-2.628906 0-5.210938 1.070312-7.070312 2.929688-1.859376 1.859374-2.929688 4.441406-2.929688 7.070312s1.070312 5.210938 2.929688 7.070312c1.859374 1.859376 4.441406 2.929688 7.070312 2.929688s5.210938-1.070312 7.070312-2.929688c1.859376-1.859374 2.929688-4.441406 2.929688-7.070312s-1.070312-5.210938-2.929688-7.070312c-1.859374-1.859376-4.441406-2.929688-7.070312-2.929688zm0 0"/></svg>