<svg height="512pt" viewBox="-33 0 512 512" width="512pt" xmlns="http://www.w3.org/2000/svg"><path d="m434.214844 452.304688h-12.808594c-4.753906-94.957032-76.835938-172.460938-169.363281-185.660157v-7.601562c0-15.460938-12.578125-28.042969-28.042969-28.042969s-28.042969 12.582031-28.042969 28.042969v7.601562c-92.527343 13.199219-164.609375 90.703125-169.363281 185.660157h-12.808594c-5.519531 0-10 4.476562-10 10 0 27.402343 22.296875 49.695312 49.699219 49.695312h341.03125c27.40625 0 49.699219-22.292969 49.699219-49.695312 0-5.523438-4.480469-10-10-10zm-218.257813-193.261719c0-4.433594 3.605469-8.042969 8.042969-8.042969s8.042969 3.609375 8.042969 8.042969v5.777343c-2.667969-.105468-5.347657-.175781-8.042969-.175781s-5.375.070313-8.042969.175781zm8.042969 25.601562c94.605469 0 172.179688 74.328125 177.382812 167.660157h-354.761718c5.199218-93.332032 82.773437-167.660157 177.378906-167.660157zm170.515625 207.355469h-341.03125c-12.871094 0-23.851563-8.226562-27.964844-19.695312h396.960938c-4.113281 11.46875-15.097657 19.695312-27.964844 19.695312zm0 0"/><path d="m268.035156 312.203125c-5.265625-1.667969-10.886718 1.25-12.550781 6.515625-1.667969 5.265625 1.246094 10.882812 6.511719 12.550781 25.84375 8.183594 48.78125 23.300781 66.335937 43.71875 1.976563 2.300781 4.773438 3.480469 7.585938 3.480469 2.308593 0 4.628906-.792969 6.515625-2.417969 4.1875-3.601562 4.664062-9.914062 1.0625-14.101562-19.980469-23.238281-46.074219-40.4375-75.460938-49.746094zm0 0"/><path d="m224.261719 306.261719h-.261719c-5.523438 0-10 4.476562-10 10 0 5.519531 4.476562 10 10 10h.261719c5.523437 0 10-4.480469 10-10 0-5.523438-4.476563-10-10-10zm0 0"/><path d="m398.25 0h-349.75c-26.742188 0-48.5 21.757812-48.5 48.5v91c0 26.742188 21.757812 48.5 48.5 48.5h139.550781l29.140625 29.140625c1.953125 1.953125 4.511719 2.929687 7.074219 2.929687 2.558594 0 5.117187-.976562 7.070313-2.929687l29.140624-29.140625h137.773438c26.742188 0 48.5-21.757812 48.5-48.5v-91c0-26.742188-21.757812-48.5-48.5-48.5zm28.5 139.5c0 15.714844-12.785156 28.5-28.5 28.5h-141.917969c-2.652343 0-5.195312 1.054688-7.070312 2.929688l-25 25-25-25c-1.875-1.875-4.417969-2.929688-7.070313-2.929688h-143.691406c-15.714844 0-28.5-12.785156-28.5-28.5v-91c0-15.714844 12.785156-28.5 28.5-28.5h349.75c15.714844 0 28.5 12.785156 28.5 28.5zm0 0"/><path d="m352 146.699219c1.957031 0 3.914062-.570313 5.605469-1.71875 8.171875-5.53125 48.933593-34.433594 48.933593-60.175781 0-21.011719-16.058593-38.105469-35.800781-38.105469-6.65625 0-13.148437 1.996093-18.738281 5.644531-5.589844-3.648438-12.082031-5.644531-18.742188-5.644531-19.738281 0-35.796874 17.09375-35.796874 38.105469 0 25.742187 40.761718 54.644531 48.929687 60.175781 1.695313 1.148437 3.652344 1.71875 5.609375 1.71875zm-34.539062-61.894531c0-9.980469 7.085937-18.105469 15.796874-18.105469 4.222657 0 8.195313 1.902343 11.191407 5.351562 1.898437 2.1875 4.652343 3.441407 7.550781 3.441407s5.648438-1.257813 7.550781-3.441407c2.996094-3.449219 6.96875-5.351562 11.191407-5.351562 8.710937 0 15.796874 8.125 15.796874 18.105469 0 9.941406-18.957031 28.019531-34.539062 39.621093-15.585938-11.605469-34.539062-29.679687-34.539062-39.621093zm0 0"/><path d="m218.394531 144.980469c1.691407 1.148437 3.648438 1.71875 5.605469 1.71875s3.914062-.570313 5.605469-1.71875c8.171875-5.53125 48.933593-34.433594 48.933593-60.175781 0-21.011719-16.058593-38.105469-35.800781-38.105469-6.65625 0-13.148437 1.996093-18.738281 5.644531-5.589844-3.648438-12.082031-5.644531-18.742188-5.644531-19.738281 0-35.796874 17.09375-35.796874 38.105469 0 25.742187 40.761718 54.644531 48.933593 60.175781zm-13.136719-78.28125c4.222657 0 8.195313 1.902343 11.191407 5.351562 1.898437 2.1875 4.652343 3.441407 7.550781 3.441407s5.648438-1.257813 7.550781-3.441407c2.996094-3.449219 6.96875-5.351562 11.191407-5.351562 8.710937 0 15.796874 8.125 15.796874 18.105469 0 9.941406-18.957031 28.019531-34.539062 39.621093-15.585938-11.605469-34.539062-29.679687-34.539062-39.621093 0-9.980469 7.085937-18.105469 15.796874-18.105469zm0 0"/><path d="m96 52.34375c-5.589844-3.648438-12.082031-5.644531-18.742188-5.644531-19.738281 0-35.796874 17.09375-35.796874 38.105469 0 25.742187 40.761718 54.644531 48.933593 60.175781 1.691407 1.148437 3.648438 1.71875 5.605469 1.71875 1.953125 0 3.914062-.570313 5.605469-1.71875 8.171875-5.53125 48.929687-34.433594 48.929687-60.175781 0-21.011719-16.058594-38.105469-35.796875-38.105469-6.65625 0-13.148437 1.996093-18.738281 5.644531zm34.539062 32.460938c0 9.941406-18.957031 28.019531-34.539062 39.621093-15.585938-11.605469-34.539062-29.679687-34.539062-39.621093 0-9.980469 7.085937-18.105469 15.796874-18.105469 4.222657 0 8.195313 1.902343 11.191407 5.351562 1.898437 2.1875 4.652343 3.441407 7.550781 3.441407s5.648438-1.257813 7.550781-3.441407c2.996094-3.449219 6.96875-5.351562 11.191407-5.351562 8.710937 0 15.796874 8.125 15.796874 18.105469zm0 0"/></svg>