<svg height="512pt" viewBox="0 0 512 512" width="512pt" xmlns="http://www.w3.org/2000/svg"><path d="m502 140h-19.101562l-18.839844-49.554688c-1.472656-3.878906-5.195313-6.445312-9.347656-6.445312h-65.253907l6.5-24h33.710938c5.519531 0 10-4.476562 10-10v-40c0-5.523438-4.480469-10-10-10h-49.285157c-17.863281 0-33.601562 12.039062-38.269531 29.28125l-14.820312 54.71875h-90.003907c-4.152343 0-7.875 2.566406-9.347656 6.445312l-18.839844 49.554688h-19.101562c-5.523438 0-10 4.476562-10 10v48c0 5.523438 4.476562 10 10 10h15.300781l7.273438 52h-136.074219c-42.183594 0-76.5 34.316406-76.5 76.5 0 7.152344 3.214844 13.5625 8.269531 17.875-5.167969 6.492188-8.269531 14.699219-8.269531 23.625 0 9.589844 3.578125 18.351562 9.457031 25.046875-5.792969 5.132813-9.457031 12.621094-9.457031 20.953125v4.417969c0 46.085937 37.496094 83.582031 83.582031 83.582031h133.5c10.726563 0 20.972657-2.050781 30.402344-5.746094 1.597656 3.390625 5.039063 5.746094 9.039063 5.746094h178.949218c4.988282 0 9.214844-3.675781 9.90625-8.613281l6.203125-44.355469c.765625-5.46875-3.050781-10.523438-8.519531-11.289062-5.453125-.769532-10.523438 3.046874-11.289062 8.519531l-4.996094 35.738281h-155.53125c17.984375-15.34375 29.417968-38.144531 29.417968-63.582031v-4.417969c0-8.332031-3.660156-15.820312-9.453124-20.953125 5.878906-6.695313 9.453124-15.457031 9.453124-25.046875 0-8.925781-3.097656-17.132812-8.269531-23.625 5.054688-4.3125 8.269531-10.722656 8.269531-17.875 0-39.25-29.714843-71.671875-67.824218-75.992188l-7.34375-52.507812h241.007812l-3.917968 28h-92.253907c-5.519531 0-10 4.476562-10 10s4.480469 10 10 10h89.457031l-16.921874 120.960938c-.765626 5.46875 3.046874 10.523437 8.519531 11.289062.46875.066406.9375.097656 1.398437.097656 4.90625 0 9.191406-3.617187 9.890625-8.617187l24.023438-171.730469h15.300781c5.523438 0 10-4.476562 10-10v-48c0-5.523438-4.476562-10-10-10zm-221.332031 238c0 9.925781-8.074219 18-18 18h-48.523438l36-36h12.523438c9.925781 0 18 8.074219 18 18zm-113 36.191406-54.191407-54.191406h108.382813zm-82.476563-54.191406 36 36h-83.191406c-9.925781 0-18-8.074219-18-18s8.074219-18 18-18zm195.476563 68.417969c0 35.058593-28.523438 63.582031-63.585938 63.582031h-133.5c-35.058593 0-63.582031-28.523438-63.582031-63.582031v-4.417969c0-4.410156 3.589844-8 8-8h4.332031c.652344 0 1.289063-.066406 1.910157-.1875 1.238281.121094 2.488281.1875 3.757812.1875h103.191406l19.402344 19.402344c1.953125 1.953125 4.511719 2.929687 7.070312 2.929687 2.5625 0 5.121094-.976562 7.074219-2.929687l19.40625-19.402344h68.523438c2.265625 0 4.480469-.210938 6.636719-.59375 1.050781.378906 2.179687.59375 3.363281.59375 4.410156 0 8 3.589844 8 8zm0-91.917969c0 1.929688-1.570313 3.5-3.5 3.5h-253.667969c-1.929688 0-3.5-1.570312-3.5-3.5 0-31.152344 25.347656-56.5 56.5-56.5h147.667969c31.152343 0 56.5 25.347656 56.5 56.5zm80.75-301.988281c2.3125-8.542969 10.113281-14.511719 18.964843-14.511719h39.285157v20h-31.363281c-4.515626 0-8.472657 3.027344-9.652344 7.386719l-9.917969 36.613281h-20.71875zm-117.234375 69.488281h203.632812l13.683594 36h-231zm247.816406 84h-292v-28h292zm0 0"/><path d="m323.261719 238.929688c-1.863281 1.859374-2.933594 4.429687-2.933594 7.070312 0 2.628906 1.070313 5.210938 2.933594 7.070312 1.859375 1.859376 4.4375 2.929688 7.066406 2.929688 2.640625 0 5.210937-1.070312 7.082031-2.929688 1.859375-1.859374 2.917969-4.441406 2.917969-7.070312 0-2.640625-1.058594-5.210938-2.917969-7.070312-1.871094-1.859376-4.441406-2.929688-7.082031-2.929688-2.628906 0-5.207031 1.070312-7.066406 2.929688zm0 0"/><path d="m447.25 408c-2.628906 0-5.210938 1.070312-7.070312 2.929688-1.859376 1.859374-2.929688 4.441406-2.929688 7.070312s1.070312 5.210938 2.929688 7.070312c1.859374 1.859376 4.441406 2.929688 7.070312 2.929688s5.210938-1.070312 7.070312-2.929688c1.859376-1.859374 2.929688-4.441406 2.929688-7.070312s-1.070312-5.210938-2.929688-7.070312c-1.859374-1.859376-4.441406-2.929688-7.070312-2.929688zm0 0"/></svg>