<svg height="512pt" viewBox="-74 0 512 512" width="512pt" xmlns="http://www.w3.org/2000/svg"><path d="m324 438v-374c0-5.523438-4.476562-10-10-10h-264c-5.523438 0-10 4.476562-10 10v32c0 5.523438 4.476562 10 10 10s10-4.476562 10-10v-22h244v354h-244v-251.875c0-5.523438-4.476562-10-10-10s-10 4.476562-10 10v261.875c0 5.523438 4.476562 10 10 10h264c5.523438 0 10-4.476562 10-10zm0 0"/><path d="m50 146c2.628906 0 5.210938-1.070312 7.070312-2.929688 1.859376-1.859374 2.929688-4.441406 2.929688-7.070312s-1.070312-5.210938-2.929688-7.070312c-1.859374-1.859376-4.441406-2.929688-7.070312-2.929688s-5.210938 1.070312-7.070312 2.929688c-1.859376 1.859374-2.929688 4.441406-2.929688 7.070312s1.070312 5.210938 2.929688 7.070312c1.859374 1.859376 4.441406 2.929688 7.070312 2.929688zm0 0"/><path d="m324 0h-284c-22.054688 0-40 17.945312-40 40v432c0 22.054688 17.945312 40 40 40h284c22.054688 0 40-17.945312 40-40v-432c0-22.054688-17.945312-40-40-40zm20 472c0 11.027344-8.972656 20-20 20h-284c-11.027344 0-20-8.972656-20-20v-432c0-11.027344 8.972656-20 20-20h284c11.027344 0 20 8.972656 20 20zm0 0"/><path d="m171.953125 470c0 5.523438 4.476563 10 10 10h.09375c5.523437 0 9.953125-4.476562 9.953125-10s-4.523438-10-10.046875-10-10 4.476562-10 10zm0 0"/><path d="m103.152344 147.667969c-5.519532 0-10 4.476562-10 10v56.625c0 15.644531 12.730468 28.375 28.375 28.375h7.625v101.667969c0 5.519531 4.480468 10 10 10 5.523437 0 10-4.480469 10-10v-101.667969h7.625c15.648437 0 28.375-12.730469 28.375-28.375v-56.625c0-5.523438-4.476563-10-10-10-5.519532 0-10 4.476562-10 10v56.625c0 4.617187-3.757813 8.375-8.375 8.375h-7.625v-65c0-5.523438-4.476563-10-10-10-5.519532 0-10 4.476562-10 10v65h-7.625c-4.617188 0-8.375-3.757813-8.375-8.375v-56.625c0-5.523438-4.476563-10-10-10zm0 0"/><path d="m225.152344 344.332031v-70.519531h16.957031c15.84375 0 28.738281-12.894531 28.738281-28.738281v-21.65625c0-33.316407-20.980468-63.507813-52.207031-75.125-3.074219-1.140625-6.503906-.707031-9.195313 1.160156-2.6875 1.871094-4.292968 4.9375-4.292968 8.214844v186.667969c0 5.519531 4.480468 10 10 10 5.523437 0 10-4.480469 10-10.003907zm0-170.195312c15.789062 11.097656 25.695312 29.453125 25.695312 49.285156v21.652344c0 4.816406-3.921875 8.738281-8.738281 8.738281h-16.957031zm0 0"/></svg>