<svg height="511pt" viewBox="1 1 511 511.99922" width="511pt" xmlns="http://www.w3.org/2000/svg"><path d="m502.5 0c-2.585938 0-4.933594.988281-6.710938 2.597656-.117187.097656-.238281.207032-.363281.332032l-46.925781 46.929687-46.929688-46.929687s-.003906 0-.003906.003906c-.910156-.914063-2-1.660156-3.238281-2.171875-3.738281-1.546875-8.039063-.6914065-10.898437 2.167969l-31.332032 31.328124-31.328125-31.328124c-1.875-1.875-4.417969-2.929688-7.070312-2.929688-2.652344 0-5.195313 1.054688-7.070313 2.929688l-31.328125 31.328124-31.328125-31.328124c-1.878906-1.875-4.421875-2.929688-7.074218-2.929688-2.648438 0-5.191407 1.054688-7.070313 2.929688l-31.328125 31.328124-31.328125-31.328124c-1.878906-1.875-4.421875-2.929688-7.074219-2.929688-2.648437 0-5.191406 1.054688-7.070312 2.929688l-31.328125 31.328124-31.328125-31.328124c-1.875-1.875-4.417969-2.929688-7.070313-2.929688-2.652343 0-5.195312 1.054688-7.070312 2.929688l-31.328125 31.328124-31.332032-31.328124c-2.859374-2.8593755-7.160156-3.714844-10.898437-2.167969-3.734375 1.546875-6.171875 5.195312-6.171875 9.238281v492c0 5.523438 4.476562 10 10 10h492c5.519531 0 10-4.476562 10-10v-492c0-5.523438-4.476562-10-10-10zm-54 74c2.558594 0 5.117188-.976562 7.070312-2.929688l36.929688-36.929687v443.714844l-34-34v-232.210938c0-5.523437-4.480469-10-10-10-5.523438 0-10 4.476563-10 10v232.210938l-34 34v-443.714844l36.929688 36.929687c1.949218 1.953126 4.511718 2.929688 7.070312 2.929688zm0 388.140625 29.855469 29.859375h-59.714844zm-428-428 21.328125 21.332031c1.878906 1.875 4.421875 2.925782 7.074219 2.925782 2.648437 0 5.191406-1.050782 7.070312-2.925782l31.328125-31.332031 31.328125 31.332031c1.875 1.875 4.417969 2.925782 7.070313 2.925782 2.652343 0 5.195312-1.050782 7.070312-2.925782l31.328125-31.332031 31.332032 31.332031c3.90625 3.902344 10.234374 3.902344 14.140624 0l31.328126-31.332031 31.328124 31.332031c1.875 1.875 4.421876 2.925782 7.074219 2.925782 2.648438 0 5.191407-1.050782 7.070313-2.925782l31.328125-31.332031 31.328125 31.332031c1.875 1.875 4.417968 2.925782 7.070312 2.925782s5.195313-1.050782 7.070313-2.925782l21.332031-21.332031v457.859375h-364zm0 0"/><path d="m130.5 174.375h32c5.519531 0 10-4.476562 10-10s-4.480469-10-10-10h-32c-12.132812 0-22-9.867188-22-22s9.867188-22 22-22h144c12.128906 0 22 9.867188 22 22s-9.871094 22-22 22h-32c-5.523438 0-10 4.476562-10 10s4.476562 10 10 10h32c23.15625 0 42-18.839844 42-42s-18.84375-42-42-42h-144c-23.160156 0-42 18.839844-42 42s18.839844 42 42 42zm0 0"/><path d="m346.304688 247.292969c5.519531 0 10-4.476563 10-10 0-5.519531-4.480469-10-10-10h-22c-11.027344 0-20 8.972656-20 20v52c0 11.03125 8.972656 20 20 20h22c5.519531 0 10-4.476563 10-10 0-5.519531-4.480469-10-10-10h-22v-16h22c5.519531 0 10-4.476563 10-10 0-5.519531-4.480469-10-10-10h-22v-16zm0 0"/><path d="m60.449219 247.300781h14v62c0 5.523438 4.480469 10 10 10 5.523437 0 10-4.476562 10-10v-62h14c5.523437 0 10-4.476562 10-10 0-5.523437-4.476563-10-10-10h-48c-5.519531 0-10 4.476563-10 10 0 5.523438 4.476562 10 10 10zm0 0"/><path d="m161.792969 227.292969c-4.167969 0-7.898438 2.585937-9.363281 6.492187l-27 72.003906c-1.9375 5.171876.683593 10.933594 5.855468 12.875 5.171875 1.941407 10.9375-.683593 12.875-5.851562l2.859375-7.632812h29.550781l2.863282 7.632812c1.503906 4.011719 5.3125 6.488281 9.363281 6.488281 1.167969 0 2.351563-.203125 3.507813-.636719 5.171874-1.941406 7.792968-7.703124 5.855468-12.875l-27-72.007812c-1.464844-3.902344-5.195312-6.488281-9.367187-6.488281zm-7.273438 57.886719 7.277344-19.402344 7.273437 19.402344zm0 0"/><path d="m274.679688 229.792969c-3.902344-3.910157-10.230469-3.917969-14.144532-.019531l-19.484375 19.433593v-11.914062c0-5.519531-4.476562-10-10-10-5.523437 0-10 4.480469-10 10v72c0 5.523437 4.476563 10 10 10 5.523438 0 10-4.476563 10-10v-12.015625l19.414063 19.222656c1.945312 1.929688 4.492187 2.894531 7.035156 2.894531 2.574219 0 5.148438-.988281 7.105469-2.964843 3.882812-3.921876 3.855469-10.253907-.070313-14.140626l-29.296875-29.011718 29.421875-29.339844c3.910156-3.902344 3.917969-10.234375.019532-14.144531zm0 0"/><path d="m218.8125 357.144531c-5.304688-1.554687-10.855469 1.484375-12.410156 6.78125l-11.511719 39.273438-11.511719-39.273438c-1.25-4.257812-5.15625-7.1875-9.597656-7.1875-4.4375 0-8.347656 2.929688-9.597656 7.1875l-11.507813 39.269531-11.515625-39.269531c-1.554687-5.300781-7.109375-8.335937-12.40625-6.78125-5.300781 1.554688-8.335937 7.109375-6.785156 12.40625l21.109375 72.007813c1.25 4.257812 5.15625 7.1875 9.597656 7.1875 4.4375 0 8.347657-2.929688 9.59375-7.1875l11.511719-39.269532 11.515625 39.269532c1.246094 4.257812 5.15625 7.1875 9.59375 7.1875 4.441406 0 8.347656-2.929688 9.597656-7.1875l21.105469-72.007813c1.554688-5.296875-1.480469-10.851562-6.78125-12.40625zm0 0"/><path d="m351.753906 358.355469c-4.632812-3.011719-10.824218-1.695313-13.832031 2.933593l-15.019531 23.101563-15.019532-23.101563c-3.011718-4.628906-9.203124-5.945312-13.835937-2.933593-4.628906 3.011719-5.941406 9.203125-2.933594 13.835937l21.785157 33.511719v33.042969c0 5.519531 4.480468 10 10 10 5.523437 0 10-4.480469 10-10v-33.042969l21.789062-33.511719c3.011719-4.632812 1.699219-10.824218-2.933594-13.835937zm0 0"/><path d="m95.058594 363.226562c-1.464844-3.902343-5.195313-6.488281-9.363282-6.488281-4.167968 0-7.898437 2.585938-9.363281 6.488281l-27 72.007813c-1.9375 5.171875.679688 10.933594 5.851563 12.875s10.9375-.683594 12.875-5.851563l2.863281-7.632812h29.550781l2.859375 7.632812c1.507813 4.011719 5.316407 6.492188 9.367188 6.492188 1.164062 0 2.351562-.207031 3.507812-.640625 5.171875-1.941406 7.792969-7.703125 5.851563-12.875zm-16.640625 51.398438 7.277343-19.402344 7.273438 19.402344zm0 0"/><path d="m271.421875 363.101562c-1.460937-3.902343-5.191406-6.488281-9.363281-6.488281-4.167969 0-7.898438 2.585938-9.363282 6.488281l-27 72.007813c-1.9375 5.171875.683594 10.933594 5.855469 12.875 5.171875 1.9375 10.9375-.683594 12.875-5.851563l2.859375-7.632812h29.550782l2.863281 7.632812c1.503906 4.011719 5.3125 6.492188 9.363281 6.492188 1.167969 0 2.355469-.207031 3.507812-.640625 5.171876-1.941406 7.792969-7.703125 5.855469-12.875zm-16.636719 51.398438 7.273438-19.402344 7.277344 19.402344zm0 0"/><path d="m448.5 181.648438c2.628906 0 5.207031-1.070313 7.066406-2.929688 1.859375-1.867188 2.933594-4.4375 2.933594-7.070312 0-2.628907-1.070312-5.207032-2.933594-7.078126-1.859375-1.859374-4.4375-2.921874-7.066406-2.921874-2.632812 0-5.210938 1.0625-7.070312 2.921874-1.859376 1.871094-2.929688 4.441407-2.929688 7.078126 0 2.632812 1.066406 5.210937 2.929688 7.070312 1.859374 1.859375 4.441406 2.929688 7.070312 2.929688zm0 0"/><path d="m209.570312 171.441406c1.859376-1.863281 2.929688-4.429687 2.929688-7.0625 0-2.640625-1.070312-5.210937-2.929688-7.078125-1.859374-1.859375-4.441406-2.929687-7.070312-2.929687s-5.210938 1.070312-7.070312 2.929687c-1.859376 1.859375-2.929688 4.4375-2.929688 7.078125 0 2.632813 1.070312 5.199219 2.929688 7.0625 1.859374 1.867188 4.441406 2.929688 7.070312 2.929688s5.210938-1.0625 7.070312-2.929688zm0 0"/></svg>