<?xml version="1.0" encoding="iso-8859-1"?>
<!-- Generator: Adobe Illustrator 19.0.0, SVG Export Plug-In . SVG Version: 6.00 Build 0)  -->
<svg version="1.1" id="Layer_1" xmlns="http://www.w3.org/2000/svg" xmlns:xlink="http://www.w3.org/1999/xlink" x="0px" y="0px"
	 viewBox="0 0 512 512" style="enable-background:new 0 0 512 512;" xml:space="preserve">
<g>
	<g>
		<g>
			<path d="M410.667,202.667H301.131L266.165,92.8c-1.783-5.615-7.781-8.721-13.395-6.937c-3.017,0.958-5.452,3.207-6.647,6.137
				l-45.28,110.667h-99.509c-5.891-0.004-10.67,4.768-10.674,10.659c-0.002,3.025,1.28,5.908,3.528,7.933l80.907,72.939
				l-35.968,118.709c-1.708,5.638,1.477,11.593,7.115,13.301c3.25,0.985,6.776,0.363,9.493-1.675L256,349.963l100.267,74.571
				c4.725,3.518,11.407,2.541,14.926-2.184c2.023-2.717,2.636-6.233,1.65-9.474L336.907,294.4l80.917-73.109
				c4.395-3.923,4.777-10.666,0.854-15.061C416.642,203.949,413.724,202.651,410.667,202.667z M317.579,283.061
				c-3.061,2.77-4.25,7.057-3.051,11.008l28.533,94.059L262.4,328.139c-3.777-2.807-8.948-2.807-12.725,0l-80.715,60.011
				l28.555-94.24c1.197-3.953,0.004-8.241-3.061-11.008L129.067,224H208c4.335,0.001,8.239-2.622,9.877-6.635l36.875-90.133
				l28.416,89.301c1.396,4.44,5.511,7.462,10.165,7.467h89.6L317.579,283.061z"/>
			<path d="M412.32,0H90.859C39.061,0,0,40.949,0,95.264v321.472C0,471.051,39.061,512,90.859,512H412.32
				c54.027,0,99.68-43.627,99.68-95.264V95.264C512,43.627,466.357,0,412.32,0z M490.667,416.736
				c0,40.075-35.872,73.931-78.347,73.931H90.859c-40.288,0-69.525-31.093-69.525-73.931V95.264
				c0-42.837,29.237-73.931,69.525-73.931H412.32c42.475,0,78.347,33.856,78.347,73.931V416.736z"/>
		</g>
	</g>
</g>
<g>
</g>
<g>
</g>
<g>
</g>
<g>
</g>
<g>
</g>
<g>
</g>
<g>
</g>
<g>
</g>
<g>
</g>
<g>
</g>
<g>
</g>
<g>
</g>
<g>
</g>
<g>
</g>
<g>
</g>
</svg>
