<?xml version="1.0" encoding="iso-8859-1"?>
<!-- Generator: Adobe Illustrator 19.0.0, SVG Export Plug-In . SVG Version: 6.00 Build 0)  -->
<svg version="1.1" id="Layer_1" xmlns="http://www.w3.org/2000/svg" xmlns:xlink="http://www.w3.org/1999/xlink" x="0px" y="0px"
	 viewBox="0 0 512 512" style="enable-background:new 0 0 512 512;" xml:space="preserve">
<g>
	<g>
		<g>
			<path d="M256,0C114.848,0,0,114.848,0,256s114.848,256,256,256s256-114.848,256-256S397.152,0,256,0z M256,490.667
				C126.603,490.667,21.333,385.397,21.333,256S126.603,21.333,256,21.333S490.667,126.603,490.667,256S385.397,490.667,256,490.667
				z"/>
			<path d="M384,245.333H277.195l58.251-94.539c2.844-5.159,0.968-11.647-4.191-14.491c-4.805-2.649-10.836-1.221-13.942,3.302
				l-59.179,96.064l-59.307-96.117c-3.31-4.873-9.944-6.141-14.817-2.831c-4.577,3.109-6.018,9.202-3.316,14.031l58.24,94.581H128
				c-5.891,0-10.667,4.776-10.667,10.667c0,5.891,4.776,10.667,10.667,10.667h110.987l-58.251,94.539
				c-2.844,5.159-0.968,11.647,4.191,14.491c4.805,2.649,10.836,1.221,13.942-3.302l59.264-96.064l59.264,96.117
				c3.31,4.873,9.944,6.141,14.817,2.831c4.577-3.109,6.018-9.202,3.316-14.031l-58.325-94.581H384
				c5.891,0,10.667-4.776,10.667-10.667C394.667,250.109,389.891,245.333,384,245.333z"/>
		</g>
	</g>
</g>
<g>
</g>
<g>
</g>
<g>
</g>
<g>
</g>
<g>
</g>
<g>
</g>
<g>
</g>
<g>
</g>
<g>
</g>
<g>
</g>
<g>
</g>
<g>
</g>
<g>
</g>
<g>
</g>
<g>
</g>
</svg>
