<?xml version="1.0" encoding="iso-8859-1"?>
<!-- Generator: Adobe Illustrator 19.0.0, SVG Export Plug-In . SVG Version: 6.00 Build 0)  -->
<svg version="1.1" id="Layer_1" xmlns="http://www.w3.org/2000/svg" xmlns:xlink="http://www.w3.org/1999/xlink" x="0px" y="0px"
	 viewBox="0 0 512.356 512.356" style="enable-background:new 0 0 512.356 512.356;" xml:space="preserve">
<g>
	<g>
		<path d="M507.885,2.192c-4.8-3.413-11.413-2.347-14.933,2.347c0,0,0,0,0,0.107l-344.64,480.427L18.605,355.258
			c-3.947-4.373-10.667-4.8-15.04-0.853c-4.373,3.947-4.8,10.667-0.853,15.04c0.213,0.32,0.533,0.533,0.853,0.853l138.667,138.667
			c2.027,2.027,4.693,3.2,7.573,3.2h0.853c3.093-0.213,5.973-1.92,7.787-4.373l352-490.667
			C513.752,12.325,512.685,5.605,507.885,2.192z"/>
	</g>
</g>
<g>
</g>
<g>
</g>
<g>
</g>
<g>
</g>
<g>
</g>
<g>
</g>
<g>
</g>
<g>
</g>
<g>
</g>
<g>
</g>
<g>
</g>
<g>
</g>
<g>
</g>
<g>
</g>
<g>
</g>
</svg>
