<?xml version="1.0" encoding="iso-8859-1"?>
<!-- Generator: Adobe Illustrator 19.0.0, SVG Export Plug-In . SVG Version: 6.00 Build 0)  -->
<svg version="1.1" id="Layer_1" xmlns="http://www.w3.org/2000/svg" xmlns:xlink="http://www.w3.org/1999/xlink" x="0px" y="0px"
	 viewBox="0 0 512 512" style="enable-background:new 0 0 512 512;" xml:space="preserve">
<g>
	<g>
		<g>
			<path d="M141.792,284.875l53.333,53.333c4.064,4.062,10.614,4.175,14.816,0.256l160-149.333
				c4.215-4.115,4.296-10.869,0.181-15.084c-3.984-4.081-10.473-4.306-14.73-0.511L202.923,315.84l-46.048-46.048
				c-4.093-4.237-10.845-4.355-15.083-0.262s-4.355,10.845-0.262,15.083C141.616,284.701,141.703,284.789,141.792,284.875z"/>
			<path d="M501.333,0H10.667C4.776,0,0,4.776,0,10.667v490.667C0,507.224,4.776,512,10.667,512h490.667
				c5.891,0,10.667-4.776,10.667-10.667V10.667C512,4.776,507.224,0,501.333,0z M490.667,490.667H21.333V21.333h469.333V490.667z"/>
		</g>
	</g>
</g>
<g>
</g>
<g>
</g>
<g>
</g>
<g>
</g>
<g>
</g>
<g>
</g>
<g>
</g>
<g>
</g>
<g>
</g>
<g>
</g>
<g>
</g>
<g>
</g>
<g>
</g>
<g>
</g>
<g>
</g>
</svg>
