<?xml version="1.0" encoding="iso-8859-1"?>
<!-- Generator: Adobe Illustrator 19.0.0, SVG Export Plug-In . SVG Version: 6.00 Build 0)  -->
<svg version="1.1" id="Layer_1" xmlns="http://www.w3.org/2000/svg" xmlns:xlink="http://www.w3.org/1999/xlink" x="0px" y="0px"
	 viewBox="0 0 511.656 511.656" style="enable-background:new 0 0 511.656 511.656;" xml:space="preserve">
<g>
	<g>
		<g>
			<path d="M508.688,493.641l-195.2-195.093h123.627c5.867,0,10.667-4.8,10.667-10.667c0-5.867-4.8-10.667-10.667-10.667H287.781
				c-5.867,0-10.667,4.8-10.667,10.667v149.333c0,5.867,4.8,10.667,10.667,10.667c5.867,0,10.667-4.8,10.667-10.667V313.588
				l195.093,195.093c4.267,4.053,10.987,3.947,15.04-0.213C512.634,504.308,512.634,497.801,508.688,493.641z"/>
			<path d="M223.781,63.881c-5.867,0-10.667,4.8-10.667,10.667v123.627L18.021,2.974C13.754-1.079,7.034-0.972,2.981,3.188
				c-3.947,4.16-3.947,10.667,0,14.827l195.093,195.2H74.448c-5.867,0-10.667,4.8-10.667,10.667c0,5.867,4.8,10.667,10.667,10.667
				h149.333c5.867,0,10.667-4.8,10.667-10.667V74.548C234.448,68.681,229.648,63.881,223.781,63.881z"/>
		</g>
	</g>
</g>
<g>
</g>
<g>
</g>
<g>
</g>
<g>
</g>
<g>
</g>
<g>
</g>
<g>
</g>
<g>
</g>
<g>
</g>
<g>
</g>
<g>
</g>
<g>
</g>
<g>
</g>
<g>
</g>
<g>
</g>
</svg>
