<?xml version="1.0" encoding="iso-8859-1"?>
<!-- Generator: Adobe Illustrator 19.0.0, SVG Export Plug-In . SVG Version: 6.00 Build 0)  -->
<svg version="1.1" id="Layer_1" xmlns="http://www.w3.org/2000/svg" xmlns:xlink="http://www.w3.org/1999/xlink" x="0px" y="0px"
	 viewBox="0 0 512 512" style="enable-background:new 0 0 512 512;" xml:space="preserve">
<g>
	<g>
		<g>
			<path d="M181.333,240c26.51,0,48-21.49,48-48c0-26.51-21.49-48-48-48c-26.51,0-48,21.49-48,48
				C133.333,218.51,154.824,240,181.333,240z M181.333,165.333C196.061,165.333,208,177.272,208,192s-11.939,26.667-26.667,26.667
				c-14.728,0-26.667-11.939-26.667-26.667S166.606,165.333,181.333,165.333z"/>
			<path d="M157.792,354.208c4.165,4.164,10.917,4.164,15.083,0l170.667-170.667c4.093-4.237,3.976-10.99-0.262-15.083
				c-4.134-3.993-10.687-3.993-14.821,0L157.792,339.125C153.628,343.291,153.628,350.043,157.792,354.208z"/>
			<path d="M277.333,325.333c0,26.51,21.49,48,48,48c26.51,0,48-21.49,48-48c0-26.51-21.49-48-48-48
				C298.824,277.333,277.333,298.824,277.333,325.333z M352,325.333C352,340.061,340.061,352,325.333,352
				s-26.667-11.939-26.667-26.667s11.939-26.667,26.667-26.667S352,310.606,352,325.333z"/>
			<path d="M501.333,0H10.667C4.776,0,0,4.776,0,10.667v490.667C0,507.224,4.776,512,10.667,512h490.667
				c5.891,0,10.667-4.776,10.667-10.667V10.667C512,4.776,507.224,0,501.333,0z M490.667,490.667H21.333V21.333h469.333V490.667z"/>
		</g>
	</g>
</g>
<g>
</g>
<g>
</g>
<g>
</g>
<g>
</g>
<g>
</g>
<g>
</g>
<g>
</g>
<g>
</g>
<g>
</g>
<g>
</g>
<g>
</g>
<g>
</g>
<g>
</g>
<g>
</g>
<g>
</g>
</svg>
