<?xml version="1.0" encoding="iso-8859-1"?>
<!-- Generator: Adobe Illustrator 19.0.0, SVG Export Plug-In . SVG Version: 6.00 Build 0)  -->
<svg version="1.1" id="Layer_1" xmlns="http://www.w3.org/2000/svg" xmlns:xlink="http://www.w3.org/1999/xlink" x="0px" y="0px"
	 viewBox="0 0 512 512" style="enable-background:new 0 0 512 512;" xml:space="preserve">
<g>
	<g>
		<g>
			<path d="M508.875,53.888L458.112,3.125c-4.165-4.164-10.917-4.164-15.083,0L3.125,443.029c-4.164,4.165-4.164,10.917,0,15.083
				l50.763,50.763c4.165,4.164,10.917,4.164,15.083,0L508.875,68.971C513.039,64.805,513.039,58.053,508.875,53.888z
				 M61.429,486.251l-35.68-35.68L450.571,25.749l35.68,35.68L61.429,486.251z"/>
			<path d="M96,192c53.019,0,96-42.981,96-96S149.019,0,96,0S0,42.981,0,96C0.059,148.995,43.005,191.941,96,192z M96,21.333
				c41.237,0,74.667,33.429,74.667,74.667S137.237,170.667,96,170.667S21.333,137.237,21.333,96
				C21.38,54.782,54.782,21.38,96,21.333z"/>
			<path d="M416,320c-53.019,0-96,42.981-96,96c0,53.019,42.981,96,96,96c53.019,0,96-42.981,96-96
				C511.941,363.005,468.995,320.059,416,320z M416,490.667c-41.237,0-74.667-33.429-74.667-74.667
				c0-41.237,33.429-74.667,74.667-74.667c41.237,0,74.667,33.429,74.667,74.667C490.62,457.218,457.218,490.62,416,490.667z"/>
		</g>
	</g>
</g>
<g>
</g>
<g>
</g>
<g>
</g>
<g>
</g>
<g>
</g>
<g>
</g>
<g>
</g>
<g>
</g>
<g>
</g>
<g>
</g>
<g>
</g>
<g>
</g>
<g>
</g>
<g>
</g>
<g>
</g>
</svg>
