<?xml version="1.0" encoding="iso-8859-1"?>
<!-- Generator: Adobe Illustrator 19.0.0, SVG Export Plug-In . SVG Version: 6.00 Build 0)  -->
<svg version="1.1" id="Layer_1" xmlns="http://www.w3.org/2000/svg" xmlns:xlink="http://www.w3.org/1999/xlink" x="0px" y="0px"
	 viewBox="0 0 512 512" style="enable-background:new 0 0 512 512;" xml:space="preserve">
<g>
	<g>
		<path d="M256,0C114.848,0,0,114.848,0,256s114.848,256,256,256s256-114.848,256-256S397.152,0,256,0z M256,490.667
			C126.603,490.667,21.333,385.397,21.333,256S126.603,21.333,256,21.333S490.667,126.603,490.667,256S385.397,490.667,256,490.667z
			"/>
	</g>
</g>
<g>
	<g>
		<path d="M352,288H160c-5.891,0-10.667,4.776-10.667,10.667v32c0,5.891,4.776,10.667,10.667,10.667h192
			c5.891,0,10.667-4.776,10.667-10.667v-32C362.667,292.776,357.891,288,352,288z M341.333,320H170.667v-10.667h170.667V320z"/>
	</g>
</g>
<g>
	<g>
		<path d="M359.925,238.197l-96-106.667c-4.211-4.377-11.173-4.512-15.55-0.301c-0.102,0.098-0.203,0.199-0.301,0.301l-96,106.667
			c-3.941,4.379-3.586,11.123,0.792,15.064c1.958,1.762,4.499,2.738,7.133,2.739h192c5.891-0.002,10.665-4.778,10.664-10.669
			C362.663,242.696,361.688,240.155,359.925,238.197z M183.947,234.667l72.053-80l72.053,80H183.947z"/>
	</g>
</g>
<g>
</g>
<g>
</g>
<g>
</g>
<g>
</g>
<g>
</g>
<g>
</g>
<g>
</g>
<g>
</g>
<g>
</g>
<g>
</g>
<g>
</g>
<g>
</g>
<g>
</g>
<g>
</g>
<g>
</g>
</svg>
