<?xml version="1.0" encoding="iso-8859-1"?>
<!-- Generator: Adobe Illustrator 19.0.0, SVG Export Plug-In . SVG Version: 6.00 Build 0)  -->
<svg version="1.1" id="Layer_1" xmlns="http://www.w3.org/2000/svg" xmlns:xlink="http://www.w3.org/1999/xlink" x="0px" y="0px"
	 viewBox="0 0 490.72 490.72" style="enable-background:new 0 0 490.72 490.72;" xml:space="preserve">
<g>
	<g>
		<path d="M490.587,243.76c-0.747-5.227-5.547-9.067-10.88-9.067h-223.68V36.4l45.76,45.76c4.267,4.053,10.987,3.947,15.04-0.213
			c3.947-4.16,3.947-10.667,0-14.827l-64-64c-4.16-4.16-10.88-4.16-15.04,0l-64,64c-4.053,4.267-3.947,10.987,0.213,15.04
			c4.16,3.947,10.667,3.947,14.827,0l45.867-45.76v198.293H11.013c-5.333,0-10.133,3.84-10.88,9.067
			c-0.96,6.613,4.16,12.267,10.56,12.267h224V454.32l-45.76-45.76c-4.267-4.053-10.987-3.947-15.04,0.213
			c-3.947,4.16-3.947,10.667,0,14.827l64,64c4.16,4.16,10.88,4.16,15.04,0l64-64c4.053-4.267,3.947-10.987-0.213-15.04
			c-4.16-3.947-10.667-3.947-14.827,0l-45.867,45.76V256.027h224C486.427,256.027,491.547,250.373,490.587,243.76z"/>
	</g>
</g>
<g>
</g>
<g>
</g>
<g>
</g>
<g>
</g>
<g>
</g>
<g>
</g>
<g>
</g>
<g>
</g>
<g>
</g>
<g>
</g>
<g>
</g>
<g>
</g>
<g>
</g>
<g>
</g>
<g>
</g>
</svg>
