<?xml version="1.0" encoding="iso-8859-1"?>
<!-- Generator: Adobe Illustrator 19.0.0, SVG Export Plug-In . SVG Version: 6.00 Build 0)  -->
<svg version="1.1" id="Layer_1" xmlns="http://www.w3.org/2000/svg" xmlns:xlink="http://www.w3.org/1999/xlink" x="0px" y="0px"
	 viewBox="0 0 490.72 490.72" style="enable-background:new 0 0 490.72 490.72;" xml:space="preserve">
<g>
	<g>
		<g>
			<path d="M480.027,288.027H10.693c-5.867,0-10.667,4.8-10.667,10.667c0,5.867,4.8,10.667,10.667,10.667h213.333v144.96
				l-45.76-45.76c-4.267-4.053-10.987-3.947-15.04,0.213c-3.947,4.16-3.947,10.667,0,14.827l64,64c4.16,4.16,10.88,4.16,15.04,0
				l64-64c4.053-4.267,3.947-10.987-0.213-15.04c-4.16-3.947-10.667-3.947-14.827,0l-45.867,45.76V309.36h234.667
				c5.867,0,10.667-4.8,10.667-10.667C490.693,292.827,485.893,288.027,480.027,288.027z"/>
			<path d="M10.693,224.027h469.333c5.867,0,10.667-4.8,10.667-10.667c0-5.867-4.8-10.667-10.667-10.667H245.36V36.4l45.76,45.76
				c4.267,4.053,10.987,3.947,15.04-0.213c3.947-4.16,3.947-10.667,0-14.827l-64-64c-4.16-4.16-10.88-4.16-15.04,0l-64,64
				c-4.053,4.267-3.947,10.987,0.213,15.04c4.16,3.947,10.667,3.947,14.827,0l45.867-45.76v166.293H10.693
				c-5.867,0-10.667,4.8-10.667,10.667C0.027,219.227,4.827,224.027,10.693,224.027z"/>
		</g>
	</g>
</g>
<g>
</g>
<g>
</g>
<g>
</g>
<g>
</g>
<g>
</g>
<g>
</g>
<g>
</g>
<g>
</g>
<g>
</g>
<g>
</g>
<g>
</g>
<g>
</g>
<g>
</g>
<g>
</g>
<g>
</g>
</svg>
