<?xml version="1.0" encoding="iso-8859-1"?>
<!-- Generator: Adobe Illustrator 19.0.0, SVG Export Plug-In . SVG Version: 6.00 Build 0)  -->
<svg version="1.1" id="Layer_1" xmlns="http://www.w3.org/2000/svg" xmlns:xlink="http://www.w3.org/1999/xlink" x="0px" y="0px"
	 viewBox="0 0 490.72 490.72" style="enable-background:new 0 0 490.72 490.72;" xml:space="preserve">
<g>
	<g>
		<g>
			<path d="M202.693,0.027c-5.867,0-10.667,4.8-10.667,10.667V245.36H36.4l45.76-45.76c4.053-4.267,3.947-10.987-0.213-15.04
				c-4.16-3.947-10.667-3.947-14.827,0l-64,64c-4.16,4.16-4.16,10.88,0,15.04l64,64c4.267,4.053,10.987,3.947,15.04-0.213
				c3.947-4.16,3.947-10.667,0-14.827L36.4,266.693h155.627v213.333c0,5.867,4.8,10.667,10.667,10.667
				c5.867,0,10.667-4.8,10.667-10.667V10.693C213.36,4.827,208.56,0.027,202.693,0.027z"/>
			<path d="M487.6,248.453l-64-64c-4.267-4.053-10.987-3.947-15.04,0.213c-3.947,4.16-3.947,10.667,0,14.827l45.76,45.76H298.693
				V10.693c0-5.867-4.8-10.667-10.667-10.667c-5.867,0-10.667,4.8-10.667,10.667v469.333c0,5.867,4.8,10.667,10.667,10.667
				c5.867,0,10.667-4.8,10.667-10.667V266.693H454.32l-45.76,45.76c-4.267,4.053-4.373,10.88-0.213,15.04
				c4.053,4.267,10.88,4.373,15.04,0.213c0.107-0.107,0.213-0.213,0.213-0.213l64-64C491.76,259.44,491.76,252.613,487.6,248.453z"
				/>
		</g>
	</g>
</g>
<g>
</g>
<g>
</g>
<g>
</g>
<g>
</g>
<g>
</g>
<g>
</g>
<g>
</g>
<g>
</g>
<g>
</g>
<g>
</g>
<g>
</g>
<g>
</g>
<g>
</g>
<g>
</g>
<g>
</g>
</svg>
