<?xml version="1.0" encoding="iso-8859-1"?>
<!-- Generator: Adobe Illustrator 19.0.0, SVG Export Plug-In . SVG Version: 6.00 Build 0)  -->
<svg version="1.1" id="Layer_1" xmlns="http://www.w3.org/2000/svg" xmlns:xlink="http://www.w3.org/1999/xlink" x="0px" y="0px"
	 viewBox="0 0 512 512" style="enable-background:new 0 0 512 512;" xml:space="preserve">
<g>
	<g>
		<g>
			<path d="M256,0C114.848,0,0,114.848,0,256s114.848,256,256,256s256-114.848,256-256S397.152,0,256,0z M256,490.667
				C126.603,490.667,21.333,385.397,21.333,256S126.603,21.333,256,21.333S490.667,126.603,490.667,256S385.397,490.667,256,490.667
				z"/>
			<path d="M405.333,245.333H132.416l99.125-99.125c4.093-4.237,3.975-10.99-0.262-15.083c-4.134-3.992-10.687-3.992-14.82,0
				L99.125,248.459c-4.171,4.16-4.179,10.914-0.019,15.085c0.006,0.006,0.013,0.013,0.019,0.019l117.333,117.333
				c4.237,4.093,10.99,3.976,15.083-0.262c3.993-4.134,3.993-10.687,0-14.821l-99.125-99.147h272.917
				c5.891,0,10.667-4.776,10.667-10.667C416,250.109,411.224,245.333,405.333,245.333z"/>
		</g>
	</g>
</g>
<g>
</g>
<g>
</g>
<g>
</g>
<g>
</g>
<g>
</g>
<g>
</g>
<g>
</g>
<g>
</g>
<g>
</g>
<g>
</g>
<g>
</g>
<g>
</g>
<g>
</g>
<g>
</g>
<g>
</g>
</svg>
