<?xml version="1.0" encoding="iso-8859-1"?>
<!-- Generator: Adobe Illustrator 19.0.0, SVG Export Plug-In . SVG Version: 6.00 Build 0)  -->
<svg version="1.1" id="Layer_1" xmlns="http://www.w3.org/2000/svg" xmlns:xlink="http://www.w3.org/1999/xlink" x="0px" y="0px"
	 viewBox="0 0 512.053 512.053" style="enable-background:new 0 0 512.053 512.053;" xml:space="preserve">
<g>
	<g>
		<path d="M367.12,256.027L508.88,114.16c4.16-4.16,4.16-10.88,0-15.04l-96-96c-4.16-4.16-10.88-4.16-15.04,0L256.08,144.88
			L114.32,3.12c-4.16-4.16-10.987-4.16-15.147,0l-96,96c-4.16,4.16-4.16,10.88,0,15.04L145.04,256.027L3.173,397.787
			c-4.16,4.16-4.16,10.88,0,15.04l96,96c4.16,4.16,10.88,4.16,15.04,0l141.867-141.76l141.76,141.867c4.16,4.16,10.88,4.16,15.04,0
			l96-96c4.16-4.16,4.16-10.88,0-15.04L367.12,256.027z M405.413,486.32l-141.76-141.867c-4.16-4.16-10.88-4.16-15.04,0
			L106.747,486.32l-80.96-80.96l141.76-141.76c4.16-4.16,4.16-10.88,0-15.04L25.787,106.693l80.96-80.96l141.76,141.76
			c4.16,4.16,10.88,4.16,15.04,0l141.867-141.76l80.96,80.96l-141.867,141.76c-4.16,4.16-4.16,10.88,0,15.04L486.373,405.36
			L405.413,486.32z"/>
	</g>
</g>
<g>
</g>
<g>
</g>
<g>
</g>
<g>
</g>
<g>
</g>
<g>
</g>
<g>
</g>
<g>
</g>
<g>
</g>
<g>
</g>
<g>
</g>
<g>
</g>
<g>
</g>
<g>
</g>
<g>
</g>
</svg>
