<?xml version="1.0" encoding="iso-8859-1"?>
<!-- Generator: Adobe Illustrator 19.0.0, SVG Export Plug-In . SVG Version: 6.00 Build 0)  -->
<svg version="1.1" id="Layer_1" xmlns="http://www.w3.org/2000/svg" xmlns:xlink="http://www.w3.org/1999/xlink" x="0px" y="0px"
	 viewBox="0 0 512 512" style="enable-background:new 0 0 512 512;" xml:space="preserve">
<g>
	<g>
		<g>
			<path d="M256,0C114.88,0,0,114.88,0,256s114.88,256,256,256s256-114.88,256-256S397.12,0,256,0z M256,490.667
				c-129.387,0-234.667-105.28-234.667-234.667S126.613,21.333,256,21.333S490.667,126.613,490.667,256S385.387,490.667,256,490.667
				z"/>
			<path d="M401.92,227.2l-74.453-74.453c-4.267-4.053-10.987-3.947-15.04,0.213c-3.947,4.16-3.947,10.667,0,14.72l56.213,56.213
				H178.987c-21.12,0-37.227,7.04-47.787,20.8c-8.64,11.307-13.013,26.453-13.013,45.227c0,36.053,20.16,93.44,44.053,93.44
				c5.867,0,10.667-4.8,10.56-10.667c0-5.333-4.053-9.92-9.387-10.56c-9.067-5.653-30.72-53.973-22.187-89.28
				c4.48-18.667,16.853-27.627,37.76-27.627h189.76l-56.213,56.32c-4.267,4.053-4.373,10.773-0.213,15.04
				c4.053,4.267,10.773,4.373,15.04,0.213c0.107-0.107,0.213-0.213,0.213-0.213l74.453-74.453c2.987-2.987,3.84-7.573,2.24-11.52
				C403.733,229.333,402.987,228.16,401.92,227.2z"/>
		</g>
	</g>
</g>
<g>
</g>
<g>
</g>
<g>
</g>
<g>
</g>
<g>
</g>
<g>
</g>
<g>
</g>
<g>
</g>
<g>
</g>
<g>
</g>
<g>
</g>
<g>
</g>
<g>
</g>
<g>
</g>
<g>
</g>
</svg>
