<?xml version="1.0" encoding="iso-8859-1"?>
<!-- Generator: Adobe Illustrator 19.0.0, SVG Export Plug-In . SVG Version: 6.00 Build 0)  -->
<svg version="1.1" id="Layer_1" xmlns="http://www.w3.org/2000/svg" xmlns:xlink="http://www.w3.org/1999/xlink" x="0px" y="0px"
	 viewBox="0 0 512 512" style="enable-background:new 0 0 512 512;" xml:space="preserve">
<g>
	<g>
		<g>
			<path d="M256,0C114.848,0,0,114.848,0,256s114.848,256,256,256s256-114.848,256-256S397.152,0,256,0z M256,490.667
				C126.603,490.667,21.333,385.397,21.333,256S126.603,21.333,256,21.333S490.667,126.603,490.667,256S385.397,490.667,256,490.667
				z"/>
			<path d="M352,149.333h-32c-5.891,0-10.667,4.776-10.667,10.667v192c0,5.891,4.776,10.667,10.667,10.667h32
				c5.891,0,10.667-4.776,10.667-10.667V160C362.667,154.109,357.891,149.333,352,149.333z M341.333,341.333h-10.667V170.667h10.667
				V341.333z"/>
			<path d="M273.803,248.075l-106.667-96c-4.379-3.941-11.123-3.586-15.064,0.792c-1.762,1.958-2.738,4.499-2.739,7.133v192
				c0.002,5.891,4.778,10.665,10.669,10.664c2.634-0.001,5.175-0.976,7.133-2.739l106.667-96c4.377-3.943,4.729-10.687,0.786-15.064
				C274.341,248.585,274.078,248.323,273.803,248.075z M170.667,328.075V183.947l80,72.053L170.667,328.075z"/>
		</g>
	</g>
</g>
<g>
</g>
<g>
</g>
<g>
</g>
<g>
</g>
<g>
</g>
<g>
</g>
<g>
</g>
<g>
</g>
<g>
</g>
<g>
</g>
<g>
</g>
<g>
</g>
<g>
</g>
<g>
</g>
<g>
</g>
</svg>
