<?xml version="1.0" encoding="iso-8859-1"?>
<!-- Generator: Adobe Illustrator 19.0.0, SVG Export Plug-In . SVG Version: 6.00 Build 0)  -->
<svg version="1.1" id="Layer_1" xmlns="http://www.w3.org/2000/svg" xmlns:xlink="http://www.w3.org/1999/xlink" x="0px" y="0px"
	 viewBox="0 0 512 512" style="enable-background:new 0 0 512 512;" xml:space="preserve">
<g>
	<g>
		<path d="M256,0C114.848,0,0,114.848,0,256s114.848,256,256,256s256-114.848,256-256S397.152,0,256,0z M256,490.667
			C126.603,490.667,21.333,385.397,21.333,256S126.603,21.333,256,21.333S490.667,126.603,490.667,256S385.397,490.667,256,490.667z
			"/>
	</g>
</g>
<g>
	<g>
		<path d="M434.283,227.115L316.875,109.781c-4.166-4.165-10.92-4.164-15.085,0.002c-2.002,2.002-3.125,4.718-3.123,7.55v53.333
			H181.248c-70.827,0-96.053,60.8-96.053,117.739c0,51.819,32.651,99.648,34.037,101.653c1.989,2.882,5.266,4.604,8.768,4.608
			c5.891,0,10.667-4.776,10.667-10.667v-42.901c0-15.765,5.056-31.765,42.581-31.765h117.419v53.333
			c-0.001,5.891,4.774,10.667,10.666,10.668c2.99,0,5.842-1.254,7.862-3.457l117.408-128
			C438.47,237.666,438.329,231.155,434.283,227.115z M320,335.264v-36.597c0-5.891-4.776-10.667-10.667-10.667H181.248
			c-52.032,0-63.573,28.021-63.904,52c-5.877-15.093-10.816-33.227-10.816-51.595c0-28.981,7.285-96.405,74.72-96.405h128.085
			c5.891,0,10.667-4.776,10.667-10.667v-38.261l91.979,91.915L320,335.264z"/>
	</g>
</g>
<g>
</g>
<g>
</g>
<g>
</g>
<g>
</g>
<g>
</g>
<g>
</g>
<g>
</g>
<g>
</g>
<g>
</g>
<g>
</g>
<g>
</g>
<g>
</g>
<g>
</g>
<g>
</g>
<g>
</g>
</svg>
