<?xml version="1.0" encoding="iso-8859-1"?>
<!-- Generator: Adobe Illustrator 19.0.0, SVG Export Plug-In . SVG Version: 6.00 Build 0)  -->
<svg version="1.1" id="Layer_1" xmlns="http://www.w3.org/2000/svg" xmlns:xlink="http://www.w3.org/1999/xlink" x="0px" y="0px"
	 viewBox="0 0 512 512" style="enable-background:new 0 0 512 512;" xml:space="preserve">
<g>
	<g>
		<g>
			<path d="M223.349,206.357L37.333,21.333h112c5.891,0,10.667-4.776,10.667-10.667C160,4.776,155.224,0,149.333,0H10.667
				C4.776,0,0,4.776,0,10.667v138.667C0,155.224,4.776,160,10.667,160c5.891,0,10.667-4.776,10.667-10.667V35.488l186.976,185.995
				c4.106,4.225,10.859,4.321,15.083,0.216c4.225-4.106,4.321-10.859,0.216-15.083C223.523,206.528,223.437,206.442,223.349,206.357
				z"/>
			<path d="M501.333,352c-5.891,0-10.667,4.776-10.667,10.667v109.589l-182.72-181.739c-4.106-4.225-10.859-4.322-15.083-0.216
				c-4.225,4.105-4.322,10.859-0.216,15.083c0.085,0.087,0.171,0.173,0.259,0.258l186.027,185.024H362.667
				c-5.891,0-10.667,4.776-10.667,10.667S356.776,512,362.667,512h138.667c5.891,0,10.667-4.776,10.667-10.667V362.667
				C512,356.776,507.224,352,501.333,352z"/>
		</g>
	</g>
</g>
<g>
</g>
<g>
</g>
<g>
</g>
<g>
</g>
<g>
</g>
<g>
</g>
<g>
</g>
<g>
</g>
<g>
</g>
<g>
</g>
<g>
</g>
<g>
</g>
<g>
</g>
<g>
</g>
<g>
</g>
</svg>
