<?xml version="1.0" encoding="iso-8859-1"?>
<!-- Generator: Adobe Illustrator 19.0.0, SVG Export Plug-In . SVG Version: 6.00 Build 0)  -->
<svg version="1.1" id="Layer_1" xmlns="http://www.w3.org/2000/svg" xmlns:xlink="http://www.w3.org/1999/xlink" x="0px" y="0px"
	 viewBox="0 0 512 512" style="enable-background:new 0 0 512 512;" xml:space="preserve">
<g>
	<g>
		<path d="M501.333,170.667h-160v-160C341.333,4.776,336.558,0,330.667,0h-160C164.776,0,160,4.776,160,10.667v160H10.667
			C4.776,170.667,0,175.442,0,181.333v149.333c0,5.891,4.776,10.667,10.667,10.667H160v160c0,5.891,4.776,10.667,10.667,10.667h160
			c5.891,0,10.667-4.776,10.667-10.667v-160h160c5.891,0,10.667-4.776,10.667-10.667V181.333
			C512,175.442,507.224,170.667,501.333,170.667z M490.667,320h-160c-5.891,0-10.667,4.776-10.667,10.667v160H181.333v-160
			c0-5.891-4.776-10.667-10.667-10.667H21.333V192h149.333c5.891,0,10.667-4.776,10.667-10.667v-160H320v160
			c0,5.891,4.776,10.667,10.667,10.667h160V320z"/>
	</g>
</g>
<g>
</g>
<g>
</g>
<g>
</g>
<g>
</g>
<g>
</g>
<g>
</g>
<g>
</g>
<g>
</g>
<g>
</g>
<g>
</g>
<g>
</g>
<g>
</g>
<g>
</g>
<g>
</g>
<g>
</g>
</svg>
