<?xml version="1.0" encoding="iso-8859-1"?>
<!-- Generator: Adobe Illustrator 19.0.0, SVG Export Plug-In . SVG Version: 6.00 Build 0)  -->
<svg version="1.1" id="Layer_1" xmlns="http://www.w3.org/2000/svg" xmlns:xlink="http://www.w3.org/1999/xlink" x="0px" y="0px"
	 viewBox="0 0 512 512" style="enable-background:new 0 0 512 512;" xml:space="preserve">
<g>
	<g>
		<path d="M256,0C114.848,0,0,114.848,0,256s114.848,256,256,256s256-114.848,256-256S397.152,0,256,0z M256,490.667
			C126.603,490.667,21.333,385.397,21.333,256S126.603,21.333,256,21.333S490.667,126.603,490.667,256S385.397,490.667,256,490.667z
			"/>
	</g>
</g>
<g>
	<g>
		<path d="M192,149.333h-32c-5.891,0-10.667,4.776-10.667,10.667v192c0,5.891,4.776,10.667,10.667,10.667h32
			c5.891,0,10.667-4.776,10.667-10.667V160C202.667,154.109,197.891,149.333,192,149.333z M181.333,341.333h-10.667V170.667h10.667
			V341.333z"/>
	</g>
</g>
<g>
	<g>
		<path d="M356.48,150.325c-3.773-1.742-8.215-1.135-11.381,1.557l-106.667,90.667c-4.486,3.818-5.027,10.55-1.209,15.036
			c0.37,0.435,0.774,0.839,1.209,1.209l106.667,90.667c4.492,3.811,11.223,3.26,15.035-1.232c1.634-1.926,2.532-4.37,2.533-6.896
			V160C362.664,155.846,360.25,152.07,356.48,150.325z M341.333,318.272l-79.531-67.605l79.531-67.605V318.272z"/>
	</g>
</g>
<g>
</g>
<g>
</g>
<g>
</g>
<g>
</g>
<g>
</g>
<g>
</g>
<g>
</g>
<g>
</g>
<g>
</g>
<g>
</g>
<g>
</g>
<g>
</g>
<g>
</g>
<g>
</g>
<g>
</g>
</svg>
