<?xml version="1.0" encoding="iso-8859-1"?>
<!-- Generator: Adobe Illustrator 19.0.0, SVG Export Plug-In . SVG Version: 6.00 Build 0)  -->
<svg version="1.1" id="Layer_1" xmlns="http://www.w3.org/2000/svg" xmlns:xlink="http://www.w3.org/1999/xlink" x="0px" y="0px"
	 viewBox="0 0 512.036 512.036" style="enable-background:new 0 0 512.036 512.036;" xml:space="preserve">
<g>
	<g>
		<path d="M455.583,317.738c-4.267-4.053-10.987-3.947-15.04,0.213c-3.947,4.16-3.947,10.667,0,14.827l35.093,35.093h-92.267
			c-44.8,0-63.467-24.853-85.013-53.547c-15.253-20.373-32-42.56-59.52-54.613c24.96-13.44,40.533-35.733,54.933-56.427
			c22.187-31.893,41.387-59.413,89.067-59.413h92.8l-35.093,35.093c-4.267,4.053-4.373,10.88-0.213,15.04
			c4.053,4.267,10.88,4.373,15.04,0.213c0.107-0.107,0.213-0.213,0.213-0.213l53.333-53.333c4.16-4.16,4.16-10.88,0-15.04
			l-53.333-53.333c-4.267-4.053-10.987-3.947-15.04,0.213c-3.947,4.16-3.947,10.667,0,14.827l35.093,35.093h-92.8
			c-58.88,0-84.267,36.48-106.56,68.587c-22.187,31.893-41.28,59.413-89.067,59.413H10.996c-5.333,0-10.133,3.84-10.88,9.067
			c-0.96,6.827,4.16,12.48,10.56,12.48h176.427c1.387,0,2.667-0.107,4.053-0.107c0.32,0,0.533,0.107,0.747,0.107
			c47.787,0,66.987,25.6,89.28,55.253c21.867,29.12,46.613,62.08,102.08,62.08h92.267l-35.093,35.093
			c-4.267,4.053-4.373,10.88-0.213,15.04c4.053,4.267,10.88,4.373,15.04,0.213c0.107-0.107,0.213-0.213,0.213-0.213l53.333-53.333
			c4.16-4.16,4.16-10.88,0-15.04L455.583,317.738z"/>
	</g>
</g>
<g>
</g>
<g>
</g>
<g>
</g>
<g>
</g>
<g>
</g>
<g>
</g>
<g>
</g>
<g>
</g>
<g>
</g>
<g>
</g>
<g>
</g>
<g>
</g>
<g>
</g>
<g>
</g>
<g>
</g>
</svg>
