<?xml version="1.0" encoding="iso-8859-1"?>
<!-- Generator: Adobe Illustrator 19.0.0, SVG Export Plug-In . SVG Version: 6.00 Build 0)  -->
<svg version="1.1" id="Layer_1" xmlns="http://www.w3.org/2000/svg" xmlns:xlink="http://www.w3.org/1999/xlink" x="0px" y="0px"
	 viewBox="0 0 512.027 512.027" style="enable-background:new 0 0 512.027 512.027;" xml:space="preserve">
<g>
	<g>
		<g>
			<path d="M333.773,408.533l-67.093,67.093V139.093c0-5.333-3.84-10.133-9.067-10.88c-6.613-0.96-12.267,4.16-12.267,10.56v336.96
				l-67.093-67.2c-4.267-4.053-10.987-3.947-15.04,0.213c-3.947,4.16-3.947,10.667,0,14.827l85.333,85.333
				c4.16,4.16,10.88,4.16,15.04,0l85.333-85.333c4.053-4.267,3.947-10.987-0.213-15.04
				C344.547,404.587,337.933,404.587,333.773,408.533z"/>
			<path d="M501.347,0H11C5.667,0,0.867,3.84,0.12,9.067c-0.96,6.613,4.16,12.267,10.56,12.267h490.347
				c5.333,0,10.133-3.84,10.88-9.067C512.867,5.653,507.747,0,501.347,0z"/>
		</g>
	</g>
</g>
<g>
</g>
<g>
</g>
<g>
</g>
<g>
</g>
<g>
</g>
<g>
</g>
<g>
</g>
<g>
</g>
<g>
</g>
<g>
</g>
<g>
</g>
<g>
</g>
<g>
</g>
<g>
</g>
<g>
</g>
</svg>
