<?xml version="1.0" encoding="iso-8859-1"?>
<!-- Generator: Adobe Illustrator 19.0.0, SVG Export Plug-In . SVG Version: 6.00 Build 0)  -->
<svg version="1.1" id="Layer_1" xmlns="http://www.w3.org/2000/svg" xmlns:xlink="http://www.w3.org/1999/xlink" x="0px" y="0px"
	 viewBox="0 0 512.027 512.027" style="enable-background:new 0 0 512.027 512.027;" xml:space="preserve">
<g>
	<g>
		<g>
			<path d="M373.36,245.347H36.4l67.093-67.093c4.053-4.267,3.947-10.987-0.213-15.04c-4.16-3.947-10.667-3.947-14.827,0
				L3.12,248.547c-4.16,4.16-4.16,10.88,0,15.04l85.333,85.333c4.267,4.053,10.987,3.947,15.04-0.213
				c3.947-4.16,3.947-10.667,0-14.827L36.4,266.68h336.96c5.867,0,10.667-4.8,10.667-10.667
				C384.027,250.147,379.227,245.347,373.36,245.347z"/>
			<path d="M499.76,0.12c-5.227,0.747-9.067,5.547-9.067,10.88v490.027c0,5.333,3.84,10.133,9.067,10.88
				c6.613,0.96,12.267-4.16,12.267-10.56V10.68C512.027,4.28,506.373-0.84,499.76,0.12z"/>
		</g>
	</g>
</g>
<g>
</g>
<g>
</g>
<g>
</g>
<g>
</g>
<g>
</g>
<g>
</g>
<g>
</g>
<g>
</g>
<g>
</g>
<g>
</g>
<g>
</g>
<g>
</g>
<g>
</g>
<g>
</g>
<g>
</g>
</svg>
