<?xml version="1.0" encoding="iso-8859-1"?>
<!-- Generator: Adobe Illustrator 19.0.0, SVG Export Plug-In . SVG Version: 6.00 Build 0)  -->
<svg version="1.1" id="Layer_1" xmlns="http://www.w3.org/2000/svg" xmlns:xlink="http://www.w3.org/1999/xlink" x="0px" y="0px"
	 viewBox="0 0 512 512" style="enable-background:new 0 0 512 512;" xml:space="preserve">
<g>
	<g>
		<g>
			<path d="M508.832,248.427l-85.333-85.333c-4.267-4.053-10.987-3.947-15.04,0.213c-3.947,4.16-3.947,10.667,0,14.827l67.2,67.093
				h-208.96c-5.867,0-10.667,4.8-10.667,10.667c0,5.867,4.8,10.667,10.667,10.667h208.96l-67.093,67.093
				c-4.267,4.053-4.373,10.88-0.213,15.04c4.053,4.267,10.88,4.373,15.04,0.213c0.107-0.107,0.213-0.213,0.213-0.213l85.333-85.333
				c0.96-0.853,1.707-2.027,2.24-3.307C512.778,256.107,511.925,251.52,508.832,248.427z"/>
			<path d="M160.032,0H10.698C4.832,0,0.032,4.8,0.032,10.667v490.667c0,5.867,4.8,10.667,10.667,10.667h149.333
				c5.867,0,10.667-4.8,10.667-10.667V10.667C170.698,4.8,165.898,0,160.032,0z M149.365,490.667h-128V21.333h128V490.667z"/>
		</g>
	</g>
</g>
<g>
</g>
<g>
</g>
<g>
</g>
<g>
</g>
<g>
</g>
<g>
</g>
<g>
</g>
<g>
</g>
<g>
</g>
<g>
</g>
<g>
</g>
<g>
</g>
<g>
</g>
<g>
</g>
<g>
</g>
</svg>
