<?xml version="1.0" encoding="iso-8859-1"?>
<!-- Generator: Adobe Illustrator 19.0.0, SVG Export Plug-In . SVG Version: 6.00 Build 0)  -->
<svg version="1.1" id="Layer_1" xmlns="http://www.w3.org/2000/svg" xmlns:xlink="http://www.w3.org/1999/xlink" x="0px" y="0px"
	 viewBox="0 0 512.019 512.019" style="enable-background:new 0 0 512.019 512.019;" xml:space="preserve">
<g>
	<g>
		<g>
			<path d="M508.841,248.436l-85.333-85.333c-4.267-4.053-10.987-3.947-15.04,0.213c-3.947,4.16-3.947,10.667,0,14.827l67.2,67.093
				h-336.96c-5.867,0-10.667,4.8-10.667,10.667c0,5.867,4.8,10.667,10.667,10.667h336.96l-67.093,67.093
				c-4.267,4.053-4.373,10.88-0.213,15.04c4.053,4.267,10.88,4.373,15.04,0.213c0.107-0.107,0.213-0.213,0.213-0.213l85.333-85.333
				c0.96-0.853,1.707-2.027,2.24-3.307C512.788,256.116,511.934,251.53,508.841,248.436z"/>
			<path d="M9.108,0.116c-5.227,0.747-9.067,5.547-9.067,10.88v490.027c0,5.333,3.84,10.133,9.067,10.88
				c6.613,0.96,12.267-4.16,12.267-10.56V10.676C21.374,4.276,15.721-0.844,9.108,0.116z"/>
		</g>
	</g>
</g>
<g>
</g>
<g>
</g>
<g>
</g>
<g>
</g>
<g>
</g>
<g>
</g>
<g>
</g>
<g>
</g>
<g>
</g>
<g>
</g>
<g>
</g>
<g>
</g>
<g>
</g>
<g>
</g>
<g>
</g>
</svg>
