<?xml version="1.0" encoding="iso-8859-1"?>
<!-- Generator: Adobe Illustrator 19.0.0, SVG Export Plug-In . SVG Version: 6.00 Build 0)  -->
<svg version="1.1" id="Layer_1" xmlns="http://www.w3.org/2000/svg" xmlns:xlink="http://www.w3.org/1999/xlink" x="0px" y="0px"
	 viewBox="0 0 512.025 512.025" style="enable-background:new 0 0 512.025 512.025;" xml:space="preserve">
<g>
	<g>
		<path d="M512.025,256.03c0-18.773-9.92-36.16-26.027-45.76c17.6-23.573,12.693-56.96-10.88-74.56
			c-7.147-5.333-15.36-8.747-24.107-10.027c7.253-28.48-10.027-57.493-38.507-64.747c-8.533-2.133-17.6-2.133-26.133,0
			c-4.267-29.12-31.253-49.28-60.373-45.013c-8.747,1.28-17.067,4.693-24.107,10.027C286.745,0.777,253.998-7.543,228.825,7.497
			c-7.573,4.48-13.973,10.88-18.453,18.453c-23.68-17.493-57.067-12.693-74.667,10.88c-5.333,7.147-8.747,15.36-10.027,24.213
			c-28.48-7.253-57.387,10.027-64.64,38.613c-2.133,8.533-2.133,17.493,0,26.133c-29.12,4.267-49.28,31.253-45.013,60.373
			c1.28,8.747,4.693,17.067,10.027,24.107c-25.28,15.04-33.6,47.787-18.56,72.96c4.48,7.573,10.88,13.973,18.453,18.453
			c-17.6,23.573-12.8,56.96,10.773,74.56c7.147,5.333,15.467,8.747,24.213,10.027c-7.253,28.48,10.027,57.493,38.507,64.747
			c8.533,2.133,17.6,2.133,26.133,0c4.267,29.12,31.253,49.28,60.373,45.013c8.747-1.28,17.067-4.693,24.107-10.027
			c15.04,25.28,47.68,33.6,72.96,18.453c7.573-4.48,13.973-10.88,18.453-18.453c23.573,17.6,56.96,12.693,74.56-10.88
			c5.333-7.147,8.747-15.36,10.027-24.107c28.48,7.253,57.493-10.027,64.64-38.507c2.133-8.533,2.133-17.6,0-26.133
			c29.12-4.267,49.28-31.253,45.013-60.373c-1.28-8.747-4.693-17.067-10.027-24.213C502.105,292.19,512.025,274.803,512.025,256.03z
			 M489.945,261.79c-2.24,13.013-12.373,23.253-25.387,25.6c-5.76,1.067-9.6,6.613-8.533,12.48c0.533,2.88,2.24,5.44,4.693,6.933
			c14.827,9.6,18.987,29.333,9.387,44.16c-7.147,11.093-20.48,16.533-33.387,13.867c-5.76-1.173-11.413,2.453-12.693,8.213
			c-0.64,2.88,0,5.867,1.6,8.213c10.027,14.507,6.293,34.347-8.213,44.373c-10.88,7.467-25.28,7.467-36.16,0
			c-4.8-3.307-11.52-2.133-14.827,2.667c-1.707,2.453-2.24,5.44-1.6,8.32c3.627,17.28-7.36,34.24-24.533,37.867
			c-12.907,2.773-26.24-2.773-33.387-13.867c-3.2-4.907-9.813-6.4-14.72-3.093c-2.453,1.6-4.16,4.16-4.693,7.04
			c-3.2,17.387-19.84,28.8-37.12,25.6c-13.013-2.347-23.253-12.587-25.6-25.6c-0.747-4.267-4.16-7.68-8.427-8.533
			c-0.747-0.107-1.387-0.213-2.133-0.213c-3.627,0-6.933,1.813-8.96,4.8c-9.707,14.72-29.547,18.773-44.267,9.067
			c-10.88-7.147-16.32-20.267-13.76-33.067c1.173-5.76-2.453-11.413-8.213-12.693c-2.88-0.64-5.867,0-8.213,1.6
			c-14.507,10.027-34.453,6.293-44.373-8.213c-7.467-10.88-7.467-25.28,0-36.16c3.307-4.8,2.133-11.52-2.773-14.827
			c-2.453-1.707-5.44-2.24-8.32-1.6c-17.28,3.627-34.24-7.36-37.867-24.64c-2.773-12.907,2.773-26.133,13.76-33.387
			c4.907-3.2,6.293-9.813,3.093-14.72c-1.6-2.453-4.16-4.16-6.933-4.693c-17.387-3.2-28.8-19.84-25.6-37.227
			c2.453-13.013,12.587-23.147,25.6-25.6c5.76-1.067,9.6-6.613,8.533-12.48c-0.533-2.88-2.24-5.44-4.693-6.933
			c-14.827-9.6-18.987-29.44-9.387-44.16c7.147-11.093,20.48-16.533,33.387-13.867c5.76,1.173,11.413-2.453,12.693-8.213
			c0.64-2.88,0-5.867-1.6-8.213c-10.027-14.507-6.293-34.453,8.32-44.373c10.88-7.467,25.173-7.467,36.053,0
			c4.8,3.307,11.52,2.133,14.827-2.667c1.707-2.453,2.24-5.44,1.6-8.32c-3.627-17.28,7.36-34.24,24.64-37.867
			c12.907-2.773,26.133,2.773,33.387,13.76c3.2,4.907,9.813,6.293,14.72,3.093c2.453-1.6,4.16-4.16,4.693-6.933
			c3.2-17.387,19.84-28.8,37.12-25.6c13.013,2.347,23.253,12.587,25.6,25.6c1.067,5.76,6.613,9.6,12.48,8.533
			c2.88-0.533,5.44-2.24,7.04-4.693c9.6-14.72,29.44-18.987,44.16-9.28c11.093,7.147,16.533,20.48,13.76,33.387
			c-1.28,5.76,2.453,11.413,8.213,12.693c2.88,0.64,5.867,0,8.32-1.6c14.507-10.027,34.347-6.293,44.373,8.213
			c7.467,10.88,7.467,25.28,0,36.16c-3.307,4.907-2.133,11.52,2.773,14.827c2.453,1.707,5.44,2.24,8.213,1.6
			c17.28-3.627,34.24,7.36,37.867,24.64c2.773,12.907-2.773,26.24-13.867,33.387c-4.907,3.2-6.293,9.813-3.093,14.72
			c1.6,2.453,4.16,4.16,6.933,4.693C481.732,227.763,493.252,244.403,489.945,261.79z"/>
	</g>
</g>
<g>
</g>
<g>
</g>
<g>
</g>
<g>
</g>
<g>
</g>
<g>
</g>
<g>
</g>
<g>
</g>
<g>
</g>
<g>
</g>
<g>
</g>
<g>
</g>
<g>
</g>
<g>
</g>
<g>
</g>
</svg>
