<?xml version="1.0" encoding="iso-8859-1"?>
<!-- Generator: Adobe Illustrator 19.0.0, SVG Export Plug-In . SVG Version: 6.00 Build 0)  -->
<svg version="1.1" id="Layer_1" xmlns="http://www.w3.org/2000/svg" xmlns:xlink="http://www.w3.org/1999/xlink" x="0px" y="0px"
	 viewBox="0 0 511.98 511.98" style="enable-background:new 0 0 511.98 511.98;" xml:space="preserve">
<g>
	<g>
		<path d="M511.98,255.849c0-3.2-1.387-6.187-3.84-8.213l-40.64-33.92l24.64-46.827c2.773-5.227,0.747-11.627-4.48-14.4
			c-0.533-0.32-1.173-0.533-1.813-0.747l-50.56-15.787l4.8-52.693c0.32-3.2-0.853-6.293-3.093-8.533
			c-2.24-2.24-5.333-3.307-8.533-3.093l-52.693,4.8l-15.68-50.453c-1.707-5.653-7.68-8.747-13.333-7.04
			c-0.64,0.213-1.173,0.427-1.813,0.747l-46.827,24.64l-33.92-40.64c-4.053-4.48-11.093-4.907-15.573-0.853
			c-0.32,0.213-0.533,0.533-0.853,0.853l-33.92,40.64l-46.827-24.64c-5.227-2.773-11.627-0.747-14.4,4.48
			c-0.32,0.533-0.533,1.173-0.747,1.813l-15.787,50.56l-52.693-4.8c-3.2-0.32-6.293,0.853-8.533,3.093
			c-2.24,2.24-3.413,5.333-3.093,8.533l4.8,52.693l-50.453,15.68c-5.653,1.707-8.747,7.787-7.04,13.333
			c0.213,0.64,0.427,1.173,0.747,1.813l24.64,46.827l-40.64,33.92c-4.48,3.733-5.12,10.453-1.387,15.04
			c0.427,0.533,0.853,0.96,1.387,1.387l40.64,33.92l-24.64,46.827c-2.773,5.227-0.747,11.627,4.48,14.4
			c0.533,0.32,1.173,0.533,1.813,0.747l50.56,15.787l-4.8,52.693c-0.32,3.2,0.853,6.293,3.093,8.533
			c2.24,2.24,5.333,3.413,8.533,3.093l52.693-4.8l15.787,50.56c1.707,5.653,7.68,8.747,13.333,7.04
			c0.64-0.213,1.173-0.427,1.813-0.747l46.827-24.64l33.92,40.64c3.733,4.48,10.453,5.12,15.04,1.387
			c0.533-0.427,0.96-0.853,1.387-1.387l33.92-40.64l46.827,24.64c5.227,2.773,11.627,0.747,14.4-4.48
			c0.32-0.533,0.533-1.173,0.747-1.813l15.68-50.56l52.693,4.8c3.2,0.32,6.293-0.853,8.533-3.093s3.413-5.333,3.093-8.533
			l-4.8-52.693l50.56-15.787c5.653-1.707,8.747-7.68,7.04-13.333c-0.213-0.64-0.427-1.173-0.747-1.813l-24.64-46.827l40.64-33.92
			C510.594,261.929,511.98,258.942,511.98,255.849z M447.233,286.996c-3.84,3.2-4.907,8.747-2.667,13.12l22.613,43.2l-46.507,14.507
			c-4.8,1.493-7.893,6.187-7.467,11.2l4.373,48.533l-48.533-4.373c-5.013-0.533-9.707,2.667-11.2,7.467l-14.4,46.507l-43.2-22.613
			c-4.48-2.347-9.92-1.28-13.12,2.667l-31.147,37.333l-31.253-37.44c-3.2-3.84-8.747-4.907-13.12-2.667l-43.093,22.72
			l-14.507-46.507c-1.493-4.8-6.08-8-11.2-7.467l-48.533,4.373l4.373-48.533c0.427-5.013-2.667-9.707-7.467-11.2l-46.507-14.4
			l22.613-43.2c2.347-4.48,1.28-9.92-2.667-13.12l-37.44-31.253l37.44-31.253c3.84-3.2,4.907-8.747,2.667-13.12l-22.613-43.2
			l46.507-14.507c4.8-1.493,7.893-6.187,7.467-11.093l-4.373-48.533l48.533,4.373c5.013,0.427,9.707-2.667,11.2-7.467l14.507-46.507
			l43.2,22.613c4.48,2.347,9.92,1.28,13.12-2.667l31.147-37.333l31.253,37.44c3.2,3.84,8.747,4.907,13.12,2.667l43.093-22.72
			l14.507,46.507c1.493,4.8,6.187,7.893,11.2,7.467l48.533-4.373l-4.373,48.533c-0.427,5.013,2.667,9.707,7.467,11.093
			l46.507,14.507l-22.613,43.2c-2.347,4.48-1.28,9.92,2.667,13.12l37.44,31.253L447.233,286.996z"/>
	</g>
</g>
<g>
</g>
<g>
</g>
<g>
</g>
<g>
</g>
<g>
</g>
<g>
</g>
<g>
</g>
<g>
</g>
<g>
</g>
<g>
</g>
<g>
</g>
<g>
</g>
<g>
</g>
<g>
</g>
<g>
</g>
</svg>
