<?xml version="1.0" encoding="iso-8859-1"?>
<!-- Generator: Adobe Illustrator 19.0.0, SVG Export Plug-In . SVG Version: 6.00 Build 0)  -->
<svg version="1.1" id="Layer_1" xmlns="http://www.w3.org/2000/svg" xmlns:xlink="http://www.w3.org/1999/xlink" x="0px" y="0px"
	 viewBox="0 0 512 512" style="enable-background:new 0 0 512 512;" xml:space="preserve">
<g>
	<g>
		<g>
			<path d="M263.573,216.539c-4.16-4.16-10.88-4.16-15.04,0L77.867,387.206c-4.053,4.267-3.947,10.987,0.213,15.04
				c4.16,3.947,10.667,3.947,14.827,0L256,239.153l163.093,163.093c4.267,4.053,10.987,3.947,15.04-0.213
				c3.947-4.16,3.947-10.667,0-14.827L263.573,216.539z"/>
			<path d="M501.333,106.779H10.667C4.8,106.779,0,111.579,0,117.446c0,5.867,4.8,10.667,10.667,10.667h490.667
				c5.867,0,10.667-4.8,10.667-10.667C512,111.579,507.2,106.779,501.333,106.779z"/>
		</g>
	</g>
</g>
<g>
</g>
<g>
</g>
<g>
</g>
<g>
</g>
<g>
</g>
<g>
</g>
<g>
</g>
<g>
</g>
<g>
</g>
<g>
</g>
<g>
</g>
<g>
</g>
<g>
</g>
<g>
</g>
<g>
</g>
</svg>
